<svg width="234" height="60" viewBox="0 0 234 60" fill="none" xmlns="http://www.w3.org/2000/svg">
<mask id="mask0_1056_5413" style="mask-type:alpha" maskUnits="userSpaceOnUse" x="0" y="7" width="48" height="43">
<rect y="7.88745" width="47.8536" height="41.1222" fill="#E45C9C"/>
</mask>
<g mask="url(#mask0_1056_5413)">
<path d="M35.0768 8.32391C30.8822 7.89234 25.549 10.065 24.2131 13.684C23.0256 10.0147 16.6253 7.64345 12.4163 7.90739C1.30977 8.60382 -2.69935 21.0894 1.82955 29.6295C4.26729 34.226 7.82239 38.2735 11.7164 41.9217C12.7882 42.9256 14.4195 44.3027 16.1273 45.6986C16.118 45.6963 16.1087 45.6947 16.0995 45.6923C17.5227 46.8551 18.9968 48.0289 20.2438 49.0097C20.508 47.0725 20.8888 44.6653 20.8182 44.023C20.6687 42.6635 20.0702 41.4116 19.0709 40.4707C18.0508 39.5103 16.9543 38.6859 16.0828 37.5708C15.7017 37.0832 15.3984 36.544 15.0416 36.0391C14.6825 35.5311 14.2977 35.0414 13.9016 34.5619C13.0901 33.58 12.2318 32.6384 11.3691 31.7019C10.6359 30.9059 9.85566 30.1293 9.20391 29.2634C8.76378 28.6788 8.2565 27.8175 8.86449 27.1679C9.29953 26.703 9.88043 26.4277 10.4824 26.6926C11.1761 26.9975 11.7551 27.5888 12.2758 28.1222C12.9338 28.7964 13.5423 29.5172 14.1521 30.2347C14.5318 30.6815 14.9164 31.2666 15.4188 31.5861C16.3004 32.1469 17.8345 32.1709 18.5488 31.3254C19.0994 30.6739 19.022 29.7232 18.8375 28.9488C18.5662 27.8092 18.1781 26.7 17.9193 25.5541C17.424 23.3616 17.0476 21.1077 16.9492 18.8591C16.9214 18.2258 16.8779 17.535 17.0413 16.9152C17.1444 16.5246 17.4465 16.3398 17.8049 16.1868C19.2878 15.5531 19.7884 17.485 19.9305 18.5583C20.1146 19.9461 20.2306 21.304 20.6812 22.6415C20.9618 23.4741 21.3324 24.3456 21.933 25.0024C22.0745 25.1568 22.3824 25.5534 22.5063 25.2342C22.6778 24.7919 22.619 24.2092 22.6403 23.7438C22.6707 23.0775 22.7772 22.4176 22.7982 21.7506C22.8216 21.0028 22.7788 20.2526 22.7334 19.5064C22.67 18.459 22.5054 17.3157 22.7624 16.2824C22.9288 15.6126 23.466 14.9611 24.23 15.0535C24.9463 15.1398 25.1871 15.9847 25.2753 16.5834C25.3332 16.977 25.3423 17.3785 25.3284 17.7755C25.3117 18.2576 25.2999 18.7243 25.3054 19.2075C25.3254 20.9298 25.3337 22.7272 25.7268 24.4122C25.7847 24.6593 25.85 25.0552 26.0382 25.2453C26.2702 25.4794 26.4469 25.0992 26.5251 24.901C26.8946 23.9679 26.9115 22.8541 26.9562 21.8638C26.9972 20.9528 27.0352 20.0477 26.9433 19.1399C26.8627 18.3423 26.8291 17.2685 27.3774 16.613C27.7832 16.1275 28.4977 16.0814 28.9221 16.5558C29.3812 17.0691 29.4787 17.8813 29.5415 18.5366C29.7035 20.2248 29.591 22.0032 29.3604 23.6802C29.2495 24.4856 29.1604 25.3006 29.1574 26.1142C29.1562 26.4212 29.0923 27.7654 29.6866 27.4235C30.3851 27.0215 30.6621 26.0679 30.8311 25.339C31.0353 24.4579 31.1191 23.5547 31.2592 22.6626C31.3564 22.0423 31.4474 21.2681 31.8641 20.7657C32.1174 20.4603 32.6629 20.2515 33.0549 20.3818C33.4834 20.5242 33.5696 21.0426 33.6031 21.4316C33.683 22.3623 33.5955 23.315 33.5631 24.2458C33.4885 26.3869 33.3068 28.4781 32.9414 30.5917C32.5633 32.7789 32.0829 34.9578 31.4421 37.0839C31.1869 37.9302 30.9077 38.7748 30.5481 39.583C30.1775 40.4165 29.6033 41.1366 29.2527 41.9791C29.1386 42.2532 29.0175 42.5656 29.03 42.8684C29.0453 43.2412 29.1976 43.6271 29.2453 44.0057C29.2604 44.1263 29.2743 44.2472 29.2886 44.3678C29.3407 44.8019 29.5229 45.9248 29.6896 46.965C31.894 45.3295 34.166 43.5919 35.5493 42.3968C39.589 38.907 43.306 35.0046 45.9289 30.509C50.8021 22.156 46.1461 9.46255 35.0768 8.32391Z" fill="#E45C9C"/>
<path d="M30.098 32.6196C28.8188 32.6152 27.5398 32.6108 26.2607 32.6064C26.1407 32.6062 26.021 32.6057 25.9011 32.6053C25.9043 31.6738 25.9076 30.7422 25.9106 29.8105C25.9122 29.3433 25.9138 28.8758 25.9154 28.4084C25.9159 28.2528 25.7844 28.1199 25.6284 28.1194C24.8333 28.1167 24.0385 28.1139 23.2434 28.1111C23.0876 28.1106 22.9549 28.2421 22.9545 28.3984C22.95 29.6774 22.9457 30.9566 22.9412 32.2357C22.9408 32.3554 22.9403 32.4754 22.9401 32.5951C22.0084 32.5921 21.0768 32.5888 20.1453 32.5856C19.6779 32.584 19.2104 32.5823 18.7432 32.5807C18.5874 32.5803 18.4545 32.7118 18.454 32.8678C18.4512 33.6629 18.4487 34.4579 18.4459 35.2528C18.4457 35.3412 18.4783 35.4084 18.5279 35.4549C18.5742 35.507 18.6423 35.5417 18.733 35.5419C20.0122 35.5464 21.2914 35.5508 22.5703 35.5551C22.6903 35.5554 22.81 35.5558 22.9299 35.5563C22.9267 36.488 22.9234 37.4194 22.9204 38.3511L22.9156 39.7532C22.9151 39.909 23.0466 40.0417 23.2027 40.0421L25.5876 40.0505C25.6758 40.0507 25.743 40.0181 25.7895 39.9683C25.8416 39.9222 25.8763 39.8539 25.8766 39.7634C25.8809 38.4842 25.8854 37.205 25.8897 35.9258C25.8902 35.8061 25.8907 35.6862 25.8909 35.5665C26.8226 35.5695 27.7542 35.5727 28.6857 35.576L30.0878 35.5809C30.2436 35.5813 30.3763 35.4498 30.377 35.2938C30.3797 34.4987 30.3823 33.7036 30.3851 32.9088C30.3855 32.753 30.254 32.6201 30.098 32.6196Z" fill="#E45C9C"/>
</g>
<path d="M57.0476 29.84C57.0476 27.0667 57.6209 24.6 58.7676 22.44C59.9409 20.2533 61.5942 18.56 63.7276 17.36C65.8609 16.1333 68.3142 15.52 71.0876 15.52C74.6076 15.52 77.5676 16.4667 79.9676 18.36C82.3676 20.2267 83.9142 22.7733 84.6076 26H76.1676C75.6609 24.9333 74.9542 24.12 74.0476 23.56C73.1676 23 72.1409 22.72 70.9676 22.72C69.1542 22.72 67.7009 23.3733 66.6076 24.68C65.5409 25.96 65.0076 27.68 65.0076 29.84C65.0076 32.0267 65.5409 33.7733 66.6076 35.08C67.7009 36.36 69.1542 37 70.9676 37C72.1409 37 73.1676 36.72 74.0476 36.16C74.9542 35.6 75.6609 34.7867 76.1676 33.72H84.6076C83.9142 36.9467 82.3676 39.5067 79.9676 41.4C77.5676 43.2667 74.6076 44.2 71.0876 44.2C68.3142 44.2 65.8609 43.6 63.7276 42.4C61.5942 41.1733 59.9409 39.48 58.7676 37.32C57.6209 35.1333 57.0476 32.64 57.0476 29.84ZM96.0001 15.8V32.16C96.0001 33.68 96.3467 34.8533 97.0401 35.68C97.7601 36.5067 98.8401 36.92 100.28 36.92C101.72 36.92 102.8 36.5067 103.52 35.68C104.267 34.8267 104.64 33.6533 104.64 32.16V15.8H112.48V32.16C112.48 34.7467 111.933 36.96 110.84 38.8C109.747 40.6133 108.253 41.9867 106.36 42.92C104.493 43.8267 102.413 44.28 100.12 44.28C97.8267 44.28 95.7734 43.8267 93.9601 42.92C92.1734 41.9867 90.7601 40.6133 89.7201 38.8C88.7067 36.9867 88.2001 34.7733 88.2001 32.16V15.8H96.0001ZM131.077 44L125.477 33.6H124.637V44H116.797V15.8H129.157C131.423 15.8 133.343 16.2 134.917 17C136.49 17.7733 137.677 18.8533 138.477 20.24C139.277 21.6 139.677 23.1333 139.677 24.84C139.677 26.76 139.143 28.4533 138.077 29.92C137.037 31.36 135.503 32.3867 133.477 33L139.837 44H131.077ZM124.637 28.24H128.517C129.583 28.24 130.383 27.9867 130.917 27.48C131.45 26.9733 131.717 26.24 131.717 25.28C131.717 24.3733 131.437 23.6667 130.877 23.16C130.343 22.6267 129.557 22.36 128.517 22.36H124.637V28.24ZM200.846 44H193.006L182.566 28.24V44H174.726V15.8H182.566L193.006 31.76V15.8H200.846V44ZM231.432 44H223.592L213.152 28.24V44H205.312V15.8H213.152L223.592 31.76V15.8H231.432V44Z" fill="black"/>
<path d="M156.762 44.28C154.122 44.28 151.695 43.6667 149.482 42.44C147.269 41.1867 145.509 39.4667 144.202 37.28C142.922 35.0667 142.282 32.5733 142.282 29.8C142.282 27.0267 142.922 24.5467 144.202 22.36C145.509 20.1467 147.269 18.4267 149.482 17.2C151.695 15.9733 154.122 15.36 156.762 15.36C159.429 15.36 161.855 15.9733 164.042 17.2C166.255 18.4267 168.002 20.1467 169.282 22.36C170.562 24.5467 171.202 27.0267 171.202 29.8C171.202 32.5733 170.562 35.0667 169.282 37.28C168.002 39.4667 166.255 41.1867 164.042 42.44C161.829 43.6667 159.402 44.28 156.762 44.28ZM156.762 37C158.762 37 160.335 36.3467 161.482 35.04C162.655 33.7333 163.242 31.9867 163.242 29.8C163.242 27.56 162.655 25.8 161.482 24.52C160.335 23.2133 158.762 22.56 156.762 22.56C154.735 22.56 153.149 23.2133 152.002 24.52C150.855 25.8 150.282 27.56 150.282 29.8C150.282 32.0133 150.855 33.7733 152.002 35.08C153.149 36.36 154.735 37 156.762 37Z" fill="#E45C9C"/>
</svg>
