<svg width="24" height="24" viewBox="0 0 24 24" fill="none" xmlns="http://www.w3.org/2000/svg">
<g opacity="0.44">
<path d="M11.5806 0.250087C9.84257 0.243216 8.12689 0.642338 6.57031 1.41566C6.28898 1.52918 6.09475 1.79049 6.06714 2.09261C6.03953 2.39472 6.18318 2.68691 6.43927 2.84955C6.69536 3.01219 7.0209 3.01797 7.2826 2.86453C10.2944 1.37839 13.8603 1.55359 16.7119 3.32782C19.5635 5.10205 21.2962 8.22353 21.2938 11.582C21.2938 15.532 19.1731 19.9353 15.6278 20.4857C14.8656 20.6679 14.0618 20.5018 13.4342 20.0324C12.7298 19.2541 12.3554 18.2325 12.3901 17.1833C15.1752 16.7813 17.2433 14.3961 17.2466 11.582V6.72549C17.2466 6.27846 16.8842 5.91606 16.4372 5.91606H14.0089C13.5619 5.91606 13.1995 6.27846 13.1995 6.72549C13.1995 7.17252 13.5619 7.53491 14.0089 7.53491H15.6278V11.582C15.6278 13.8172 13.8158 15.6292 11.5807 15.6292C9.34548 15.6292 7.53352 13.8172 7.53352 11.582L7.53352 7.53491H9.15237C9.59941 7.53491 9.9618 7.17252 9.9618 6.72549C9.9618 6.27846 9.59941 5.91606 9.15237 5.91606H6.7241C6.27706 5.91606 5.91467 6.27846 5.91467 6.72549V11.582C5.91797 14.3961 7.98605 16.7813 10.7712 17.1833C10.8764 19.0449 11.4026 20.421 12.3415 21.2304C13.074 21.8424 14.0109 22.1547 14.964 22.1046C15.2617 22.1049 15.5592 22.0859 15.8544 22.0479C20.4358 21.3842 22.9126 16.1553 22.9126 11.582C22.9126 5.32357 17.8391 0.250086 11.5806 0.250087Z" fill="white" stroke="#5F4660" stroke-width="0.5"/>
<path d="M4.29584 16.4385C3.94862 16.4437 3.60442 16.5038 3.27597 16.6166C0.994582 12.8553 1.52589 8.03034 4.57105 4.85562C4.79674 4.65265 4.8899 4.34047 4.81236 4.047C4.73481 3.75354 4.4996 3.52813 4.2031 3.46313C3.9066 3.39814 3.59867 3.5045 3.40548 3.73862C-0.159732 7.45421 -0.771507 13.1065 1.91613 17.4988C0.886129 18.6324 0.79136 20.3327 1.68901 21.5737C2.58665 22.8147 4.2311 23.2569 5.63014 22.6336C7.02917 22.0102 7.79999 20.4917 7.4775 18.9945C7.15502 17.4972 5.82746 16.4307 4.29584 16.4385ZM4.29584 21.295C3.40178 21.295 2.67699 20.5703 2.67699 19.6762C2.67699 18.7821 3.40178 18.0573 4.29584 18.0573C5.18991 18.0573 5.91469 18.7821 5.91469 19.6762C5.91469 20.5703 5.18991 21.295 4.29584 21.295Z" fill="white" stroke="#5F4660" stroke-width="0.5"/>
</g>
</svg>
