<svg width="23" height="23" viewBox="0 0 23 23" fill="none" xmlns="http://www.w3.org/2000/svg">
<path d="M11.331 8.72501e-05C9.59293 -0.00678445 7.87726 0.392338 6.32067 1.16566C6.03935 1.27918 5.84512 1.54049 5.81751 1.84261C5.7899 2.14472 5.93354 2.43691 6.18964 2.59955C6.44572 2.76219 6.77126 2.76797 7.03297 2.61453C10.0448 1.12839 13.6106 1.30359 16.4622 3.07782C19.3139 4.85205 21.0466 7.97353 21.0441 11.332C21.0441 15.282 18.9234 19.6853 15.3781 20.2357C14.6159 20.4179 13.8122 20.2518 13.1846 19.7824C12.4802 19.0041 12.1058 17.9825 12.1404 16.9333C14.9256 16.5313 16.9937 14.1461 16.997 11.332V6.47549C16.997 6.02846 16.6346 5.66606 16.1876 5.66606H13.7593C13.3123 5.66606 12.9499 6.02846 12.9499 6.47549C12.9499 6.92252 13.3123 7.28491 13.7593 7.28491H15.3781V11.332C15.3781 13.5672 13.5662 15.3792 11.331 15.3792C9.09585 15.3792 7.28389 13.5672 7.28389 11.332L7.28389 7.28491H8.90274C9.34977 7.28491 9.71216 6.92252 9.71216 6.47549C9.71216 6.02846 9.34977 5.66606 8.90274 5.66606H6.47446C6.02743 5.66606 5.66504 6.02846 5.66504 6.47549V11.332C5.66834 14.1461 7.73642 16.5313 10.5216 16.9333C10.6268 18.7949 11.1529 20.171 12.0919 20.9804C12.8243 21.5924 13.7612 21.9047 14.7144 21.8546C15.0121 21.8549 15.3095 21.8359 15.6048 21.7979C20.1861 21.1342 22.663 15.9053 22.663 11.332C22.663 5.07357 17.5895 8.57004e-05 11.331 8.72501e-05Z" fill="#ED67B8"/>
<path d="M4.04584 16.1885C3.69862 16.1937 3.35442 16.2538 3.02597 16.3666C0.744582 12.6053 1.27589 7.78035 4.32105 4.60562C4.54674 4.40265 4.6399 4.09047 4.56236 3.797C4.48481 3.50354 4.2496 3.27813 3.9531 3.21313C3.6566 3.14814 3.34867 3.2545 3.15548 3.48862C-0.409732 7.20421 -1.02151 12.8565 1.66613 17.2488C0.636129 18.3824 0.54136 20.0827 1.43901 21.3237C2.33665 22.5647 3.9811 23.0069 5.38014 22.3836C6.77917 21.7602 7.54999 20.2417 7.2275 18.7445C6.90502 17.2472 5.57746 16.1807 4.04584 16.1885ZM4.04584 21.045C3.15178 21.045 2.42699 20.3203 2.42699 19.4262C2.42699 18.5321 3.15178 17.8073 4.04584 17.8073C4.93991 17.8073 5.66469 18.5321 5.66469 19.4262C5.66469 20.3203 4.93991 21.045 4.04584 21.045Z" fill="#ED67B8"/>
</svg>
