<svg width="496" height="304" viewBox="0 0 496 304" fill="none" xmlns="http://www.w3.org/2000/svg">
<g clip-path="url(#clip0_15176_5119)">
<path d="M22 127.579C8.74528 127.579 -2 138.289 -2 151.5C-2 164.711 8.74528 175.421 22 175.421V127.579ZM470 175.421C483.254 175.421 494 164.711 494 151.5C494 138.289 483.254 127.579 470 127.579V175.421ZM22 0C8.74528 0 -2 10.7099 -2 23.9211C-2 37.1322 8.74528 47.8421 22 47.8421V0ZM320.656 47.8421C333.91 47.8421 344.656 37.1322 344.656 23.9211C344.656 10.7099 333.91 0 320.656 0V47.8421ZM22 255.158C8.74528 255.158 -2 265.868 -2 279.079C-2 292.29 8.74528 303 22 303V255.158ZM320.656 303C333.91 303 344.656 292.29 344.656 279.079C344.656 265.868 333.91 255.158 320.656 255.158V303ZM22 175.421H470V127.579H22V175.421ZM22 47.8421H320.656V0H22V47.8421ZM22 303H320.656V255.158H22V303Z" fill="white"/>
</g>
<defs>
<clipPath id="clip0_15176_5119">
<rect width="496" height="304" fill="white"/>
</clipPath>
</defs>
</svg>
