<svg width="19" height="21" viewBox="0 0 19 21" fill="none" xmlns="http://www.w3.org/2000/svg">
<foreignObject x="-8.18182" y="-8.18182" width="35.3636" height="36.6918"><div xmlns="http://www.w3.org/1999/xhtml" style="backdrop-filter:blur(4.09px);clip-path:url(#bgblur_0_2317_43_clip_path);height:100%;width:100%"></div></foreignObject><g data-figma-bg-blur-radius="8.18182">
<path d="M3.5 10.4234C3.5 9.87107 3.94772 9.42336 4.5 9.42336H8.5C9.05228 9.42336 9.5 9.87107 9.5 10.4234V14.0005C9.5 14.5527 9.05228 15.0005 8.5 15.0005H4.5C3.94772 15.0005 3.5 14.5527 3.5 14.0005V10.4234Z" fill="#ED67B8"/>
<path d="M0.5 7.69415C0.5 6.917 0.862591 6.19586 1.4571 5.79061L8.97855 0.663652C9.29866 0.445449 9.70134 0.445449 10.0215 0.663652L17.5429 5.79061C18.1374 6.19586 18.5 6.917 18.5 7.69415V17.5972C18.5 18.8293 17.6046 19.8281 16.5 19.8281H2.5C1.39543 19.8281 0.5 18.8293 0.5 17.5972V7.69415Z" stroke="#ED67B8"/>
<path d="M3.5 10.4234C3.5 9.87107 3.94772 9.42336 4.5 9.42336H8.5C9.05228 9.42336 9.5 9.87107 9.5 10.4234V14.0005C9.5 14.5527 9.05228 15.0005 8.5 15.0005H4.5C3.94772 15.0005 3.5 14.5527 3.5 14.0005V10.4234Z" stroke="#ED67B8"/>
</g>
<defs>
<clipPath id="bgblur_0_2317_43_clip_path" transform="translate(8.18182 8.18182)"><path d="M0.5 7.69415C0.5 6.917 0.862591 6.19586 1.4571 5.79061L8.97855 0.663652C9.29866 0.445449 9.70134 0.445449 10.0215 0.663652L17.5429 5.79061C18.1374 6.19586 18.5 6.917 18.5 7.69415V17.5972C18.5 18.8293 17.6046 19.8281 16.5 19.8281H2.5C1.39543 19.8281 0.5 18.8293 0.5 17.5972V7.69415Z"/>
<path d="M3.5 10.4234C3.5 9.87107 3.94772 9.42336 4.5 9.42336H8.5C9.05228 9.42336 9.5 9.87107 9.5 10.4234V14.0005C9.5 14.5527 9.05228 15.0005 8.5 15.0005H4.5C3.94772 15.0005 3.5 14.5527 3.5 14.0005V10.4234Z"/>
</clipPath></defs>
</svg>
