<!-- <svg width="19" height="19" viewBox="0 0 19 19" fill="none" xmlns="http://www.w3.org/2000/svg">
<g>
      <path
        d="M0.5 6.94972C0.5 6.25299 0.862591 5.60647 1.4571 5.24316L8.97855 0.646718C9.29866 0.451094 9.70134 0.451094 10.0215 0.646718L17.5429 5.24316C18.1374 5.60647 18.5 6.25299 18.5 6.94972V15.8281C18.5 16.9326 17.6046 17.8281 16.5 17.8281H2.5C1.39543 17.8281 0.5 16.9326 0.5 15.8281V6.94972Z"
        stroke="currentColor" stroke-width="0.5"
      />
      <path
        d="M3.5 9.5C3.5 8.94772 3.94772 8.5 4.5 8.5H8.5C9.05228 8.5 9.5 8.94772 9.5 9.5V12.5C9.5 13.0523 9.05228 13.5 8.5 13.5H4.5C3.94772 13.5 3.5 13.0523 3.5 12.5V9.5Z"
        stroke="currentColor" stroke-width="0.5"
      />
      </g>
    </svg> -->

<svg
  width="19"
  height="19"
  viewBox="0 0 19 19"
  fill="none"
  xmlns="http://www.w3.org/2000/svg"
>
  <g>
    <path
      d="M0.5 6.94972C0.5 6.25299 0.862591 5.60647 1.4571 5.24316L8.97855 0.646718C9.29866 0.451094 9.70134 0.451094 10.0215 0.646718L17.5429 5.24316C18.1374 5.60647 18.5 6.25299 18.5 6.94972V15.8281C18.5 16.9326 17.6046 17.8281 16.5 17.8281H2.5C1.39543 17.8281 0.5 16.9326 0.5 15.8281V6.94972Z"
      stroke="currentColor"
      stroke-width="0.5"
    />
    <path
      d="M3.5 9.5C3.5 8.94772 3.94772 8.5 4.5 8.5H8.5C9.05228 8.5 9.5 8.94772 9.5 9.5V12.5C9.5 13.0523 9.05228 13.5 8.5 13.5H4.5C3.94772 13.5 3.5 13.0523 3.5 12.5V9.5Z"
      stroke="currentColor"
      stroke-width="0.5"
    />
  </g>
</svg>
