<svg width="18" height="24" viewBox="0 0 18 24" fill="none" xmlns="http://www.w3.org/2000/svg">
<g opacity="0.5">
<path d="M14.4838 20.1903L13.5092 19.2319C15.6377 17.8937 16.9541 16.5775 16.9541 14.0707C16.9541 11.0318 14.9783 8.30196 12.0231 7.21933C11.8631 6.82671 11.6061 6.47358 11.2691 6.19941L12.2873 4.36169C12.3746 4.20138 12.4182 4.02947 12.4182 3.8599C12.4182 3.50908 12.2364 3.16756 11.9212 2.95844L12.3479 2.18484C12.4473 2.00827 12.4691 1.80376 12.4061 1.61095C12.3455 1.41813 12.2073 1.26013 12.023 1.16487L10.5952 0.437578C10.2097 0.242416 9.73213 0.384126 9.52849 0.751202L9.10183 1.52255C8.53696 1.30649 7.94302 1.5481 7.68359 2.01743L2.70894 10.9946C2.43501 11.4872 2.60468 12.0889 3.07502 12.3979L2.64591 13.1692C2.54651 13.3482 2.5271 13.5526 2.58773 13.7454C2.65076 13.9382 2.78652 14.0963 2.97076 14.1892L4.40111 14.9164C4.78654 15.1139 5.26172 14.9699 5.46537 14.6051L5.88963 13.8361C6.02539 13.8895 6.16601 13.9151 6.30902 13.9151C6.71147 13.9151 7.10661 13.7083 7.31026 13.3366L8.84725 10.5649C9.06546 10.623 9.28366 10.6625 9.56245 10.6625C10.1952 10.6625 10.7916 10.4418 11.2595 10.0677C12.8813 10.7972 13.9189 12.3445 13.9189 14.0707C13.9189 16.5102 11.8486 18.4943 9.30307 18.4943C7.96728 18.4943 6.72118 17.9459 5.85085 17.0004H6.93453C7.13573 17.0004 7.29816 16.8423 7.29816 16.6519C7.29816 16.4591 7.13573 16.3034 6.93453 16.3034C3.2496 16.3034 4.15384 16.3034 0.71373 16.3034C0.514931 16.3034 0.350098 16.4591 0.350098 16.6519C0.350098 16.8424 0.514931 17.0004 0.71373 17.0004H2.29194C2.88832 18.3014 3.87015 18.4536 5.09444 19.2319L4.64108 20.1903C3.8774 20.1903 3.25681 20.785 3.25681 21.5169V23.0014C3.25681 23.1943 3.41923 23.3499 3.62043 23.3499H15.5044C15.7032 23.3499 15.868 23.1942 15.868 23.0014V21.5169C15.868 20.785 15.2474 20.1903 14.4838 20.1903ZM4.82291 14.2775C4.81321 14.296 4.79865 14.303 4.78654 14.3054C4.77684 14.31 4.75988 14.3124 4.74047 14.303L3.31258 13.5758C3.29562 13.5642 3.28592 13.5503 3.28347 13.541C3.28101 13.5293 3.27862 13.5154 3.28832 13.4969L3.71012 12.7348L5.24472 13.5154L4.82291 14.2775ZM11.4389 8.48778C11.2377 9.46589 10.234 10.128 9.18912 9.93053C8.23635 9.74931 7.57454 8.90131 7.65453 7.97899C7.65453 7.97199 7.65453 7.96269 7.65697 7.95574C7.76608 6.87312 8.83274 6.12036 9.93583 6.33178C10.9516 6.51995 11.6449 7.48876 11.4389 8.48778Z" stroke="white" stroke-width="0.7"/>
<line x1="4.3501" y1="20.1749" x2="14.3501" y2="20.1749" stroke="white" stroke-width="0.6"/>
</g>
</svg>
