<svg id="Layer_1" height="512" viewBox="0 0 136 136" width="512" xmlns="http://www.w3.org/2000/svg"><g><circle id="XMLID_11056_" cx="68" cy="68" fill="#4c5aa5" r="64"/><g id="XMLID_1965_"><path id="XMLID_2196_" d="m123.5 99.9c-4.6 8-10.9 14.9-18.4 20.3-.6.5-1.3.9-2 1.3-10.1 6.6-22.1 10.5-35.1 10.5s-25-3.9-35.1-10.5c-.7-.4-1.3-.9-2-1.3-7.5-5.4-13.8-12.3-18.4-20.3l1-3.8c.7-2.9 3.2-4.1 3.2-4.1l19.3-5.7 7.4-2.2 1.1-.3 2.5-.8 7.9-2.4c7.9 5.3 18.1 5.2 26-.1l.1.1 10.5 3.1 1.1.3 7.4 2.2 19.2 5.8s2.5 1.2 3.2 4.1z" fill="#d1d1d3"/><path id="XMLID_2113_" d="m92.6 84.1-.2.5c-5.9 13.2-21.9 22.4-22.5 22.8l-1.9 1.1-1.9-1.1c-.7-.4-16.6-9.6-22.5-22.8l-.2-.4 1.1-.3 10.5-3.3c7.9 5.3 18.1 5.2 26-.1l.1.1 10.5 3.1z" fill="#5e86c3"/><path id="XMLID_2112_" d="m89 83c-5.5 12.2-21 21-21 21s-15.5-8.8-21-21l7.9-2.4v-15.4h26.1v15.3z" fill="#f1b97c"/><path id="XMLID_2091_" d="m90.5 42.8c-.1 0-.2 0-.3 0-1.6-18.3-13.6-22-18.7-22.8v-.2h-6.9v.2c-5.1.8-17.1 4.5-18.7 22.8-.1 0-.2 0-.3 0-2.1.4-3.1 4.1-2.3 8.3.8 3.9 2.9 6.8 4.9 6.8 1.3 3.9 2.8 7.9 3.6 8.5 0 0 7.1 11.8 16.3 11.8 9.2-.1 16.3-11.8 16.3-11.8.7-.6 2.2-4.7 3.6-8.5 2 0 4.1-2.9 4.9-6.8.7-4.2-.3-7.9-2.4-8.3z" fill="#f8cfa3"/><g id="XMLID_2025_" fill="#c9c9c9"><path id="XMLID_2163_" d="m32.9 115.1v6.4c-.7-.4-1.3-.9-2-1.3z"/><path id="XMLID_2162_" d="m105.1 120.2c-.6.5-1.3.9-2 1.3v-6.4z"/></g><g id="XMLID_2020_"><path id="XMLID_2023_" d="m71 39.6c-.3 0-.6.3-.6.6s-.3.6-.6.6h-3.8c-.3 0-.6-.3-.6-.6s-.2-.6-.6-.6c-2.6-.1-12.4-.4-17 0l.2 3.3s1.7-.4 2.1 2.6c0 0 .6 4.9 4.8 5.8 0 0 2 .4 4.3.3 2.9-.1 5.5-1.9 6.5-4.7.3-.8.6-1.8.8-2.8 0 0 .2-.7 1.3-.7s1.3.7 1.3.7c.2 1.1.5 2 .8 2.8 1 2.7 3.6 4.5 6.5 4.7 2.2.1 4.3-.3 4.3-.3 4.2-.8 4.8-5.8 4.8-5.8.4-2.9 2.1-2.6 2.1-2.6l.2-3.3c-4.4-.4-14.1-.1-16.8 0z" fill="#343843"/><g fill="#e7e7e8"><path id="XMLID_2022_" d="m70.2 43.3s-.2-2.7 4.6-2.7c0 0 10.3-.6 10.2 1.6 0 0 .3 3.6-1.6 6.3-.7 1-1.8 1.7-3 1.9-.9.2-2.2.3-3.9.3-3.2-.2-5.9-2.6-6.3-5.7 0-.6 0-1.1 0-1.7z"/><path id="XMLID_2021_" d="m65.8 43.3s.2-2.7-4.6-2.7c0 0-10.3-.6-10.2 1.6 0 0-.3 3.6 1.6 6.3.7 1 1.8 1.7 3 1.9.9.2 2.2.3 3.9.3 3.2-.2 5.9-2.6 6.3-5.7 0-.6 0-1.1 0-1.7z"/></g></g><g id="XMLID_1967_"><path id="XMLID_1991_" d="m87 47.6c-.8 15.9-7.1 16.7-7.1 16.7-3-6.7-11.9-6-11.9-6s-8.8-.7-11.9 6c0 0-6.3-.8-7.1-16.7h-1.3c0 .5.4 6.1.7 11.1 0 .9.1 1.7.1 2.5.2 4.3 2 8.4 5 11.5l1.4 1.4c3.6 3.3 8.3 6.5 13.1 6.1 4.7.4 9.4-2.7 13-6 .6-.5 1.1-1 1.6-1.5 3-3.1 4.8-7.2 5-11.5 0-1 .1-2 .2-3 .3-4.9.6-10.1.6-10.6zm-23.3 15.1c1.3-.2 2.9-.1 4.3-.1s3-.1 4.3.1c1.7.3 3.3 1.2 4.4 2.5.4.5.7 1.1 1 1.7 1.3 3.7-1.5 6.1-1.5 6.1-2.8 1.9-4.1-.2-4.7-1.9-.4-1.1-1.3-2-2.5-2.3-.6-.2-1.3-.2-1.9 0-1.2.3-2.1 1.2-2.5 2.3-.6 1.7-1.9 3.7-4.7 1.9 0 0-2.9-2.4-1.5-6.1.2-.6.5-1.2.9-1.7 1.1-1.3 2.7-2.2 4.4-2.5z" fill="#343843"/><g id="XMLID_1968_"><path id="XMLID_1973_" d="m47.7 45.7v1.9h1.3l-.4-5.1c-.5-4.2 2.3-4.8 2.3-4.8-1.7-6.3 3-14.3 3-14.3v-5.8s-5.8 2.9-8.5 10.7c-2.7 7.7-.2 13.2-.2 13.2.3 2.8 2.5 4.2 2.5 4.2z" fill="#4c525e"/><path id="XMLID_1972_" d="m86.2 32c.8 2.8 1 5.7.7 8.5-.3 2.6 0 5.3.1 7h1.3c-.3-4.5 2.3-5.5 2.3-5.5 2-7.6.4-11.1.4-11.1 1.7-4.3 0-6.9 0-6.9.8-8.6-9.7-10.1-9.7-10.1l-2.5 10.1c4.1.1 6.3 4.3 7.4 8z" fill="#4c525e"/><path id="XMLID_1971_" d="m45.8 24.5s-3.9-1.2.5-8.5c0 0 8.2-10.8 21.2-10.2 4.7.2 9.2 2.4 12 6.2.7.9 1.6 1.8 1.8 1.9 3.2 3.6 1.3 9.3-3.4 10.4-3.9.9-9.3 3.1-16.7.5-6.8-2.5-9.8 4.7-10.3 7 0 0-8.9-4-5.1-7.3z" fill="#343843"/></g></g></g></g></svg>