<svg width="22" height="22" viewBox="0 0 22 22" fill="none" xmlns="http://www.w3.org/2000/svg">
<g opacity="0.44">
<path d="M15.4787 0C13.7447 0 12.1142 0.675334 10.8893 1.90121L1.90167 10.8888C0.675802 12.1151 0 13.7452 0 15.4787C0 19.0577 2.91198 21.9697 6.49106 21.9697C8.226 21.9697 9.85556 21.2944 11.0805 20.0685L20.0681 11.0814C21.2949 9.85505 21.9697 8.22497 21.9697 6.49101C21.9697 2.91198 19.0577 0 15.4787 0ZM7.01571 10.0116L4.01985 13.007C3.35963 13.6672 2.99587 14.5454 2.99587 15.4787C2.99587 15.7547 2.77253 15.978 2.49654 15.978C2.22055 15.978 1.99721 15.7547 1.99721 15.4787C1.99721 14.2782 2.46433 13.1498 3.31376 12.3009L6.30962 9.30554C6.50468 9.11048 6.82065 9.11048 7.01567 9.30554C7.21077 9.50055 7.21077 9.81652 7.01571 10.0116ZM18.6559 9.66926L14.5152 13.8095L8.16055 7.45414L12.3014 3.31329C13.1498 2.46438 14.2782 1.99721 15.4787 1.99721C17.9567 1.99721 19.9725 4.01301 19.9725 6.49101C19.9725 7.69151 19.5053 8.82035 18.6559 9.66926Z" fill="white"/>
</g>
</svg>
