<svg width="23" height="28" viewBox="0 0 23 28" fill="none" xmlns="http://www.w3.org/2000/svg">
<path d="M9.38896 4.37615L1.44277 6.69917L0.409798 3.16553C0.228055 2.54501 0.583897 1.89485 1.20441 1.71311L2.93253 1.20801L6.90352 0.0471791C7.52403 -0.133854 8.17419 0.221989 8.35594 0.842503L9.38339 4.35611L9.38896 4.37615Z" fill="#D83E32"/>
<path d="M9.38326 4.35611L3.37733 6.11185L2.3443 2.57821C2.18402 2.03025 2.44241 1.45952 2.93233 1.20801L6.90333 0.0471791C7.52384 -0.133854 8.174 0.221989 8.35574 0.842503L9.38326 4.35611Z" fill="#ED5343"/>
<path d="M18.5557 27.2395H22.4927C22.7728 27.2395 22.9997 27.0125 22.9997 26.7325V21.7155C22.9997 21.4354 22.7727 21.2085 22.4927 21.2085H18.5557" fill="#A4DDD8"/>
<path d="M18.5557 27.2395H22.4928C22.7728 27.2395 22.9998 27.0125 22.9998 26.7325V25.5164H18.5557" fill="#96CCC6"/>
<path d="M18.5557 23.858H22.9998V22.5452H18.5557" fill="#BBEAE4"/>
<path d="M18.7288 20.985V27.3938C18.7288 27.702 18.4786 27.9521 18.1705 27.9521H7.3927C6.51794 27.9521 5.74816 27.3752 5.50287 26.5356L0.0324581 7.82406C-0.0919068 7.39844 0.152018 6.95274 0.577632 6.82837L2.68921 6.21135L10.3293 3.97814C10.7549 3.85377 11.2006 4.0977 11.325 4.52331L15.9745 20.4267H18.1705C18.4786 20.4267 18.7288 20.6768 18.7288 20.985Z" fill="#EABB5E"/>
<path d="M18.7285 20.985V27.3938C18.7285 27.702 18.4783 27.9521 18.1702 27.9521H10.4327C9.55791 27.9521 8.78814 27.3752 8.54285 26.5356L2.68896 6.21129L10.3291 3.97808C10.7547 3.85371 11.2004 4.09764 11.3247 4.52325L15.9743 20.4267H18.1702C18.4783 20.4267 18.7285 20.6768 18.7285 20.985Z" fill="#F9CF70"/>
<path d="M15.9745 20.4267H9.32178L15.5821 19.0844L15.9745 20.4267Z" fill="#EABB5E"/>
<path d="M18.7287 20.985V27.3938C18.7287 27.702 18.4785 27.9521 18.1704 27.9521V20.4267C18.4785 20.4267 18.7287 20.6768 18.7287 20.985Z" fill="#D3C8BA"/>
<path d="M11.325 4.52325L0.0324581 7.824C-0.0919068 7.39838 0.152018 6.95268 0.577632 6.82831L2.68921 6.21129L10.3293 3.97808C10.755 3.85371 11.2006 4.09764 11.325 4.52325Z" fill="#EABB5E"/>
</svg>
