<svg width="29" height="26" viewBox="0 0 29 26" fill="none" xmlns="http://www.w3.org/2000/svg">
<path d="M26.8675 6.55471H15.7481C15.2113 6.55471 14.7803 6.10162 14.8168 5.55705C14.8324 5.32499 14.9405 5.10874 15.1049 4.9443L16.5007 3.54864C17.4069 2.6424 17.4055 1.17228 16.4966 0.267718C16.1356 -0.0914931 15.5429 -0.0883212 15.1828 0.27178L8.54626 7.26573C7.90258 7.94408 7.00848 8.32823 6.07336 8.32823H0.57329C0.256651 8.32823 0 8.58488 0 8.90152V16.0043C0 16.321 0.256651 16.5776 0.57329 16.5776H5.50953C6.57397 16.5776 7.56173 17.0931 8.20725 17.9395C8.9254 18.8811 10.061 19.5089 11.307 19.548L17.0171 19.5506V19.495C16.1521 19.495 15.4483 18.7912 15.4483 17.9261C15.4483 17.0611 16.1521 16.3573 17.0171 16.3573V16.2461C16.1521 16.2461 15.4483 15.5423 15.4483 14.6772C15.4483 13.8123 16.152 13.1086 17.0168 13.1084V12.9971C16.152 12.9969 15.4483 12.2931 15.4483 11.4282C15.4483 10.5632 16.1521 9.85939 17.0171 9.85939H21.296V9.80374H26.8676C27.7647 9.80374 28.4921 9.07642 28.4921 8.17926C28.492 7.28204 27.7647 6.55471 26.8675 6.55471Z" fill="#FFB09E"/>
<path d="M26.8675 8.62433H18.1964C17.5451 8.62433 17.0171 9.15232 17.0171 9.80369H26.8675C27.7647 9.80369 28.492 9.07636 28.492 8.1792C28.492 7.97113 28.4525 7.77235 28.3812 7.58949C28.1451 8.19506 27.5566 8.62433 26.8675 8.62433Z" fill="#F89580"/>
<path d="M22.9204 14.6772C22.9204 13.7801 22.1933 13.0529 21.2963 13.0527C22.1933 13.0525 22.9204 12.3252 22.9204 11.4282C22.9204 10.531 22.1931 9.8037 21.2959 9.8037H17.0171C16.1199 9.8037 15.3926 10.531 15.3926 11.4282C15.3926 12.3252 16.1197 13.0525 17.0167 13.0527C16.1197 13.0528 15.3926 13.7801 15.3926 14.6772C15.3926 15.5743 16.1199 16.3017 17.0171 16.3017C16.1199 16.3017 15.3926 17.029 15.3926 17.9261C15.3926 18.8233 16.1199 19.5506 17.0171 19.5506H21.2959C22.1931 19.5506 22.9204 18.8233 22.9204 17.9261C22.9204 17.029 22.1931 16.3017 21.2959 16.3017C22.1931 16.3017 22.9204 15.5743 22.9204 14.6772Z" fill="#FFDFCF"/>
<path d="M15.105 4.9443L16.5007 3.54864C17.407 2.6424 17.4056 1.17228 16.4966 0.267718C16.1356 -0.0914931 15.5429 -0.0883212 15.1828 0.27178L14.9385 0.529265C15.6136 1.4365 15.5396 2.72526 14.7162 3.54864L13.3205 4.9443C13.1561 5.10874 13.048 5.32499 13.0324 5.55704C12.9959 6.10162 13.4269 6.55477 13.9637 6.55477H15.7482C15.2114 6.55477 14.7804 6.10168 14.8169 5.55704C14.8324 5.32494 14.9406 5.10874 15.105 4.9443Z" fill="#F89580"/>
<path d="M22.328 10.1735C22.3286 10.192 22.3293 10.2103 22.3293 10.2289C22.3293 11.1261 21.602 11.8534 20.7049 11.8534H16.426C16.0341 11.8534 15.6747 11.7146 15.394 11.4836C15.4233 12.3551 16.1385 13.0527 17.0171 13.0527H21.296C22.1932 13.0527 22.9205 12.3254 22.9205 11.4282C22.9205 10.9229 22.6898 10.4715 22.328 10.1735Z" fill="#FFCEBF"/>
<path d="M22.328 13.4225C22.3286 13.4409 22.3293 13.4593 22.3293 13.4779C22.3293 14.3751 21.602 15.1024 20.7049 15.1024H16.426C16.0341 15.1024 15.6747 14.9636 15.394 14.7325C15.4233 15.604 16.1385 16.3017 17.0171 16.3017H21.296C22.1932 16.3017 22.9205 15.5743 22.9205 14.6772C22.9205 14.1718 22.6898 13.7205 22.328 13.4225Z" fill="#FFCEBF"/>
<path d="M22.328 16.6715C22.3286 16.6899 22.3293 16.7083 22.3293 16.7269C22.3293 17.624 21.602 18.3514 20.7049 18.3514H16.426C16.0341 18.3514 15.6747 18.2126 15.394 17.9815C15.4233 18.853 16.1385 19.5506 17.0171 19.5506H21.296C22.1932 19.5506 22.9205 18.8233 22.9205 17.9262C22.9205 17.4209 22.6898 16.9695 22.328 16.6715Z" fill="#FFCEBF"/>
<path d="M9.47156 12.5118C9.24101 12.5118 9.0542 12.325 9.0542 12.0945C9.0542 11.864 9.24101 11.6771 9.47156 11.6771C11.221 11.6771 12.6444 10.2538 12.6444 8.50431C12.6444 8.27381 12.8312 8.08694 13.0617 8.08694C13.2923 8.08694 13.4791 8.27381 13.4791 8.50431C13.4791 10.7141 11.6813 12.5118 9.47156 12.5118Z" fill="#F89580"/>
<path d="M26.5117 11.6854L25.3274 13.2777C24.547 14.327 25.2959 15.8173 26.6036 15.8173C27.9114 15.8173 28.6603 14.327 27.8799 13.2777L26.6957 11.6854C26.6498 11.6238 26.5575 11.6238 26.5117 11.6854Z" fill="#FD4755"/>
<path d="M27.8796 13.2777L26.6954 11.6854C26.6496 11.6238 26.5573 11.6238 26.5114 11.6854L26.0083 12.3619L26.6894 13.2777C27.3415 14.1545 26.9255 15.3385 26.0083 15.7044C26.1888 15.7764 26.3883 15.8174 26.6034 15.8174C27.9111 15.8174 28.6601 14.327 27.8796 13.2777Z" fill="#FB2B3A"/>
<path d="M26.5117 17.9502L25.3274 19.5424C24.547 20.5917 25.2959 22.0821 26.6036 22.0821C27.9114 22.0821 28.6603 20.5917 27.8799 19.5424L26.6957 17.9502C26.6498 17.8886 26.5575 17.8886 26.5117 17.9502Z" fill="#FD4755"/>
<path d="M27.8796 19.5424L26.6954 17.9502C26.6496 17.8886 26.5573 17.8886 26.5114 17.9502L26.0083 18.6267L26.6894 19.5425C27.3415 20.4192 26.9255 21.6033 26.0083 21.9692C26.1888 22.0412 26.3883 22.0822 26.6034 22.0822C27.9111 22.0821 28.6601 20.5918 27.8796 19.5424Z" fill="#FB2B3A"/>
<path d="M26.6694 8.59657H26.5375C26.3069 8.59657 26.1201 8.4097 26.1201 8.1792C26.1201 7.94871 26.3069 7.76184 26.5375 7.76184H26.6694C26.8999 7.76184 27.0867 7.94871 27.0867 8.1792C27.0867 8.4097 26.8999 8.59657 26.6694 8.59657Z" fill="#FB2B3A"/>
<path d="M21.6985 21.8151H16.8257V25.7133H21.6985C22.1734 25.7133 22.5585 25.3283 22.5585 24.8534V22.6749C22.5584 22.2 22.1734 21.8151 21.6985 21.8151Z" fill="#D8ECFE"/>
<path d="M21.6983 21.8151H19.9785C20.4534 21.8151 20.8384 22.2 20.8384 22.675V24.8535C20.8384 25.3284 20.4535 25.7134 19.9785 25.7134H21.6983C22.1732 25.7134 22.5583 25.3284 22.5583 24.8535V22.675C22.5582 22.2 22.1732 21.8151 21.6983 21.8151Z" fill="#C4E2FF"/>
<path d="M20.4375 23.3468H18.791V24.1816H20.4375C20.6681 24.1816 20.8549 23.9947 20.8549 23.7642C20.8549 23.5337 20.668 23.3468 20.4375 23.3468Z" fill="#7A6D79"/>
<path d="M3.8697 22.1304H1.74861C1.2737 22.1304 0.888672 22.5153 0.888672 22.9903V24.5382C0.888672 25.0131 1.27365 25.3981 1.74861 25.3981H3.86976L3.8697 22.1304Z" fill="#B9ACAC"/>
<path d="M2.55127 22.1304H3.8698V25.398H2.55127V22.1304Z" fill="#9E9797"/>
<path d="M18.5599 23.0476H16.8257V24.4808H18.5599C18.7182 24.4808 18.8465 24.3525 18.8465 24.1942V23.3343C18.8465 23.1759 18.7182 23.0476 18.5599 23.0476Z" fill="#B9ACAC"/>
<path d="M18.5596 23.0476H17.7432C17.9015 23.0476 18.0298 23.1759 18.0298 23.3343V24.1942C18.0298 24.3525 17.9015 24.4808 17.7432 24.4808H18.5596C18.718 24.4808 18.8463 24.3525 18.8463 24.1942V23.3343C18.8463 23.1759 18.718 23.0476 18.5596 23.0476Z" fill="#9E9797"/>
<path d="M16.5961 26H4.09866C3.94034 26 3.81201 25.8717 3.81201 25.7133V21.8151C3.81201 21.6567 3.94034 21.5284 4.09866 21.5284H16.5961C16.7544 21.5284 16.8828 21.6567 16.8828 21.8151V25.7133C16.8828 25.8717 16.7544 26 16.5961 26Z" fill="#26A6FE"/>
<path d="M16.5963 21.5284H14.8765C15.0348 21.5284 15.1631 21.6567 15.1631 21.8151V25.7133C15.1631 25.8717 15.0348 26 14.8765 26H16.5963C16.7546 26 16.8829 25.8717 16.8829 25.7133V21.8151C16.8829 21.6567 16.7546 21.5284 16.5963 21.5284Z" fill="#0593FC"/>
<path d="M12.8417 22.9903H9.8911L9.83545 23.0549V24.4586L9.8911 24.5381H12.8417C13.2673 24.5381 13.6156 24.1898 13.6156 23.7642C13.6156 23.3386 13.2674 22.9903 12.8417 22.9903Z" fill="white"/>
<path d="M8.34324 22.9903C7.91758 22.9903 7.56934 23.3385 7.56934 23.7642C7.56934 24.1898 7.91758 24.5381 8.34324 24.5381H9.8911V22.9902H8.34324V22.9903Z" fill="#FD4755"/>
<path d="M12.8416 22.9903H12.1025C12.3833 23.1353 12.5767 23.4279 12.5767 23.7642C12.5767 24.1004 12.3833 24.3931 12.1025 24.5381H12.8416C13.2673 24.5381 13.6155 24.1898 13.6155 23.7642C13.6156 23.3386 13.2673 22.9903 12.8416 22.9903Z" fill="#FAF7F7"/>
</svg>
