<svg width="24" height="23" viewBox="0 0 24 23" fill="none" xmlns="http://www.w3.org/2000/svg">
<path fill-rule="evenodd" clip-rule="evenodd" d="M17.9912 3.51032C18.784 1.09223 20.7497 0.533404 21.2812 0.41208C21.3291 0.401149 21.3794 0.4086 21.4221 0.432963C21.7086 0.59659 21.9529 0.888845 22.1575 1.18316C22.3318 1.43389 22.9035 2.21076 23.0093 2.42247C23.054 2.51203 23.0241 2.62085 22.9399 2.67502C22.0898 3.22179 20.3237 5.20193 20.3237 8.19286C20.3237 11.8542 20.2166 17.6093 15.5038 21.1464C15.501 21.1485 15.4981 21.1506 15.4952 21.1525C15.2904 21.2898 10.6351 23.5956 7.38868 21.1464C7.38451 21.1433 7.38024 21.1402 7.37598 21.1373C7.37554 21.137 7.37515 21.1367 7.37475 21.1364C7.37475 21.1364 3.58936 17.5702 4.31049 11.8925C4.32397 11.7865 4.41975 11.7108 4.52598 11.7222C4.81157 11.7529 5.74519 12.0233 6.04314 12.1378C6.27951 12.2286 6.51544 12.3493 6.74823 12.5056C6.80637 12.5446 6.83926 12.6116 6.83461 12.6814C6.80872 13.0686 6.67926 13.747 6.18039 14.5444C6.06863 14.723 5.88078 14.8883 6.05961 14.9998C6.23877 15.1116 6.4751 15.0572 6.58696 14.8783C6.90583 14.3687 6.99995 13.5286 7.11186 13.1304C7.13191 13.0591 7.19039 13.0052 7.26309 12.991C7.33578 12.9768 7.41024 13.0048 7.45564 13.0633C7.67554 13.3471 8.22613 14.1172 8.42779 14.4991C8.43333 14.5095 8.43789 14.5205 8.44142 14.5317C8.45431 14.5726 8.47402 14.6114 8.50015 14.6462C8.50725 14.6557 8.51348 14.6658 8.51877 14.6764C8.80985 15.2603 9.07725 15.9593 9.31083 16.7928C9.36769 16.9958 9.78549 16.8667 9.72863 16.6638C9.61083 16.2435 9.29245 15.5861 9.15769 15.2254C9.13319 15.1598 9.14549 15.0862 9.1899 15.0322C9.23431 14.9782 9.30417 14.9519 9.37319 14.9633C9.91255 15.052 11.1174 15.2709 11.9411 15.122C12.1487 15.0844 11.9291 14.6716 11.7214 14.7091C10.361 14.955 9.23858 14.6024 8.8947 14.4583C8.85343 14.441 8.81926 14.4101 8.79799 14.3707C7.97941 12.856 7.12216 12.0818 6.17774 11.719C4.69892 11.1509 2.5225 11.6948 1.79171 12.0068C1.70436 12.0441 1.60289 12.0135 1.55078 11.934L0.472547 9.82669C0.422743 9.75076 0.431616 9.65056 0.49392 9.58453C2.14166 7.83933 4.98784 8.02581 4.98784 8.02581L4.98794 8.02585C5.04284 8.03497 5.20539 7.52022 5.17064 7.47698C3.46078 5.35066 3.12907 3.28267 3.07848 2.78203C3.0749 2.74639 3.08113 2.71041 3.09652 2.67806C3.32157 2.20532 3.67769 1.71066 3.98735 1.58556C4.51912 1.37071 5.65392 1.45071 5.97284 1.59394C6.03353 1.62125 6.07627 1.67747 6.08632 1.74326C6.80417 6.45262 10.1903 8.41767 10.1903 8.41767C10.1907 8.41786 10.1912 8.41801 10.1916 8.41821C10.3837 8.50585 10.9059 8.22644 10.7141 8.13889C10.7136 8.1387 10.7131 8.13845 10.7126 8.13821C10.7126 8.13821 9.17142 7.31429 8.22436 6.24811C8.17966 6.19777 8.16392 6.12806 8.18265 6.0634C8.20132 5.99875 8.25191 5.94821 8.31657 5.92953C11.8056 4.92213 14.478 6.10085 14.478 6.10085C14.4793 6.10193 14.4805 6.10306 14.4817 6.10419C14.5039 6.12473 14.5279 6.14213 14.5532 6.15639C14.5979 6.18169 14.6309 6.2235 14.6451 6.27282C14.8 6.81071 14.9359 7.93414 14.9912 8.64193C15.0076 8.85203 15.4284 9.04791 15.412 8.83786C15.1394 5.34987 13.1883 3.2687 12.5265 2.78532C12.4779 2.74983 12.4483 2.69399 12.4462 2.63384C12.4287 2.13429 12.5368 1.76541 12.7179 1.49487C13.0655 0.975855 13.9662 0.453943 14.2629 0.416296C14.3102 0.410316 14.358 0.421737 14.3975 0.448404C16.5456 1.90066 17.2528 3.47218 17.2528 3.47218C17.2531 3.4735 17.2534 3.47478 17.2537 3.4761C17.2687 3.54301 17.9694 3.57674 17.9907 3.51159C17.9909 3.51115 17.991 3.51071 17.9912 3.51032Z" fill="#EB5463"/>
<path fill-rule="evenodd" clip-rule="evenodd" d="M19.0825 11.8169L23.7602 19.9189C23.9109 20.1793 23.9109 20.4768 23.7602 20.7373C23.6102 20.9977 23.3524 21.1465 23.0516 21.1465H13.6961C13.3954 21.1465 13.1375 20.9977 12.9875 20.7373C12.8375 20.4768 12.8375 20.1793 12.9875 19.9189L17.6652 11.8169C17.8153 11.5565 18.0738 11.4078 18.3739 11.4078C18.6746 11.4078 18.9325 11.5565 19.0825 11.8169Z" fill="#FDCD56"/>
<path fill-rule="evenodd" clip-rule="evenodd" d="M18.0142 13.9553H18.7347V17.9865H18.0142V13.9553Z" fill="#F76C82"/>
<path d="M18.3742 19.9287C18.7023 19.9287 18.9682 19.6627 18.9682 19.3347C18.9682 19.0067 18.7023 18.7407 18.3742 18.7407C18.0462 18.7407 17.7803 19.0067 17.7803 19.3347C17.7803 19.6627 18.0462 19.9287 18.3742 19.9287Z" fill="#F76C82"/>
</svg>
