<svg width="27" height="27" viewBox="0 0 27 27" fill="none" xmlns="http://www.w3.org/2000/svg">
<path d="M14.7597 21.5809C13.9849 22.0499 13.0151 22.0499 12.2404 21.5809C8.88764 19.5513 0 13.5622 0 7.10527C0 3.18115 3.18115 0 7.10527 0C9.91786 0 12.3632 1.63424 13.5 3.97897C14.6368 1.63424 17.0821 0 19.8947 0C23.8189 0 27 3.18115 27 7.10527C27 13.5622 18.1124 19.5513 14.7597 21.5809Z" fill="#FE646F"/>
<path d="M27 7.10527C27 3.18115 23.8188 0 19.8947 0C19.3668 0 18.8518 0.0575859 18.3559 0.166641C21.5423 0.868166 23.9268 3.70802 23.9268 7.10527C23.9268 8.62571 23.4337 10.1201 22.6362 11.543C21.9665 12.7381 20.3857 13.0437 19.3251 12.1766C17.7362 10.8777 15.7076 10.0976 13.5 10.0976C9.57478 10.0976 6.21534 12.5635 4.8877 16.0272C7.5232 18.574 10.5696 20.5696 12.2407 21.5811C13.0156 22.0502 13.986 22.0492 14.7608 21.5801C18.1145 19.5498 27 13.5614 27 7.10527Z" fill="#FD4755"/>
<path d="M13.4998 27C17.743 27 21.1827 23.5602 21.1827 19.3171C21.1827 15.0739 17.743 11.6342 13.4998 11.6342C9.25666 11.6342 5.81689 15.0739 5.81689 19.3171C5.81689 23.5602 9.25666 27 13.4998 27Z" fill="#4F66D0"/>
<path d="M18.0625 13.1356C19.0059 14.4115 19.5639 15.9896 19.5639 17.6982C19.5639 21.9414 16.1242 25.3811 11.881 25.3811C10.1724 25.3811 8.59432 24.8231 7.31836 23.8797C8.71772 25.7725 10.9653 27 13.4999 27C17.743 27 21.1828 23.5602 21.1828 19.3171C21.1828 16.7825 19.9553 14.5349 18.0625 13.1356Z" fill="#314DC9"/>
<path d="M13.5001 15.1464C11.332 15.1464 9.54503 16.8092 9.34749 18.9265C9.32677 19.1485 9.1384 19.3171 8.91539 19.3171H7.57324C7.57324 22.5852 10.232 25.2439 13.5001 25.2439C16.7681 25.2439 19.4269 22.5852 19.4269 19.3171H18.0847C17.8618 19.3171 17.6734 19.1485 17.6526 18.9265C17.4551 16.8091 15.6681 15.1464 13.5001 15.1464Z" fill="#E6F7FE"/>
<path d="M16.4629 14.1855L15.5845 15.7068C16.7244 16.3676 17.5249 17.5516 17.6529 18.9283C17.6734 19.1496 17.8627 19.317 18.0849 19.317H19.4269C19.427 17.1276 18.2334 15.2117 16.4629 14.1855Z" fill="#FE646F"/>
<path d="M10.5373 14.1855C8.76678 15.2117 7.57324 17.1276 7.57324 19.3171H8.91523C9.1375 19.3171 9.32671 19.1497 9.34728 18.9284C9.47521 17.5516 10.2758 16.3676 11.4157 15.7069C11.0156 15.014 10.6624 14.4021 10.5373 14.1855Z" fill="#9BE69D"/>
<path d="M13.4998 13.3903C12.4213 13.3903 11.4092 13.68 10.5371 14.1855C10.6621 14.4021 11.0155 15.014 11.4155 15.7069C12.0292 15.3511 12.7409 15.1464 13.4999 15.1464C14.2589 15.1464 14.9705 15.3512 15.5843 15.7069L16.4627 14.1855C15.5904 13.68 14.5784 13.3903 13.4998 13.3903Z" fill="#FFE177"/>
<path d="M13.5004 19.7127C13.3578 19.7127 13.2201 19.6354 13.1495 19.5002C13.0484 19.3066 13.1234 19.0677 13.317 18.9665L15.4572 17.8486C15.6509 17.7474 15.8898 17.8224 15.9909 18.016C16.092 18.2096 16.017 18.4486 15.8234 18.5497L13.6832 19.6677C13.6247 19.6982 13.5621 19.7127 13.5004 19.7127Z" fill="#30569F"/>
<path d="M14.3781 23.8833H12.6221C12.4036 23.8833 12.2266 23.7062 12.2266 23.4878C12.2266 23.2694 12.4036 23.0923 12.6221 23.0923H14.3782C14.5967 23.0923 14.7737 23.2694 14.7737 23.4878C14.7737 23.7062 14.5966 23.8833 14.3781 23.8833Z" fill="#4F66D0"/>
<path d="M14.8172 22.1272H12.1831C11.9646 22.1272 11.7876 21.9501 11.7876 21.7317C11.7876 21.5133 11.9646 21.3362 12.1831 21.3362H14.8172C15.0357 21.3362 15.2127 21.5133 15.2127 21.7317C15.2127 21.9501 15.0357 22.1272 14.8172 22.1272Z" fill="#4F66D0"/>
<path d="M21.5123 11.5906C21.5072 11.5906 21.5022 11.5905 21.4971 11.5903C21.317 11.5835 21.1643 11.4557 21.1258 11.2795L19.6897 4.70829L18.4951 9.85769C18.4556 10.028 18.309 10.1521 18.1345 10.1631C17.9589 10.1738 17.7991 10.0691 17.7387 9.90505L16.5848 6.77316L15.9592 8.58063C15.904 8.73994 15.7539 8.84678 15.5854 8.84678H13.5C13.2815 8.84678 13.1045 8.66969 13.1045 8.45127C13.1045 8.23284 13.2815 8.05576 13.5 8.05576H15.3037L16.1994 5.46824C16.2541 5.3103 16.4021 5.20378 16.5692 5.20215C16.7385 5.20041 16.8865 5.30403 16.9442 5.46091L18.0235 8.39015L19.316 2.81918C19.3576 2.63983 19.5173 2.51306 19.7012 2.51306H19.7038C19.8887 2.51422 20.0481 2.64347 20.0876 2.82414L21.5724 9.61812L21.9565 8.33757C22.0067 8.1703 22.1607 8.05571 22.3354 8.05571H24.8598C25.0783 8.05571 25.2553 8.23279 25.2553 8.45122C25.2553 8.66964 25.0783 8.84672 24.8598 8.84672H22.6296L21.891 11.3088C21.8407 11.4765 21.6863 11.5906 21.5123 11.5906Z" fill="#E6F7FE"/>
<path d="M14.1588 19.6059C14.3132 19.2435 14.1446 18.8246 13.7822 18.6702C13.4198 18.5157 13.0009 18.6843 12.8465 19.0467C12.6921 19.4091 12.8607 19.8281 13.2231 19.9825C13.5855 20.1369 14.0044 19.9683 14.1588 19.6059Z" fill="#4F66D0"/>
</svg>
