<svg width="26" height="23" viewBox="0 0 26 23" fill="none" xmlns="http://www.w3.org/2000/svg">
<path fill-rule="evenodd" clip-rule="evenodd" d="M22.1687 10.741L21.6968 9.91683C17.9017 3.30433 16.0022 0 12.9989 0C9.99557 0 8.09607 3.30433 4.30488 9.91683L3.83293 10.741C0.681404 16.2342 -0.898259 18.9827 0.529289 20.9913C1.94904 23 5.475 23 12.5269 23H13.4708C20.5228 23 24.0448 23 25.4724 20.9913C26.896 18.9827 25.3202 16.2342 22.1687 10.741ZM12.0238 6.39017C12.0238 5.86117 12.4606 5.43183 12.9989 5.43183C13.5371 5.43183 13.974 5.86117 13.974 6.39017V12.7803C13.974 13.3093 13.5371 13.7387 12.9989 13.7387C12.4606 13.7387 12.0238 13.3093 12.0238 12.7803V6.39017ZM12.9989 17.8902C12.2812 17.8902 11.7 17.319 11.7 16.6137C11.7 15.9083 12.2812 15.3372 12.9989 15.3372C13.7166 15.3372 14.2977 15.9083 14.2977 16.6137C14.2977 17.3152 13.7166 17.8902 12.9989 17.8902Z" fill="url(#paint0_linear_1327_181)"/>
<defs>
<linearGradient id="paint0_linear_1327_181" x1="-0.00245321" y1="11.5" x2="26.0002" y2="11.5" gradientUnits="userSpaceOnUse">
<stop stop-color="#FFA68D"/>
<stop offset="1" stop-color="#FD3A84"/>
</linearGradient>
</defs>
</svg>
