<svg width="23" height="28" viewBox="0 0 23 28" fill="none" xmlns="http://www.w3.org/2000/svg">
<path d="M17.3752 1.73232C15.5582 5.76605 15.1282 6.35355 15.1282 7.99491C15.1282 8.78227 15.219 8.46733 14.6618 9.36371C14.2257 9.01242 14.3832 9.10327 9.0715 9.10327C8.02369 9.10327 8.65964 9.8967 7.86016 8.61874C7.86016 6.29298 7.80565 6.57159 5.61314 1.73232C5.52897 1.54777 5.49248 1.34505 5.50703 1.14273C5.52157 0.940419 5.58669 0.744998 5.69641 0.574397C5.80612 0.403795 5.95692 0.263476 6.13497 0.166311C6.31302 0.0691463 6.51262 0.0182474 6.71546 0.0182836H8.65359C8.94305 0.0143203 9.22435 0.114151 9.44656 0.299694C9.66877 0.485237 9.81718 0.744223 9.86492 1.02975L10.083 2.44095C10.137 2.77634 10.3086 3.08154 10.5672 3.30184C10.8258 3.52214 11.1544 3.64313 11.4942 3.64313C11.8339 3.64313 12.1625 3.52214 12.4211 3.30184C12.6797 3.08154 12.8514 2.77634 12.9054 2.44095L13.1416 1.01158C13.1893 0.726053 13.3377 0.467067 13.5599 0.281524C13.7821 0.0959807 14.0634 -0.00384966 14.3529 0.000113628H16.291C16.4947 0.00170554 16.6948 0.0546479 16.8726 0.154043C17.0504 0.253438 17.2003 0.396075 17.3084 0.568759C17.4165 0.741442 17.4792 0.938594 17.4909 1.14198C17.5026 1.34536 17.4628 1.5484 17.3752 1.73232Z" fill="#DAD7E5"/>
<path d="M17.3747 1.73232C15.8908 5.00291 15.1277 6.17185 15.1277 7.89194H9.67669C9.51605 7.89194 9.362 7.82813 9.24841 7.71455C9.13483 7.60096 9.07102 7.44691 9.07102 7.28628C9.06309 6.44921 8.87728 5.6234 8.52592 4.86361C6.70892 0.908613 6.46666 0.720856 6.87245 0.0182836H8.65311C10.6821 0.0182836 9.22244 3.10718 11.1182 3.60383C11.3124 3.65547 11.5153 3.66577 11.7137 3.63405C11.9121 3.60233 12.1017 3.52929 12.2701 3.41968C12.4385 3.31006 12.5821 3.1663 12.6914 2.9977C12.8008 2.82911 12.8735 2.63943 12.9049 2.44095L13.1411 1.01158C13.1888 0.726053 13.3372 0.467067 13.5595 0.281524C13.7817 0.0959807 14.063 -0.00384966 14.3524 0.000113628H16.2906C16.4943 0.00170554 16.6943 0.0546479 16.8721 0.154043C17.0499 0.253438 17.1998 0.396075 17.3079 0.568759C17.416 0.741442 17.4788 0.938594 17.4904 1.14198C17.5021 1.34536 17.4623 1.5484 17.3747 1.73232Z" fill="#EDEBF2"/>
<path d="M15.1279 23.0336C15.1279 23.3549 15.0002 23.663 14.7731 23.8901C14.5459 24.1173 14.2378 24.2449 13.9165 24.2449H9.0712C8.74993 24.2449 8.44182 24.1173 8.21465 23.8901C7.98749 23.663 7.85986 23.3549 7.85986 23.0336C10.8882 21.4891 11.4272 21.1803 15.1279 23.0336Z" fill="#DAD7E5"/>
<path d="M13.9165 24.2449H9.0712C8.4022 24.2449 7.85986 24.7873 7.85986 25.4563V26.6676C7.85986 27.3366 8.4022 27.8789 9.0712 27.8789H13.9165C14.5855 27.8789 15.1279 27.3366 15.1279 26.6676V25.4563C15.1279 24.7873 14.5855 24.2449 13.9165 24.2449Z" fill="#DAD7E5"/>
<path d="M15.1279 25.4563C15.1279 25.7775 15.0002 26.0856 14.7731 26.3128C14.5459 26.54 14.2378 26.6676 13.9165 26.6676H9.0712C8.74993 26.6676 8.44182 26.54 8.21465 26.3128C7.98749 26.0856 7.85986 25.7775 7.85986 25.4563C7.85986 25.135 7.98749 24.8269 8.21465 24.5997C8.44182 24.3726 8.74993 24.2449 9.0712 24.2449H13.9165C14.2378 24.2449 14.5459 24.3726 14.7731 24.5997C15.0002 24.8269 15.1279 25.135 15.1279 25.4563Z" fill="#EDEBF2"/>
<path d="M15.1279 21.8223C15.1279 22.1435 15.0002 22.4516 14.7731 22.6788C14.5459 22.906 14.2378 23.0336 13.9165 23.0336H9.0712C8.74993 23.0336 8.44182 22.906 8.21465 22.6788C7.98749 22.4516 7.85986 22.1435 7.85986 21.8223C7.85986 21.501 7.98749 21.1929 8.21465 20.9657C8.44182 20.7386 8.74993 20.6109 9.0712 20.6109H13.9165C14.2378 20.6109 14.5459 20.7386 14.7731 20.9657C15.0002 21.1929 15.1279 21.501 15.1279 21.8223Z" fill="#EDEBF2"/>
<path d="M14.6619 9.36373C13.9594 10.4903 13.5596 11.526 12.3059 11.526C9.41686 11.526 9.73181 11.6107 8.32666 9.36373C8.53895 9.19619 8.8012 9.10451 9.07163 9.10329C14.1047 9.10329 14.2319 9.00639 14.6619 9.36373Z" fill="#DAD7E5"/>
<path d="M14.5524 9.29106C14.398 9.59498 14.1635 9.85095 13.8742 10.0313C13.585 10.2117 13.2519 10.3097 12.9111 10.3146C11.0214 10.3146 10.4339 10.5569 9.52539 9.1033C14.3404 9.1033 14.1769 9.03668 14.5524 9.29106Z" fill="#EDEBF2"/>
<path d="M21.6328 18.267C22.6987 21.9676 18.7013 24.8506 15.3823 23.1608C12.1844 21.5618 11.6998 21.0834 7.85992 23.0336C4.22593 24.9778 0.313325 21.8707 1.35507 18.267C0.92763 17.8702 0.586666 17.3894 0.353505 16.8548C0.120344 16.3202 0 15.7432 0 15.16C0 14.5767 0.120344 13.9997 0.353505 13.4651C0.586666 12.9305 0.92763 12.4497 1.35507 12.0529C1.19706 11.4714 1.16483 10.8628 1.26054 10.2678C1.35625 9.67288 1.5777 9.10515 1.91012 8.60251C2.24254 8.09987 2.67829 7.67387 3.18832 7.35291C3.69836 7.03195 4.27095 6.82341 4.86793 6.74119C6.68493 6.40808 7.0241 7.28629 7.85992 8.61876C9.83439 11.7682 9.34986 11.526 12.3055 11.526C12.7498 11.5316 13.1807 11.3743 13.5168 11.0838C13.9893 10.6599 15.5761 7.82533 15.9758 7.33474C17.5809 5.32999 22.8562 7.94041 21.657 12.0529C22.0829 12.4514 22.422 12.9335 22.6531 13.469C22.8841 14.0045 23.0022 14.582 23 15.1652C22.9977 15.7485 22.8751 16.325 22.6399 16.8587C22.4046 17.3924 22.0618 17.8719 21.6328 18.267Z" fill="#DB5669"/>
<path d="M21.6329 18.267C21.8565 19.0488 21.8565 19.8776 21.6329 20.6594C21.3602 21.0221 21.0333 21.3408 20.6638 21.6042C19.991 22.0745 19.204 22.3547 18.3854 22.4155C17.5669 22.4762 16.7471 22.3153 16.0123 21.9495C12.7901 20.3505 12.3056 19.872 8.46568 21.8223C7.66966 22.2773 6.7556 22.4836 5.84129 22.4145C4.92698 22.3454 4.0543 22.0042 3.33569 21.4346C2.91385 20.9137 2.62371 20.2988 2.48982 19.642C2.35593 18.9852 2.38223 18.3058 2.5665 17.6613C2.13906 17.2645 1.79809 16.7838 1.56493 16.2491C1.33177 15.7145 1.21143 15.1375 1.21143 14.5543C1.21143 13.971 1.33177 13.394 1.56493 12.8594C1.79809 12.3248 2.13906 11.844 2.5665 11.4472C1.92449 9.22442 3.42048 7.01979 4.46223 6.82598C5.46764 6.51709 6.60629 6.60794 7.18167 7.53461C9.07135 10.5993 9.37418 11.5259 10.6824 11.5259C12.6508 11.5259 12.4994 11.5623 13.0021 11.3866C14.3346 10.9021 15.3582 7.14698 16.7694 6.77753C19.3132 6.05073 22.5656 8.83074 21.6147 12.0529C22.0433 12.4485 22.3857 12.9282 22.6204 13.4622C22.8551 13.9961 22.9771 14.5727 22.9789 15.156C22.9806 15.7392 22.8619 16.3166 22.6303 16.8519C22.3987 17.3872 22.0591 17.8689 21.6329 18.267Z" fill="#F26674"/>
<path d="M9.46503 16.1714C9.35901 16.0501 9.30552 15.8917 9.31631 15.731C9.3271 15.5703 9.40129 15.4204 9.52257 15.3144C9.64385 15.2084 9.80227 15.1549 9.963 15.1657C10.1237 15.1765 10.2736 15.2507 10.3796 15.3719C10.6947 15.6277 11.0882 15.7672 11.494 15.7672C11.8998 15.7672 12.2933 15.6277 12.6084 15.3719C12.7152 15.2563 12.8628 15.1867 13.02 15.178C13.1771 15.1693 13.3315 15.2221 13.4504 15.3253C13.5693 15.4284 13.6433 15.5738 13.6569 15.7306C13.6705 15.8874 13.6224 16.0433 13.523 16.1654C12.9759 16.6855 12.2501 16.976 11.4952 16.9771C10.7403 16.9782 10.0137 16.6899 9.46503 16.1714Z" fill="#C4455E"/>
<path d="M14.9155 13.7427C14.816 13.6207 14.768 13.4648 14.7815 13.3079C14.7951 13.1511 14.8692 13.0057 14.9881 12.9026C15.107 12.7995 15.2613 12.7466 15.4185 12.7554C15.5757 12.7641 15.7232 12.8336 15.83 12.9493C16.1451 13.205 16.5386 13.3446 16.9444 13.3446C17.3503 13.3446 17.7437 13.205 18.0589 12.9493C18.1656 12.8336 18.3132 12.7641 18.4704 12.7554C18.6275 12.7466 18.7819 12.7995 18.9008 12.9026C19.0197 13.0057 19.0938 13.1511 19.1073 13.3079C19.1209 13.4648 19.0728 13.6207 18.9734 13.7427C18.4262 14.2634 17.6998 14.5537 16.9444 14.5537C16.1891 14.5537 15.4627 14.2634 14.9155 13.7427Z" fill="#C4455E"/>
<path d="M14.9155 19.1937C14.816 19.0717 14.768 18.9157 14.7815 18.7589C14.7951 18.6021 14.8692 18.4567 14.9881 18.3536C15.107 18.2504 15.2613 18.1976 15.4185 18.2063C15.5757 18.2151 15.7232 18.2846 15.83 18.4003C16.1451 18.656 16.5386 18.7956 16.9444 18.7956C17.3503 18.7956 17.7437 18.656 18.0589 18.4003C18.1656 18.2846 18.3132 18.2151 18.4704 18.2063C18.6275 18.1976 18.7819 18.2504 18.9008 18.3536C19.0197 18.4567 19.0938 18.6021 19.1073 18.7589C19.1209 18.9157 19.0728 19.0717 18.9734 19.1937C18.4262 19.7143 17.6998 20.0047 16.9444 20.0047C16.1891 20.0047 15.4627 19.7143 14.9155 19.1937Z" fill="#C4455E"/>
<path d="M4.01386 13.7487C3.96136 13.6887 3.92121 13.6189 3.89569 13.5433C3.87018 13.4678 3.85979 13.3879 3.86513 13.3083C3.87048 13.2287 3.89144 13.151 3.92683 13.0795C3.96222 13.008 4.01135 12.9442 4.0714 12.8917C4.13145 12.8392 4.20125 12.7991 4.27682 12.7736C4.35239 12.748 4.43224 12.7377 4.51182 12.743C4.5914 12.7483 4.66915 12.7693 4.74063 12.8047C4.81211 12.8401 4.87592 12.8892 4.92841 12.9493C5.24353 13.205 5.63701 13.3446 6.04284 13.3446C6.44867 13.3446 6.84215 13.205 7.15727 12.9493C7.26537 12.8367 7.41275 12.7702 7.56868 12.7637C7.7246 12.7571 7.87704 12.811 7.99419 12.9141C8.11135 13.0172 8.18419 13.1616 8.19753 13.3171C8.21086 13.4726 8.16366 13.6272 8.06576 13.7487C7.51816 14.2663 6.79327 14.5546 6.03981 14.5546C5.28636 14.5546 4.56146 14.2663 4.01386 13.7487Z" fill="#C4455E"/>
<path d="M4.01386 19.1997C3.90784 19.0785 3.85434 18.92 3.86513 18.7593C3.87048 18.6797 3.89144 18.602 3.92683 18.5305C3.96222 18.459 4.01135 18.3952 4.0714 18.3427C4.13145 18.2902 4.20125 18.2501 4.27682 18.2246C4.35239 18.199 4.43224 18.1886 4.51182 18.194C4.67255 18.2048 4.8224 18.279 4.92842 18.4003C5.24353 18.656 5.63701 18.7956 6.04284 18.7956C6.44867 18.7956 6.84215 18.656 7.15727 18.4003C7.26537 18.2877 7.41276 18.2212 7.56868 18.2147C7.7246 18.2081 7.87704 18.262 7.9942 18.3651C8.11135 18.4682 8.18419 18.6126 8.19753 18.7681C8.21086 18.9236 8.16366 19.0782 8.06577 19.1997C7.51816 19.7173 6.79327 20.0056 6.03981 20.0056C5.28636 20.0056 4.56147 19.7173 4.01386 19.1997Z" fill="#C4455E"/>
</svg>
