<svg width="17" height="24" viewBox="0 0 17 24" fill="none" xmlns="http://www.w3.org/2000/svg">
<g opacity="0.44">
<path d="M14.1332 20.703H13.1586C15.2871 19.3066 16.6035 16.9332 16.6035 14.3174C16.6035 11.1464 14.6277 8.29785 11.6725 7.16815C11.5125 6.75846 11.2555 6.38998 10.9185 6.10389L11.9367 4.18626C12.024 4.01898 12.0676 3.8396 12.0676 3.66266C12.0676 3.29658 11.8858 2.94021 11.5707 2.722L11.9973 1.91476C12.0967 1.73052 12.1185 1.51712 12.0555 1.31593C11.9949 1.11473 11.8567 0.949849 11.6725 0.850451L10.2446 0.0915389C9.85912 -0.112109 9.38155 0.0357628 9.1779 0.418798L8.75124 1.22369C8.18637 0.998227 7.59243 1.25035 7.33301 1.74008L2.35835 11.1076C2.08442 11.6216 2.2541 12.2495 2.72443 12.5719L2.29533 13.3768C2.19592 13.5634 2.17651 13.7767 2.23714 13.978C2.30017 14.1792 2.43594 14.3441 2.62018 14.4411L4.05052 15.1999C4.43596 15.4059 4.91113 15.2557 5.11478 14.875L5.53904 14.0726C5.6748 14.1284 5.81542 14.155 5.95844 14.155C6.36089 14.155 6.75603 13.9392 6.95968 13.5514L8.49667 10.6591C8.71487 10.7198 8.93307 10.761 9.21186 10.761C9.84462 10.761 10.441 10.5307 10.9089 10.1403C12.5308 10.9016 13.5684 12.5162 13.5684 14.3174C13.5684 16.8629 11.498 18.9333 8.95248 18.9333C7.61669 18.9333 6.37059 18.3611 5.50027 17.3744H6.58395C6.78514 17.3744 6.94757 17.2096 6.94757 17.0108C6.94757 16.8096 6.78514 16.6472 6.58395 16.6472C2.89901 16.6472 3.80325 16.6472 0.363144 16.6472C0.164345 16.6472 -0.000488281 16.8096 -0.000488281 17.0108C-0.000488281 17.2096 0.164345 17.3744 0.363144 17.3744H1.94135C2.53773 18.732 3.51956 19.8909 4.74385 20.703H4.29049C3.52682 20.703 2.90622 21.3236 2.90622 22.0873V23.6364C2.90622 23.8377 3.06864 24 3.26984 24H15.1538C15.3526 24 15.5174 23.8376 15.5174 23.6364V22.0873C15.5175 21.3236 14.8969 20.703 14.1332 20.703ZM4.47232 14.5332C4.46262 14.5525 4.44807 14.5598 4.43596 14.5623C4.42625 14.5671 4.40929 14.5696 4.38988 14.5598L2.962 13.801C2.94504 13.7889 2.93533 13.7743 2.93288 13.7646C2.93043 13.7525 2.92803 13.738 2.93774 13.7186L3.35954 12.9234L4.89413 13.738L4.47232 14.5332ZM9.82035 0.758261C9.83731 0.729147 9.87369 0.719443 9.90279 0.734L11.3307 1.49282C11.3501 1.50252 11.3574 1.51708 11.3598 1.52918C11.3646 1.53889 11.3646 1.55585 11.3549 1.57521L10.9331 2.37039L9.39855 1.5534L9.82035 0.758261ZM11.0883 8.49175C10.8871 9.51239 9.88339 10.2033 8.83853 9.99722C7.88577 9.80813 7.22395 8.92326 7.30394 7.96084C7.30394 7.95354 7.30394 7.94383 7.30639 7.93658C7.41549 6.80688 8.48215 6.0214 9.58524 6.24201C10.601 6.43836 11.2943 7.4493 11.0883 8.49175ZM2.74139 17.3744H4.57417C5.57541 18.8096 7.19729 19.6606 8.95248 19.6606C11.898 19.6606 14.2957 17.2653 14.2957 14.3174C14.2957 12.3052 13.1805 10.4919 11.4156 9.57547C11.7235 9.10519 11.8689 8.55728 11.8519 8.02637C14.2835 9.15121 15.8763 11.6071 15.8763 14.3175C15.8763 17.12 14.2108 19.617 11.6289 20.7031H6.27604C4.74146 20.0581 3.47839 18.863 2.74139 17.3744Z" fill="currentColor"/>
</g>
</svg>
