<svg width="24" height="24" viewBox="0 0 24 24" fill="none" xmlns="http://www.w3.org/2000/svg">
<g>
<path d="M12.3302 1.00009C10.5921 0.993216 8.87641 1.39234 7.31982 2.16566C7.03849 2.27918 6.84426 2.54049 6.81665 2.84261C6.78905 3.14472 6.93269 3.43691 7.18878 3.59955C7.44487 3.76219 7.77041 3.76797 8.03211 3.61453C11.0439 2.12839 14.6098 2.30359 17.4614 4.07782C20.313 5.85205 22.0457 8.97353 22.0433 12.332C22.0433 16.282 19.9226 20.6853 16.3773 21.2357C15.6151 21.4179 14.8113 21.2518 14.1837 20.7824C13.4793 20.0041 13.1049 18.9825 13.1396 17.9333C15.9248 17.5313 17.9928 15.1461 17.9961 12.332V7.47549C17.9961 7.02846 17.6337 6.66606 17.1867 6.66606H14.7584C14.3114 6.66606 13.949 7.02846 13.949 7.47549C13.949 7.92252 14.3114 8.28491 14.7584 8.28491H16.3773V12.332C16.3773 14.5672 14.5653 16.3792 12.3302 16.3792C10.095 16.3792 8.28304 14.5672 8.28304 12.332L8.28303 8.28491H9.90189C10.3489 8.28491 10.7113 7.92252 10.7113 7.47549C10.7113 7.02846 10.3489 6.66606 9.90189 6.66606H7.47361C7.02658 6.66606 6.66418 7.02846 6.66418 7.47549V12.332C6.66748 15.1461 8.73556 17.5313 11.5207 17.9333C11.626 19.7949 12.1521 21.171 13.091 21.9804C13.8235 22.5924 14.7604 22.9047 15.7136 22.8546C16.0113 22.8549 16.3087 22.8359 16.6039 22.7979C21.1853 22.1342 23.6621 16.9053 23.6621 12.332C23.6621 6.07357 18.5886 1.00009 12.3302 1.00009Z" stroke="currentColor" stroke-width="0.5"/>
<path d="M5.04535 17.1885C4.69814 17.1937 4.35393 17.2538 4.02548 17.3666C1.74409 13.6053 2.2754 8.78034 5.32056 5.60562C5.54625 5.40265 5.63941 5.09047 5.56187 4.797C5.48432 4.50354 5.24911 4.27813 4.95261 4.21313C4.65612 4.14814 4.34818 4.2545 4.15499 4.48862C0.58978 8.20421 -0.0219948 13.8565 2.66564 18.2488C1.63564 19.3824 1.54087 21.0827 2.43852 22.3237C3.33616 23.5647 4.98061 24.0069 6.37965 23.3836C7.77868 22.7602 8.5495 21.2417 8.22702 19.7445C7.90453 18.2472 6.57697 17.1807 5.04535 17.1885ZM5.04535 22.045C4.15129 22.045 3.4265 21.3203 3.4265 20.4262C3.4265 19.5321 4.15129 18.8073 5.04535 18.8073C5.93942 18.8073 6.66421 19.5321 6.66421 20.4262C6.66421 21.3203 5.93942 22.045 5.04535 22.045Z" stroke="currentColor" stroke-width="0.5"/>
</g>
</svg>
