<svg width="17" height="17" viewBox="0 0 17 17" fill="none" xmlns="http://www.w3.org/2000/svg">
<path d="M9.26292 15.3008L8.46451 16.0992C8.12645 16.4373 7.5798 16.4373 7.24533 16.0992L0.253913 9.11141C-0.0841494 8.77335 -0.0841494 8.2267 0.253913 7.89223L7.24533 0.900813C7.58339 0.562751 8.13005 0.562751 8.46451 0.900813L9.26292 1.69922C9.60458 2.04087 9.59738 2.59832 9.24853 2.93278L4.91486 7.06146H15.2509C15.7293 7.06146 16.1141 7.44628 16.1141 7.9246V9.07545C16.1141 9.55377 15.7293 9.93859 15.2509 9.93859H4.91486L9.24853 14.0673C9.60098 14.4017 9.60817 14.9592 9.26292 15.3008Z" fill="currentColor"/>
</svg>
