<svg width="30" height="30" viewBox="0 0 30 30" fill="none" xmlns="http://www.w3.org/2000/svg">
<g clip-path="url(#clip0_1056_1163)">
<circle opacity="0.2" cx="15" cy="15" r="15" fill="white"/>
<path d="M20.4718 17.8659C19.5898 17.1204 19.0841 16.0308 19.0841 14.8764V13.2502C19.0841 11.1976 17.5593 9.4984 15.5843 9.21375V8.58379C15.5843 8.26122 15.323 8.00049 15.001 8.00049C14.679 8.00049 14.4177 8.26122 14.4177 8.58379V9.21375C12.442 9.4984 10.9179 11.1976 10.9179 13.2502V14.8764C10.9179 16.0308 10.4121 17.1204 9.52495 17.8705C9.29804 18.0648 9.16797 18.3471 9.16797 18.6457C9.16797 19.2086 9.62586 19.6665 10.1887 19.6665H19.8132C20.3761 19.6665 20.834 19.2086 20.834 18.6457C20.834 18.3471 20.7039 18.0648 20.4718 17.8659Z" fill="#FBFBFB"/>
<path d="M15.001 21.9997C16.0573 21.9997 16.941 21.2466 17.144 20.2498H12.8579C13.0609 21.2466 13.9446 21.9997 15.001 21.9997Z" fill="#FBFBFB"/>
</g>
<defs>
<clipPath id="clip0_1056_1163">
<rect width="30" height="30" fill="white"/>
</clipPath>
</defs>
</svg>
