<svg width="69" height="49" viewBox="0 0 69 49" fill="none" xmlns="http://www.w3.org/2000/svg">
<path fill-rule="evenodd" clip-rule="evenodd" d="M48.8357 13.8313H44.2314C43.8599 13.8313 43.5598 13.5312 43.5598 13.1597V8.02106C43.5598 7.45444 44.0201 6.99414 44.5867 6.99414H48.4818C49.0471 6.99414 49.5087 7.45444 49.5087 8.02106V13.1597C49.5087 13.5312 49.2072 13.8313 48.8357 13.8313Z" fill="#EC3352"/>
<path fill-rule="evenodd" clip-rule="evenodd" d="M46.5341 3.55943C46.1613 3.55943 45.8612 3.25794 45.8612 2.88647V0.672462C45.8612 0.300995 46.1613 -0.000488281 46.5341 -0.000488281C46.9056 -0.000488281 47.2057 0.300995 47.2057 0.672462V2.88647C47.2057 3.25794 46.9056 3.55943 46.5341 3.55943Z" fill="#EC3352"/>
<path fill-rule="evenodd" clip-rule="evenodd" d="M51.8559 5.76407C51.6836 5.76407 51.5113 5.69812 51.3808 5.56622C51.117 5.30377 51.117 4.87712 51.3794 4.61467L52.9447 3.04938C53.2085 2.78693 53.6338 2.78693 53.8962 3.04938C54.16 3.31317 54.16 3.73848 53.8962 4.00093L52.3323 5.56622C52.2004 5.69812 52.0281 5.76407 51.8559 5.76407Z" fill="#EC3352"/>
<path fill-rule="evenodd" clip-rule="evenodd" d="M41.2112 5.76407C41.0389 5.76407 40.8666 5.69812 40.736 5.56622L39.1707 4.00093C38.907 3.73848 38.907 3.31183 39.1707 3.04938C39.4332 2.78693 39.8585 2.78693 40.1223 3.04938L41.6876 4.61467C41.9501 4.87712 41.9501 5.30377 41.6876 5.56622C41.5557 5.69812 41.3834 5.76407 41.2112 5.76407Z" fill="#EC3352"/>
<path fill-rule="evenodd" clip-rule="evenodd" d="M63.9771 41.6337H60.6756C60.3109 41.6337 60.0121 41.3416 60.004 40.9755C59.9259 37.4722 57.0121 34.6229 53.5074 34.6229C50.0026 34.6229 47.0874 37.4722 47.0107 40.9755C47.0026 41.3416 46.7038 41.6337 46.3377 41.6337H38.2138C37.8424 41.6337 37.5422 41.3322 37.5422 40.9607V13.1598C37.5422 12.787 37.8424 12.4868 38.2138 12.4868H53.3539C54.0955 12.4868 54.4104 13.0871 54.58 13.4088C54.6029 13.4518 54.6258 13.4962 54.65 13.5393L61.2584 25.4129H63.9771C66.6918 25.4129 68.9004 27.6215 68.9004 30.3362V36.7104C68.9004 39.4251 66.6918 41.6337 63.9771 41.6337Z" fill="#CDD9DE"/>
<path fill-rule="evenodd" clip-rule="evenodd" d="M63.9771 41.6337H60.6756C60.3109 41.6337 60.0121 41.3416 60.004 40.9755C59.9259 37.4722 57.0121 34.6229 53.5074 34.6229C50.0026 34.6229 47.0874 37.4722 47.0107 40.9755C47.0026 41.3416 46.7038 41.6337 46.3377 41.6337H38.2138C37.8424 41.6337 37.5422 41.3322 37.5422 40.9608V30.5906H68.9004V36.7104C68.9004 39.4251 66.6918 41.6337 63.9771 41.6337Z" fill="#EC3352"/>
<path fill-rule="evenodd" clip-rule="evenodd" d="M60.8654 26.7587H60.8627H46.3391C45.187 26.7587 44.2502 25.8206 44.2502 24.6685V18.8232C44.2502 17.6711 45.187 16.7344 46.3391 16.7344H56.0323C56.2759 16.7344 56.5006 16.8663 56.6205 17.0789L61.4226 25.7102C61.4953 25.8179 61.5384 25.9471 61.5384 26.0857C61.5384 26.4572 61.2369 26.7587 60.8654 26.7587Z" fill="#33B9EF"/>
<path fill-rule="evenodd" clip-rule="evenodd" d="M53.5074 48.9661C49.1816 48.9661 45.6621 45.4465 45.6621 41.1208C45.6621 36.7964 49.1816 33.2769 53.5074 33.2769C57.8318 33.2769 61.3513 36.7964 61.3513 41.1208C61.3513 45.4465 57.8318 48.9661 53.5074 48.9661Z" fill="#2C3E50"/>
<path fill-rule="evenodd" clip-rule="evenodd" d="M53.5074 45.0537C51.3378 45.0537 49.5747 43.2906 49.5747 41.1223C49.5747 38.9527 51.3378 37.1882 53.5074 37.1882C55.6757 37.1882 57.4402 38.9527 57.4402 41.1223C57.4402 43.2906 55.6757 45.0537 53.5074 45.0537Z" fill="#FEFEFE"/>
<path fill-rule="evenodd" clip-rule="evenodd" d="M67.7402 48.9647H1.15977C0.788299 48.9647 0.486816 48.6646 0.486816 48.2931C0.486816 47.9203 0.788299 47.6201 1.15977 47.6201H67.7402C68.1117 47.6201 68.4132 47.9203 68.4132 48.2931C68.4132 48.6646 68.1117 48.9647 67.7402 48.9647Z" fill="#2C3E50"/>
<path fill-rule="evenodd" clip-rule="evenodd" d="M38.2139 41.6336H22.5637C22.1976 41.6336 21.8988 41.3402 21.8907 40.9755C21.814 37.4721 18.8988 34.6228 15.3941 34.6228C11.8893 34.6228 8.97411 37.4721 8.8974 40.9755C8.88932 41.3402 8.59053 41.6336 8.22444 41.6336H2.09116C0.939071 41.6336 0.000976562 40.6955 0.000976562 39.5434V7.31578C0.000976562 6.16368 0.939071 5.22559 2.09116 5.22559H36.798C37.9501 5.22559 38.8868 6.16368 38.8868 7.31578V40.9607C38.8868 41.3321 38.5853 41.6336 38.2139 41.6336Z" fill="#DBE9EE"/>
<path fill-rule="evenodd" clip-rule="evenodd" d="M38.2139 41.6337H22.5637C22.1976 41.6337 21.8988 41.3403 21.8907 40.9755C21.814 37.4722 18.8988 34.6229 15.3941 34.6229C11.8893 34.6229 8.97411 37.4722 8.8974 40.9755C8.88932 41.3403 8.59053 41.6337 8.22444 41.6337H2.09116C0.939071 41.6337 0.000976562 40.6956 0.000976562 39.5435V30.5906H38.8868V40.9608C38.8868 41.3322 38.5853 41.6337 38.2139 41.6337Z" fill="#EC3352"/>
<path fill-rule="evenodd" clip-rule="evenodd" d="M19.4439 28.2634C14.2514 28.2634 10.0266 24.0386 10.0266 18.8461C10.0266 13.6536 14.2514 9.43018 19.4439 9.43018C24.6364 9.43018 28.8612 13.6536 28.8612 18.8461C28.8612 24.0386 24.6364 28.2634 19.4439 28.2634Z" fill="#EC3352"/>
<path fill-rule="evenodd" clip-rule="evenodd" d="M15.3941 48.9661C11.0684 48.9661 7.55017 45.4465 7.55017 41.1208C7.55017 36.7964 11.0684 33.2769 15.3941 33.2769C19.7198 33.2769 23.238 36.7964 23.238 41.1208C23.238 45.4465 19.7198 48.9661 15.3941 48.9661Z" fill="#2C3E50"/>
<path fill-rule="evenodd" clip-rule="evenodd" d="M15.394 45.0537C13.2258 45.0537 11.4613 43.2906 11.4613 41.1223C11.4613 38.9527 13.2258 37.1882 15.394 37.1882C17.5623 37.1882 19.3268 38.9527 19.3268 41.1223C19.3268 43.2906 17.5623 45.0537 15.394 45.0537Z" fill="#FEFEFE"/>
<path fill-rule="evenodd" clip-rule="evenodd" d="M35.1155 13.9632H31.0872C30.7158 13.9632 30.4143 13.6617 30.4143 13.2902V10.1031C30.4143 9.73166 30.7158 9.43018 31.0872 9.43018H35.1155C35.487 9.43018 35.7885 9.73166 35.7885 10.1031V13.2902C35.7885 13.6617 35.487 13.9632 35.1155 13.9632Z" fill="#EC3352"/>
<path fill-rule="evenodd" clip-rule="evenodd" d="M7.80048 13.9632H3.77219C3.40073 13.9632 3.09924 13.6617 3.09924 13.2902V10.1031C3.09924 9.73166 3.40073 9.43018 3.77219 9.43018H7.80048C8.1733 9.43018 8.47343 9.73166 8.47343 10.1031V13.2902C8.47343 13.6617 8.1733 13.9632 7.80048 13.9632Z" fill="#EC3352"/>
<path fill-rule="evenodd" clip-rule="evenodd" d="M21.2003 23.9902H17.6874C17.316 23.9902 17.0145 23.6888 17.0145 23.3173V21.2755H14.9728C14.6013 21.2755 14.2998 20.9754 14.2998 20.6026V17.0898C14.2998 16.7183 14.6013 16.4168 14.9728 16.4168H17.0145V14.3751C17.0145 14.0036 17.316 13.7021 17.6874 13.7021H21.2003C21.5717 13.7021 21.8732 14.0036 21.8732 14.3751V16.4168H23.9149C24.2864 16.4168 24.5879 16.7183 24.5879 17.0898V20.6026C24.5879 20.9754 24.2864 21.2755 23.9149 21.2755H21.8732V23.3173C21.8732 23.6888 21.5717 23.9902 21.2003 23.9902Z" fill="#FEFEFE"/>
</svg>
