<svg width="33" height="26" viewBox="0 0 33 26" fill="none" xmlns="http://www.w3.org/2000/svg">
<path d="M31.8684 4.0423C31.2104 3.35292 30.3016 2.94555 29.2676 2.94555H24.0658V2.88288C24.0658 2.09949 23.7525 1.34743 23.2198 0.846062C22.6871 0.313351 21.9663 0 21.183 0H11.7822C10.9675 0 10.2468 0.313351 9.71408 0.846062C9.18137 1.37877 8.86801 2.09949 8.86801 2.88288V2.94555H3.69762C2.66354 2.94555 1.7548 3.35292 1.09675 4.0423C0.4387 4.70035 0 5.64043 0 6.64317V22.2484C8.96523e-07 23.2824 0.407365 24.1912 1.09675 24.8492C1.7548 25.5073 2.69487 25.946 3.69762 25.946H29.2676C30.3016 25.946 31.2104 25.5386 31.8684 24.8492C32.5265 24.1912 32.9652 23.2511 32.9652 22.2484V6.64317C32.9652 5.60909 32.5578 4.70035 31.8684 4.0423ZM31.3357 22.2484H31.3044C31.3044 22.8124 31.085 23.3138 30.709 23.6898C30.333 24.0658 29.8316 24.2852 29.2676 24.2852H3.69762C3.13357 24.2852 2.6322 24.0658 2.25617 23.6898C1.88014 23.3138 1.66079 22.8124 1.66079 22.2484V6.64317C1.66079 6.07913 1.88014 5.57775 2.25617 5.20172C2.6322 4.8257 3.13357 4.60635 3.69762 4.60635H9.74541C10.2154 4.60635 10.5915 4.23032 10.5915 3.76028V2.85154C10.5915 2.50685 10.7168 2.1935 10.9362 1.97415C11.1555 1.7548 11.4689 1.62945 11.8136 1.62945H21.183C21.5276 1.62945 21.841 1.7548 22.0604 1.97415C22.2797 2.1935 22.405 2.50685 22.405 2.85154V3.76028C22.405 4.23032 22.7811 4.60634 23.2511 4.60634H29.2989C29.8629 4.60634 30.3643 4.8257 30.7403 5.20172C31.1164 5.57775 31.3357 6.07912 31.3357 6.64317V22.2484Z" fill="black"/>
<path d="M16.483 6.73706C14.3522 6.73706 12.4094 7.61446 11.0306 8.99324C9.62049 10.4034 8.77441 12.3148 8.77441 14.4456C8.77441 16.5765 9.65182 18.5193 11.0306 19.8981C12.4407 21.3082 14.3522 22.1542 16.483 22.1542C18.6138 22.1542 20.5567 21.2768 21.9354 19.8981C23.3455 18.488 24.1916 16.5765 24.1916 14.4456C24.1916 12.3148 23.3142 10.372 21.9354 8.99324C20.5567 7.61446 18.6138 6.73706 16.483 6.73706ZM20.7447 18.7386C19.6479 19.8041 18.1438 20.4934 16.483 20.4934C14.8222 20.4934 13.3181 19.8041 12.2214 18.7386C11.1246 17.6419 10.4666 16.1378 10.4666 14.477C10.4666 12.8162 11.1559 11.3121 12.2214 10.2153C13.3181 9.11858 14.8222 8.46053 16.483 8.46053C18.1438 8.46053 19.6479 9.1499 20.7447 10.2153C21.8414 11.3121 22.4995 12.8162 22.4995 14.477C22.5308 16.1378 21.8414 17.6419 20.7447 18.7386Z" fill="black"/>
<ellipse cx="27.638" cy="8.24126" rx="1.53545" ry="1.53545" fill="black"/>
</svg>
