<svg width="15" height="15" viewBox="0 0 15 15" fill="none" xmlns="http://www.w3.org/2000/svg">
<path d="M6.17152 13.1038C6.17152 13.4519 5.88937 13.734 5.54133 13.734C5.19328 13.734 4.91113 13.4519 4.91113 13.1038C4.91113 12.7558 5.19328 12.4736 5.54133 12.4736C5.88937 12.4736 6.17152 12.7558 6.17152 13.1038Z" stroke="#CA639A" stroke-linecap="round" stroke-linejoin="round"/>
<path d="M13.1041 13.1038C13.1041 13.4519 12.822 13.734 12.4739 13.734C12.1259 13.734 11.8438 13.4519 11.8438 13.1038C11.8438 12.7558 12.1259 12.4736 12.4739 12.4736C12.822 12.4736 13.1041 12.7558 13.1041 13.1038Z" stroke="#CA639A" stroke-linecap="round" stroke-linejoin="round"/>
<path d="M0.5 0.5H3.02077L4.70969 8.93829C4.82863 9.53712 5.35966 9.9646 5.97008 9.9529H12.0956C12.706 9.9646 13.237 9.53712 13.3559 8.93829L14.3643 3.65097H3.65097" stroke="#CA639A" stroke-linecap="round" stroke-linejoin="round"/>
</svg>
