<svg width="65" height="53" viewBox="0 0 65 53" fill="none" xmlns="http://www.w3.org/2000/svg">
<path d="M60.6703 46.6282H55.6963C55.8008 46.3278 55.8545 46.0121 55.8552 45.694L55.8552 28.3308C55.8552 27.7989 55.424 27.3678 54.8922 27.3678C54.3603 27.3678 53.9292 27.7989 53.9292 28.3308V45.6941C53.9292 46.21 53.5109 46.6282 52.995 46.6282H44.299V43.7006C44.2583 35.924 39.0601 29.1195 31.5678 27.0355C34.3511 25.3918 36.0744 22.4143 36.1133 19.1821V7.14433C36.0144 4.52707 33.9154 2.42809 31.2982 2.32922L22.631 2.32923C20.0137 2.42809 17.9148 4.52707 17.8159 7.14433V19.1821C17.8545 22.4219 19.5863 25.4051 22.3806 27.0452C19.584 27.8403 17.0344 29.3312 14.9702 31.3787C11.5715 34.7261 9.64935 39.2915 9.63021 44.0617V46.6282H8.6383C8.12239 46.6282 7.70416 46.21 7.70417 45.694V14.8196C7.70417 14.3037 8.12239 13.8855 8.6383 13.8855H14.9268C15.4587 13.8855 15.8898 13.4543 15.8898 12.9225C15.8898 12.3906 15.4587 11.9594 14.9268 11.9594H8.6383C7.0652 11.9751 5.79378 13.2465 5.77812 14.8196L5.77812 45.6941C5.77878 46.0121 5.83249 46.3278 5.93702 46.6282H0.963021C0.431159 46.6282 -1.14801e-07 47.0593 0 47.5912V47.832C0 49.9988 1.74788 52.4063 4.09284 52.4063H57.5405C59.8854 52.4063 61.6333 49.9988 61.6333 47.832V47.5912C61.6333 47.0593 61.2022 46.6282 60.6703 46.6282ZM19.7419 7.14433C19.8364 5.58956 21.0762 4.34975 22.631 4.25527L31.2982 4.25527C32.8529 4.34975 34.0928 5.58956 34.1872 7.14433V11.9594H19.7419V7.14433ZM19.7419 19.1821V13.8855H34.1872V19.1821C34.0884 23.1294 30.9119 26.3059 26.9646 26.4047C23.0173 26.3059 19.8407 23.1294 19.7419 19.1821ZM11.5563 44.0617C11.5756 39.8081 13.2894 35.7376 16.3184 32.751C17.6805 31.4079 19.2785 30.3273 21.0324 29.5635C20.5509 30.8587 20.156 32.3514 19.9345 33.2133C17.8453 33.541 16.3217 35.3653 16.3714 37.4795V43.7391C16.3714 44.271 16.8025 44.7021 17.3344 44.7021H18.2974C18.8293 44.7021 19.2604 44.271 19.2604 43.7391C19.2604 43.2073 18.8293 42.7761 18.2974 42.7761V37.4795C18.2743 36.8341 18.5205 36.2082 18.9771 35.7516C19.4337 35.295 20.0596 35.0488 20.7049 35.0719C21.3503 35.0488 21.9762 35.295 22.4328 35.7516C22.8894 36.2082 23.1356 36.8341 23.1125 37.4795V42.7761C22.5806 42.7761 22.1495 43.2073 22.1495 43.7391C22.1495 44.271 22.5806 44.7021 23.1125 44.7021H24.0755C24.6074 44.7021 25.0385 44.271 25.0385 43.7391V37.4795C25.0838 35.5308 23.7879 33.8049 21.9039 33.3048C22.2843 31.8603 22.9151 29.7368 23.4592 28.8219C23.4592 28.793 23.4833 28.7641 23.4977 28.7401C24.7193 28.4467 25.9732 28.3092 27.2294 28.3308C28.8555 28.3601 30.4665 28.6495 32.0012 29.1879C32.9883 30.9695 33.4457 33.5215 33.6142 34.8071C31.9119 35.3181 30.8477 37.0068 31.1212 38.763C31.3948 40.5192 32.9224 41.8042 34.6995 41.7731C36.4766 41.742 37.9582 40.4043 38.1702 38.6396C38.3821 36.875 37.2595 35.2245 35.5403 34.7734C35.3548 33.2816 35.0325 31.81 34.5773 30.3772C39.3546 33.1182 42.309 38.1976 42.3296 43.7054L42.3729 46.6282H11.5562L11.5563 44.0617ZM34.6687 36.5791C35.5703 36.5791 36.3011 37.3099 36.3011 38.2114C36.3011 39.1129 35.5703 39.8437 34.6687 39.8437C33.7672 39.8437 33.0364 39.1129 33.0364 38.2114C33.0364 37.3099 33.7672 36.5791 34.6687 36.5791ZM57.5405 50.4803H4.09284C3.15389 50.4803 2.3257 49.5172 2.03679 48.5542H59.5965C59.3076 49.5413 58.4794 50.4803 57.5405 50.4803Z" fill="url(#paint0_linear_1308_2987)"/>
<path d="M61.6109 0.447998H46.2026C44.607 0.447998 43.3135 1.74147 43.3135 3.33706V10.2419C43.3135 14.041 42.206 16.5545 39.9429 17.922C39.5762 18.1443 39.4007 18.5822 39.5123 18.9962C39.6239 19.4102 39.9957 19.7005 40.4244 19.7084H61.6109C63.2065 19.7084 64.5 18.4149 64.5 16.8194V3.33706C64.5 1.74147 63.2065 0.447998 61.6109 0.447998ZM62.5739 16.8194C62.5739 17.3512 62.1427 17.7824 61.6109 17.7824H43.0246C44.5125 15.9912 45.2395 13.4969 45.2395 10.2419V3.33706C45.2395 2.8052 45.6707 2.37404 46.2026 2.37404H61.6109C62.1427 2.37404 62.5739 2.8052 62.5739 3.33706V16.8194Z" fill="url(#paint1_linear_1308_2987)"/>
<path d="M57.7589 6.22607H50.0547C49.5228 6.22607 49.0917 6.65724 49.0917 7.1891C49.0917 7.72096 49.5228 8.15212 50.0547 8.15212H57.7589C58.2907 8.15212 58.7219 7.72096 58.7219 7.1891C58.7219 6.65724 58.2907 6.22607 57.7589 6.22607Z" fill="url(#paint2_linear_1308_2987)"/>
<path d="M55.8328 12.0043H50.0547C49.5228 12.0043 49.0917 12.4354 49.0917 12.9673C49.0917 13.4992 49.5228 13.9303 50.0547 13.9303H55.8328C56.3647 13.9303 56.7959 13.4992 56.7959 12.9673C56.7959 12.4354 56.3647 12.0043 55.8328 12.0043Z" fill="url(#paint3_linear_1308_2987)"/>
<path d="M28.4091 7.14436H27.9276V6.66285C27.9276 6.13099 27.4964 5.69983 26.9646 5.69983C26.4327 5.69983 26.0015 6.13099 26.0015 6.66285V7.14436H25.52C24.9882 7.14436 24.557 7.57552 24.557 8.10738C24.557 8.63924 24.9882 9.0704 25.52 9.0704H26.0015V9.55191C26.0015 10.0838 26.4327 10.5149 26.9646 10.5149C27.4964 10.5149 27.9276 10.0838 27.9276 9.55191V9.0704H28.4091C28.941 9.0704 29.3721 8.63924 29.3721 8.10738C29.3721 7.57552 28.941 7.14436 28.4091 7.14436Z" fill="url(#paint4_linear_1308_2987)"/>
<path d="M1.91113 47.9375H59.2445V50.8042H1.91113V47.9375Z" fill="#661CA2"/>
<defs>
<linearGradient id="paint0_linear_1308_2987" x1="16.125" y1="13.4376" x2="16.125" y2="13.4376" gradientUnits="userSpaceOnUse">
<stop offset="1" stop-color="#5911A2"/>
<stop stop-color="#EE91A6"/>
</linearGradient>
<linearGradient id="paint1_linear_1308_2987" x1="16.125" y1="13.4376" x2="16.125" y2="13.4376" gradientUnits="userSpaceOnUse">
<stop offset="1" stop-color="#5911A2"/>
<stop stop-color="#EE91A6"/>
</linearGradient>
<linearGradient id="paint2_linear_1308_2987" x1="16.125" y1="13.4376" x2="16.125" y2="13.4376" gradientUnits="userSpaceOnUse">
<stop offset="1" stop-color="#5911A2"/>
<stop stop-color="#EE91A6"/>
</linearGradient>
<linearGradient id="paint3_linear_1308_2987" x1="16.125" y1="13.4376" x2="16.125" y2="13.4376" gradientUnits="userSpaceOnUse">
<stop offset="1" stop-color="#5911A2"/>
<stop stop-color="#EE91A6"/>
</linearGradient>
<linearGradient id="paint4_linear_1308_2987" x1="16.125" y1="13.4376" x2="16.125" y2="13.4376" gradientUnits="userSpaceOnUse">
<stop offset="1" stop-color="#5911A2"/>
<stop stop-color="#EE91A6"/>
</linearGradient>
</defs>
</svg>
