<svg width="30" height="30" viewBox="0 0 30 30" fill="none" xmlns="http://www.w3.org/2000/svg">
<path d="M10.5263 12.904C8.46171 12.904 6.79102 11.2333 6.79102 9.16865C6.79102 7.10405 8.46171 5.43335 10.5263 5.43335C12.5909 5.43335 14.2616 7.10405 14.2616 9.16865C14.2616 11.2333 12.5909 12.904 10.5263 12.904ZM10.5263 7.47079C9.5891 7.47079 8.82845 8.23143 8.82845 9.16865C8.82845 10.1059 9.5891 10.8665 10.5263 10.8665C11.4635 10.8665 12.2242 10.1059 12.2242 9.16865C12.2242 8.23143 11.4635 7.47079 10.5263 7.47079Z" fill="black"/>
<path d="M18.6765 29.2033H10.5268C3.15124 29.2033 0 26.052 0 18.6765V10.5268C0 3.15124 3.15124 0 10.5268 0H15.9599C16.5168 0 16.9787 0.461819 16.9787 1.01872C16.9787 1.57562 16.5168 2.03744 15.9599 2.03744H10.5268C4.26504 2.03744 2.03744 4.26504 2.03744 10.5268V18.6765C2.03744 24.9382 4.26504 27.1658 10.5268 27.1658H18.6765C24.9382 27.1658 27.1658 24.9382 27.1658 18.6765V11.8851C27.1658 11.3282 27.6277 10.8663 28.1846 10.8663C28.7415 10.8663 29.2033 11.3282 29.2033 11.8851V18.6765C29.2033 26.052 26.052 29.2033 18.6765 29.2033Z" fill="black"/>
<path d="M22.7511 10.1872C22.1942 10.1872 21.7324 9.72538 21.7324 9.16848V1.01873C21.7324 0.611247 21.9769 0.230925 22.3572 0.0815128C22.7376 -0.0678995 23.1722 0.0135982 23.471 0.298839L26.1876 3.01542C26.5815 3.40933 26.5815 4.06131 26.1876 4.45521C25.7937 4.84912 25.1417 4.84912 24.7478 4.45521L23.7699 3.47724V9.16848C23.7699 9.72538 23.308 10.1872 22.7511 10.1872Z" fill="black"/>
<path d="M20.0339 4.75404C19.7758 4.75404 19.5177 4.65896 19.314 4.45522C18.9201 4.06131 18.9201 3.40933 19.314 3.01543L22.0306 0.298846C22.4245 -0.0950581 23.0765 -0.0950581 23.4704 0.298846C23.8643 0.692751 23.8643 1.34473 23.4704 1.73864L20.7538 4.45522C20.55 4.65896 20.292 4.75404 20.0339 4.75404Z" fill="black"/>
<path d="M1.92833 25.0608C1.60234 25.0608 1.27635 24.8978 1.08619 24.6126C0.773781 24.1507 0.896028 23.5123 1.35785 23.1999L8.05423 18.704C9.52118 17.726 11.545 17.8347 12.8762 18.9621L13.3244 19.356C14.0035 19.94 15.1581 19.94 15.8237 19.356L21.4741 14.5069C22.9139 13.2708 25.1823 13.2708 26.6357 14.5069L28.8497 16.4085C29.2707 16.7752 29.3251 17.4136 28.9583 17.8483C28.5916 18.2693 27.9396 18.3237 27.5185 17.9569L25.3045 16.0553C24.6254 15.4713 23.4844 15.4713 22.8053 16.0553L17.1548 20.9044C15.715 22.1405 13.4466 22.1405 11.9933 20.9044L11.545 20.5105C10.9202 19.9808 9.88793 19.9264 9.1952 20.4019L2.51239 24.8978C2.32223 25.0065 2.11849 25.0608 1.92833 25.0608Z" fill="black"/>
</svg>
