<svg width="60" height="56" viewBox="0 0 60 56" fill="none" xmlns="http://www.w3.org/2000/svg">
<path d="M13.0035 29.0079C11.8987 29.0079 11.003 29.9035 11.003 31.0084C11.003 32.1133 11.8987 33.0089 13.0035 33.0089C14.1084 33.0089 15.0041 32.1133 15.0041 31.0084C15.0026 29.9041 14.1078 29.0093 13.0035 29.0079ZM12.0033 26.5072C12.0033 26.231 12.2272 26.007 12.5034 26.007H14.5039C14.7801 26.007 15.0041 26.231 15.0041 26.5072C15.0041 26.7834 14.7801 27.0073 14.5039 27.0073H12.5034C12.2272 27.0073 12.0033 26.7834 12.0033 26.5072ZM59.016 22.5061V0.500137C59.016 0.223923 58.7921 0 58.5159 0H40.511C40.2348 0 40.0108 0.223923 40.0108 0.500137V22.006H37.5052C38.077 21.2498 38.1711 20.235 37.748 19.3867C37.3249 18.5383 36.4576 18.003 35.5096 18.0049H31.5085C30.1274 18.0049 29.0079 19.1245 29.0079 20.5056C29.0079 21.8866 30.1274 23.0062 31.5085 23.0062H33.9279C32.11 24.1681 31.0095 26.1764 31.0084 28.3339V40.0108H18.0049V14.0038H21.0057C22.1106 14.0038 23.0062 13.1081 23.0062 12.0033C23.0062 10.8984 22.1106 10.0027 21.0057 10.0027H16.4382L18.9401 6.24919C19.3665 6.72182 19.9079 7.0019 20.5056 7.0019C21.9072 7.0019 23.0062 5.46398 23.0062 3.50095C23.0062 1.53792 21.9072 0 20.5056 0C19.1039 0 18.0049 1.53792 18.0049 3.50095C17.9999 4.12481 18.1198 4.74336 18.3575 5.32019L15.2366 10.0027C15.2366 10.0027 9.31627 10.0315 9.23875 10.079C7.35807 10.4416 5.99973 12.0885 6.00162 14.0038C6.00889 15.9196 7.36746 17.5639 9.24751 17.9324C9.32252 17.9774 11.7982 18.0049 11.7982 18.0049L7.71334 29.6755C7.17154 31.1949 7.24513 32.8659 7.91839 34.3318C3.26064 35.5139 -0.000566409 39.7066 7.37884e-08 44.5121C7.37884e-08 44.7883 0.223921 45.0122 0.500137 45.0122H2.42816C1.33114 48.1207 2.39181 51.5811 5.04236 53.541C7.6929 55.5008 11.3122 55.5008 13.9628 53.541C16.6133 51.5811 17.674 48.1207 16.577 45.0122H39.4382C38.3299 48.1476 39.418 51.6385 42.1114 53.589C44.8048 55.5396 48.4609 55.4844 51.0941 53.4533C53.7274 51.4223 54.7095 47.9002 53.507 44.7996C54.4221 44.3992 55.0138 43.4954 55.0149 42.4965V41.0111H58.5159C58.7921 41.0111 59.016 40.7872 59.016 40.511V33.6529C59.0116 29.0476 56.2976 24.8762 52.0891 23.0062H58.5159C58.7921 23.0062 59.016 22.7823 59.016 22.5061ZM9.50257 50.0135C8.12148 50.0136 7.00189 48.894 7.00189 47.5129C7.00189 46.1318 8.12148 45.0122 9.50257 45.0122C10.8837 45.0122 12.0033 46.1318 12.0033 47.5129C12.0019 48.8934 10.8831 50.0122 9.50257 50.0135ZM17.0046 44.0119H1.01277C1.23787 39.7554 4.26902 36.1693 8.42853 35.2383C8.45854 35.2821 8.48604 35.3271 8.51731 35.3708C9.68355 37.0362 11.5931 38.0227 13.6262 38.0103H17.0046L17.0046 44.0119ZM17.0046 37.01H13.6262C11.9196 37.01 10.3193 36.1832 9.33223 34.7917C8.34532 33.4007 8.09365 31.6171 8.65734 30.0069L12.8585 18.0049H17.0046V37.01ZM17.0046 17.0046H10.0027V11.003H17.0046V17.0046ZM46.5126 50.0135C45.1315 50.0136 44.0119 48.894 44.0119 47.5129C44.0119 46.1318 45.1315 45.0122 46.5126 45.0122C47.8937 45.0122 49.0133 46.1318 49.0133 47.5129C49.0119 48.8934 47.8931 50.0122 46.5126 50.0135ZM58.0157 33.6529V40.0108H32.0087V28.3339C32.0116 25.3927 34.3952 23.0091 37.3364 23.0062H47.3691C53.2462 23.013 58.0089 27.7757 58.0157 33.6529ZM58.0157 22.006H41.0111V5.00136H58.0157V22.006ZM43.5118 30.0081H50.5137C50.7899 30.0081 51.0138 30.232 51.0138 30.5083C51.0138 30.7845 50.7899 31.0084 50.5137 31.0084H43.5118C43.2356 31.0084 43.0117 30.7845 43.0117 30.5083C43.0117 30.232 43.2356 30.0081 43.5118 30.0081ZM43.5118 33.0089H53.5145C53.7907 33.0089 54.0146 33.2329 54.0146 33.5091C54.0146 33.7853 53.7907 34.0092 53.5145 34.0092H43.5118C43.2356 34.0092 43.0117 33.7853 43.0117 33.5091C43.0117 33.2329 43.2356 33.0089 43.5118 33.0089ZM50.0135 36.5099C50.0135 36.7861 49.7896 37.01 49.5134 37.01H43.5118C43.2356 37.01 43.0117 36.7861 43.0117 36.5099C43.0117 36.2337 43.2356 36.0098 43.5118 36.0098H49.5134C49.7896 36.0098 50.0135 36.2337 50.0135 36.5099ZM54.5148 11.003H52.0141V8.5023C52.0141 8.22609 51.7902 8.00217 51.514 8.00217H47.5129C47.2367 8.00217 47.0127 8.22609 47.0127 8.5023V11.003H44.5121C44.2358 11.003 44.0119 11.2269 44.0119 11.5031V15.5042C44.0119 15.7804 44.2358 16.0043 44.5121 16.0043H47.0127V18.505C47.0127 18.7812 47.2367 19.0051 47.5129 19.0051H51.514C51.7902 19.0051 52.0141 18.7812 52.0141 18.505V16.0043H54.5148C54.791 16.0043 55.0149 15.7804 55.0149 15.5042V11.5031C55.0149 11.2269 54.791 11.003 54.5148 11.003Z" fill="url(#paint0_linear_1056_1186)"/>
<defs>
<linearGradient id="paint0_linear_1056_1186" x1="14.754" y1="13.7538" x2="14.754" y2="13.7538" gradientUnits="userSpaceOnUse">
<stop offset="1" stop-color="#F496A6"/>
<stop stop-color="#560EA2"/>
</linearGradient>
</defs>
</svg>
