<svg width="35" height="35" viewBox="0 0 35 35" fill="none" xmlns="http://www.w3.org/2000/svg">
<path d="M32.536 25.6347C33.6316 23.4074 34.248 20.9018 34.248 18.2519C34.248 9.00219 26.7497 1.50385 17.5 1.50385C8.25029 1.50385 0.751953 9.00219 0.751953 18.2519C0.751953 20.9018 1.36835 23.4074 2.46401 25.6347H32.536Z" fill="#64C0F4"/>
<path d="M12.3825 17.0942H13.8031V18.1362H12.3825V17.0942Z" fill="#0F3E4C"/>
<path d="M21.1981 17.0942H22.6187V18.1362H21.1981V17.0942Z" fill="#0F3E4C"/>
<path d="M12.6094 18.0308C11.8611 19.1603 12.1514 20.5414 12.5318 21.508C13.861 24.8849 17.4423 26.1523 17.4783 26.1648L17.5006 26.1724L17.5229 26.1648C17.5589 26.1523 21.1403 24.8849 22.4695 21.508C22.8498 20.5417 23.1401 19.1609 22.3923 18.0316L22.3811 18.0267C21.8911 17.8123 21.362 17.7016 20.8272 17.7016C18.6118 17.7016 16.3931 17.7016 14.1729 17.7016C13.6381 17.7016 13.109 17.8123 12.619 18.0267L12.6094 18.0308Z" fill="#EBF0F2"/>
<path d="M12.619 18.0267L12.6094 18.0308C11.8611 19.1603 12.1514 20.5414 12.5318 21.508C13.861 24.8849 17.4423 26.1523 17.4783 26.1648L17.5006 26.1724L17.5229 26.1648C17.5229 26.1648 17.5349 26.1605 17.5527 26.1539C17.5353 26.136 17.5187 26.1181 17.5006 26.1001C15.0597 23.6592 16.7076 21.4151 16.7076 21.4151L15.0273 17.7015C14.7425 17.7015 14.4579 17.7016 14.1729 17.7016C13.6381 17.7016 13.109 17.8123 12.619 18.0267Z" fill="#C2D4E6"/>
<path d="M30.906 22.1588C30.5412 21.5071 29.9622 21.0021 29.2668 20.7297L27.337 19.9734C27.545 20.7947 27.1196 21.8055 26.0712 22.9785C24.5472 24.6834 22.2994 25.5435 20.6821 25.9648C18.9257 26.4224 17.5124 26.4757 17.503 26.4761C17.4889 26.4756 16.0783 26.4227 14.3222 25.9656C12.704 25.5443 10.4549 24.6842 8.93019 22.9784C7.88156 21.8052 7.45616 20.7943 7.66445 19.9728L5.73337 20.7296C5.03795 21.0021 4.45895 21.507 4.09411 22.1588C3.55619 23.1196 2.97985 24.3281 2.43004 25.5664C4.10416 29.0092 6.92344 31.792 10.3922 33.4204V31.7108C10.3922 31.3004 10.7279 30.9647 11.1383 30.9647H23.9078C24.3182 30.9647 24.6539 31.3004 24.6539 31.7108V33.3987C28.1015 31.7673 30.9032 28.9938 32.5699 25.5663C32.0201 24.3281 31.4438 23.1196 30.906 22.1588Z" fill="#2C2C42"/>
<path d="M8.93081 23.3946C9.0177 23.3516 9.09159 23.287 9.1456 23.208C9.07252 23.133 9.00033 23.0569 8.93019 22.9784C7.88156 21.8052 7.45616 20.7943 7.66445 19.9728L5.73337 20.7296C5.03795 21.0021 4.45895 21.507 4.09411 22.1588C3.55619 23.1196 2.97985 24.3281 2.43004 25.5664C3.28774 27.3302 4.44671 28.9202 5.83892 30.2711C6.12124 29.0376 6.55546 27.1558 6.85542 25.9274C7.23358 24.3787 8.44095 23.6375 8.93081 23.3946Z" fill="#212135"/>
<path d="M17.5 35C20.0863 35 22.5356 34.4136 24.7223 33.3667V31.5741C24.7223 31.1637 24.3866 30.828 23.9762 30.828H11.0699C10.6596 30.828 10.3238 31.1637 10.3238 31.5741V33.3883C12.4989 34.4215 14.9318 35 17.5 35Z" fill="#FBCC68"/>
<path d="M16.3185 32.5028C16.3185 31.7106 16.8541 31.038 17.581 30.828H11.0699C10.6596 30.828 10.3238 31.1637 10.3238 31.5741V33.3883C12.1624 34.2616 14.1856 34.8083 16.3185 34.9572L16.3185 32.5028Z" fill="#EFAA42"/>
<path d="M23.2752 18.3816L22.4805 18.0701L22.3811 18.0267C21.8911 17.8123 21.362 17.7016 20.8272 17.7016C18.6118 17.7016 16.3931 17.7016 14.1729 17.7016C13.6381 17.7016 13.109 17.8123 12.619 18.0267L12.5195 18.0701L11.7248 18.3816C12.3713 20.9697 14.7116 22.887 17.5 22.887C20.2884 22.887 22.6287 20.9697 23.2752 18.3816Z" fill="#C2D4E6"/>
<path d="M13.0347 17.9349C13.079 17.9241 13.1233 17.9131 13.1679 17.9028C13.1962 17.8745 13.2242 17.8448 13.2519 17.8137C13.0358 17.8666 12.8239 17.937 12.619 18.0267L12.5195 18.0701L11.7248 18.3816C12.268 20.556 14.0069 22.2564 16.2025 22.7446C16.3267 21.9343 16.7076 21.4151 16.7076 21.4151L16.6399 21.2654C14.8947 20.9371 13.4956 19.6297 13.0347 17.9349Z" fill="#99B8DA"/>
<path d="M22.0116 17.8871C21.6295 17.7645 21.23 17.7016 20.8272 17.7016C18.6118 17.7016 16.3931 17.7016 14.1729 17.7016C13.7701 17.7016 13.3705 17.7645 12.9884 17.8871C13.4579 19.946 15.2988 21.4829 17.5 21.4829C19.7012 21.4829 21.5421 19.946 22.0116 17.8871Z" fill="#E0D3CD"/>
<path d="M20.7839 15.9836C20.2082 16.7985 19.4361 17.56 18.4064 18.0581C18.1263 18.1936 17.8188 18.2684 17.5076 18.269C17.5053 18.269 17.5029 18.269 17.5006 18.269H17.4956C17.183 18.2685 16.8743 18.1928 16.5931 18.0565C15.5638 17.5579 14.7922 16.7959 14.2168 15.9807C14.0099 16.7469 13.626 17.5814 13.1679 18.0395C13.1232 18.0498 13.079 18.0608 13.0346 18.0716C13.5693 20.0371 15.3652 21.4829 17.5 21.4829C19.6348 21.4829 21.4306 20.0371 21.9652 18.0716C21.9209 18.0608 21.8766 18.0498 21.8319 18.0395C21.3745 17.582 20.991 16.749 20.7839 15.9836Z" fill="#FFAA7B"/>
<path d="M17.6479 18.2631C17.6012 18.2665 17.5545 18.2689 17.5076 18.269C17.5053 18.269 17.5029 18.269 17.5006 18.269H17.4956C17.183 18.2685 16.8743 18.1928 16.5931 18.0565C15.5638 17.5579 14.7922 16.7959 14.2168 15.9807C14.0099 16.7469 13.626 17.5814 13.1679 18.0395C13.1232 18.0498 13.079 18.0608 13.0346 18.0716C13.5016 19.7883 14.9308 21.1084 16.7076 21.4151C17.2847 20.4041 17.5394 19.2242 17.6479 18.2631Z" fill="#F7996B"/>
<path d="M23.594 9.40551C23.3421 9.17466 22.8404 9.2917 22.6234 9.43306C22.6709 9.72899 22.6736 10.0318 22.6326 10.3308L22.3084 12.1953C22.3084 12.3456 22.2906 12.493 22.2819 12.6379C22.9061 12.8261 23.2974 12.2657 23.3496 11.8811C23.3721 11.7156 23.4089 11.5524 23.4599 11.3932C23.626 10.8746 24.2251 9.9839 23.594 9.40551Z" fill="#FFAA7B"/>
<path d="M11.4073 9.40551C11.6592 9.17466 12.161 9.2917 12.3779 9.43306C12.3304 9.72899 12.3277 10.0318 12.3687 10.3308L12.6929 12.1953C12.6929 12.3456 12.7274 12.493 12.7361 12.6379C12.1118 12.8261 11.7039 12.2657 11.6516 11.8811C11.6291 11.7156 11.5923 11.5524 11.5413 11.3932C11.3753 10.8746 10.7762 9.9839 11.4073 9.40551Z" fill="#F7996B"/>
<path d="M22.4693 8.857C22.4117 8.70668 22.3391 8.55444 22.2476 8.41082C22.0925 8.16759 22.0244 7.87994 22.0451 7.5931C22.1049 6.76814 22.0728 5.15465 20.9899 4.66732C20.0698 4.25327 18.9411 4.493 18.2213 4.7324C17.7539 4.88785 17.2474 4.88785 16.78 4.7324C16.0603 4.49307 14.9316 4.25334 14.0115 4.66732C12.9254 5.15602 12.8963 6.77737 12.9567 7.60014C12.9776 7.88479 12.9075 8.16951 12.7537 8.41088C12.669 8.54391 12.6004 8.68432 12.545 8.82378C12.3533 9.30598 12.3003 9.83228 12.3709 10.3464L12.6247 12.1953C12.6247 12.1953 13.2569 16.577 16.5931 18.1933C16.8744 18.3296 17.1831 18.4053 17.4956 18.4058H17.5077C17.8188 18.4052 18.1264 18.3304 18.4065 18.1949C21.6555 16.6234 22.3419 12.4304 22.3766 12.2056C22.3766 12.2022 22.3767 12.1988 22.3767 12.1954L22.6326 10.3308C22.7007 9.83358 22.6491 9.32601 22.4693 8.857Z" fill="#FFBB99"/>
<path d="M16.2647 12.1953L16.1029 10.3464C16.058 9.83228 16.0917 9.30605 16.2139 8.82378C16.2492 8.68432 16.2929 8.54391 16.3469 8.41088C16.4449 8.16951 16.4896 7.88479 16.4763 7.60014C16.4406 6.83787 16.4543 5.39097 17.0068 4.79351C16.9305 4.77663 16.8547 4.75721 16.78 4.7324C16.0603 4.49307 14.9316 4.25334 14.0115 4.66732C12.9254 5.15602 12.8963 6.77737 12.9567 7.60014C12.9776 7.88479 12.9075 8.16951 12.7537 8.41088C12.669 8.54391 12.6004 8.68432 12.545 8.82378C12.3533 9.30598 12.3003 9.83228 12.3709 10.3464L12.6247 12.1953C12.6247 12.1953 13.2569 16.577 16.5931 18.1933C16.8744 18.3296 17.1831 18.4053 17.4956 18.4058H17.5077C17.8188 18.4052 18.1264 18.3304 18.4065 18.1949C18.4876 18.1556 18.5664 18.1144 18.6443 18.072C16.6489 16.3691 16.2647 12.1953 16.2647 12.1953Z" fill="#FFAA7B"/>
<path d="M24.4112 5.74576C24.7282 5.6975 25.0772 5.44798 25.2691 5.29219C25.3382 5.23614 25.3239 5.12868 25.244 5.08958C23.744 4.3556 22.8428 1.97629 21.6234 1.22105C20.5798 0.574645 19.6798 0.94693 19.3966 1.09718C19.3439 1.12514 19.2781 1.10983 19.2434 1.06136C18.8405 0.499791 18.1717 0.166539 17.7788 0.00903914C17.674 -0.0330019 17.574 0.0776719 17.6263 0.177818C17.7998 0.509772 17.8729 0.780133 17.9035 0.958483C17.92 1.05528 17.819 1.13006 17.7309 1.08652C16.4155 0.436354 14.0764 0.899215 12.6484 2.64518C11.4603 4.09789 10.5448 4.31568 10.2148 4.34337C10.1401 4.34965 10.089 4.42184 10.1082 4.4943C10.2361 4.97733 10.7295 5.29021 10.9383 5.40362C10.9964 5.43513 11.0206 5.50876 10.9874 5.56584C10.8883 5.73653 10.6764 5.84003 10.5521 5.88849C10.4967 5.91009 10.4658 5.96881 10.4789 6.02685C10.5988 6.56094 11.1649 8.98251 11.7641 9.92129C12.1818 10.5758 12.4102 11.4599 12.5238 12.0391C12.5399 12.1214 12.6597 12.1141 12.6656 12.0304C12.7102 11.3984 12.7749 10.3682 12.8001 9.40285C12.8311 8.21859 13.8656 7.52262 14.337 7.26634C14.428 7.21685 14.5349 7.29813 14.5126 7.39923L14.4482 7.69092C14.4297 7.7746 14.5018 7.85082 14.5863 7.83673C18.1199 7.24549 19.4175 6.0246 19.8913 5.26362C19.9244 5.21044 19.9889 5.18678 20.0486 5.20592C20.1031 5.22342 20.1402 5.27346 20.143 5.33068C20.2534 7.60438 22.0114 7.88144 22.265 8.89008C22.4731 9.71764 22.4201 11.2878 22.38 12.0287C22.3746 12.13 22.5135 12.1662 22.5568 12.0745C23.108 10.9085 23.0288 9.29648 23.9047 8.23103C24.6164 7.36533 24.9475 6.7974 25.0735 6.55609C25.1083 6.48951 25.0729 6.40987 25.0014 6.3867C24.6815 6.2832 24.4651 6.09111 24.3373 5.94345C24.2754 5.87188 24.3174 5.76005 24.4112 5.74576Z" fill="#404051"/>
<path d="M25.592 18.3385C25.3946 18.2715 25.2246 18.1401 25.1117 17.9649C24.7202 17.3577 23.554 16.0524 21.1981 17.0942C21.1981 17.0942 23.7389 18.0962 22.4059 21.4829C21.0729 24.8696 17.5006 26.1001 17.5006 26.1001L17.5007 26.5444C17.5007 26.5444 23.1485 26.3508 26.1222 23.0239C28.9656 19.8428 26.5239 18.6548 25.592 18.3385Z" fill="#404051"/>
<path d="M9.40919 18.3385C9.60661 18.2715 9.77662 18.1401 9.88955 17.9649C10.2811 17.3577 11.4471 16.0524 13.8031 17.0942C13.8031 17.0942 11.2624 18.0962 12.5954 21.4829C13.9284 24.8696 17.5006 26.1001 17.5006 26.1001L17.5007 26.5444C17.5007 26.5444 11.8528 26.3508 8.87913 23.0239C6.03565 19.8428 8.47732 18.6548 9.40919 18.3385Z" fill="#404051"/>
<path d="M9.10321 23.2627C9.1471 23.2132 9.18237 23.1562 9.20589 23.0933C9.62343 21.9748 10.5991 22.5481 11.1165 21.6241C11.6634 20.6476 12.4229 20.9884 12.4229 20.9884C11.5129 17.9978 13.8031 17.0942 13.8031 17.0942C11.4471 16.0524 10.2811 17.3577 9.88955 17.9649C9.77662 18.1401 9.60661 18.2715 9.40919 18.3385C8.47732 18.6548 6.03565 19.8428 8.87913 23.0239C8.95207 23.1056 9.02713 23.1848 9.10321 23.2627Z" fill="#2C2C42"/>
<path d="M25.7477 28.4811V32.8313C26.0976 32.6329 26.4395 32.4222 26.7731 32.1999V28.4811C26.7731 28.1979 26.5435 27.9684 26.2604 27.9684C25.9772 27.9684 25.7477 28.198 25.7477 28.4811Z" fill="#212135"/>
<path d="M9.29845 28.4811C9.29845 28.1979 9.06889 27.9684 8.78575 27.9684C8.50261 27.9684 8.27306 28.1979 8.27306 28.4811V32.2307C8.60665 32.4514 8.94872 32.6601 9.29845 32.857V28.4811Z" fill="#212135"/>
<path d="M22.5771 25.2885C23.0966 25.2885 23.5177 24.8674 23.5177 24.3479C23.5177 23.8285 23.0966 23.4074 22.5771 23.4074C22.0577 23.4074 21.6366 23.8285 21.6366 24.3479C21.6366 24.8674 22.0577 25.2885 22.5771 25.2885Z" fill="#2C2C42"/>
<path d="M12.4228 25.2885C12.9423 25.2885 13.3634 24.8674 13.3634 24.3479C13.3634 23.8285 12.9423 23.4074 12.4228 23.4074C11.9034 23.4074 11.4823 23.8285 11.4823 24.3479C11.4823 24.8674 11.9034 25.2885 12.4228 25.2885Z" fill="#2C2C42"/>
<path d="M22.5771 24.0476C22.294 24.0476 22.0644 24.2771 22.0644 24.5603V32.0588C22.0644 32.342 22.294 32.5715 22.5771 32.5715C22.8603 32.5715 23.0898 32.342 23.0898 32.0588V24.5603C23.0898 24.2772 22.8603 24.0476 22.5771 24.0476Z" fill="#545460"/>
<path d="M22.5771 30.518C22.1883 30.518 21.873 30.8332 21.873 31.2221V32.3318C21.873 32.7207 22.1882 33.0359 22.5771 33.0359C22.9659 33.0359 23.2812 32.7207 23.2812 32.3318V31.2221C23.2812 30.8332 22.9659 30.518 22.5771 30.518Z" fill="#EBF0F2"/>
<path d="M12.4228 24.0476C12.1397 24.0476 11.9101 24.2771 11.9101 24.5603V32.0588C11.9101 32.342 12.1397 32.5715 12.4228 32.5715C12.706 32.5715 12.9355 32.342 12.9355 32.0588V24.5603C12.9355 24.2772 12.706 24.0476 12.4228 24.0476Z" fill="#545460"/>
<path d="M12.4228 30.518C12.034 30.518 11.7187 30.8332 11.7187 31.2221V32.3318C11.7187 32.7207 12.0339 33.0359 12.4228 33.0359C12.8117 33.0359 13.1269 32.7207 13.1269 32.3318V31.2221C13.1269 30.8332 12.8117 30.518 12.4228 30.518Z" fill="#EBF0F2"/>
<path d="M22.5771 31.9421C22.1883 31.9421 21.873 31.6269 21.873 31.238V32.3318C21.873 32.7207 22.1882 33.0359 22.5771 33.0359C22.9659 33.0359 23.2812 32.7207 23.2812 32.3318V31.238C23.2812 31.627 22.9659 31.9421 22.5771 31.9421Z" fill="#C2D4E6"/>
<path d="M12.4228 31.9421C12.034 31.9421 11.7187 31.6269 11.7187 31.238V32.3318C11.7187 32.7207 12.0339 33.0359 12.4228 33.0359C12.8117 33.0359 13.1269 32.7207 13.1269 32.3318V31.238C13.1269 31.627 12.8117 31.9421 12.4228 31.9421Z" fill="#C2D4E6"/>
<path d="M16.4827 3.34593C14.744 1.95947 17.7309 1.08652 17.7309 1.08652C16.4155 0.436354 14.0764 0.899215 12.6484 2.64518C11.4603 4.09789 10.5448 4.31568 10.2148 4.34337C10.1401 4.34965 10.089 4.42184 10.1082 4.4943C10.2361 4.97733 10.7295 5.29021 10.9383 5.40362C10.9964 5.43513 11.0206 5.50876 10.9874 5.56584C10.8883 5.73653 10.6764 5.84003 10.5521 5.88849C10.4967 5.91009 10.4658 5.96881 10.4789 6.02685C10.5988 6.56094 11.1649 8.98251 11.7641 9.92129C12.1818 10.5758 12.4102 11.4599 12.5238 12.0391C12.5399 12.1214 12.6597 12.1141 12.6656 12.0304C12.7102 11.3984 12.7749 10.3682 12.8001 9.40285C12.8311 8.21859 13.8656 7.52262 14.337 7.26634C14.428 7.21685 14.5349 7.29813 14.5126 7.39923L14.4482 7.69092C14.4297 7.7746 14.5018 7.85082 14.5863 7.83673C15.3021 7.71697 15.9248 7.57109 16.4689 7.40874C15.7157 5.51409 18.2211 4.73226 16.4827 3.34593Z" fill="#2C2C42"/>
</svg>
