<svg width="520" height="520" viewBox="0 0 520 520" fill="none" xmlns="http://www.w3.org/2000/svg">
<path fill-rule="evenodd" clip-rule="evenodd" d="M104 234C104 199.522 117.696 166.456 142.076 142.076C166.456 117.696 199.522 104 234 104C268.478 104 301.544 117.696 325.924 142.076C350.304 166.456 364 199.522 364 234C364 268.478 350.304 301.544 325.924 325.924C301.544 350.304 268.478 364 234 364C199.522 364 166.456 350.304 142.076 325.924C117.696 301.544 104 268.478 104 234ZM234 52C205.162 52 176.736 58.8529 151.066 71.9939C125.396 85.1349 103.216 104.188 86.3539 127.583C69.4919 150.978 58.4306 178.044 54.0816 206.553C49.7325 235.061 52.2202 264.195 61.3397 291.553C70.4591 318.912 85.9493 343.711 106.534 363.909C127.118 384.106 152.207 399.123 179.734 407.721C207.26 416.32 236.436 418.254 264.857 413.365C293.277 408.476 320.129 396.903 343.2 379.6C343.939 380.583 344.747 381.513 345.618 382.382L423.618 460.382C428.522 465.118 435.089 467.739 441.906 467.68C448.724 467.62 455.245 464.886 460.065 460.065C464.886 455.245 467.62 448.724 467.68 441.906C467.739 435.089 465.118 428.522 460.382 423.618L382.382 345.618C381.513 344.747 380.583 343.939 379.6 343.2C399.88 316.16 412.229 284.008 415.265 250.345C418.3 216.682 411.901 182.838 396.786 152.607C381.67 122.376 358.435 96.951 329.683 79.1816C300.931 61.4121 267.8 52 234 52Z" fill="#808080"/>
</svg>
