<svg width="15" height="12" viewBox="0 0 15 12" fill="none" xmlns="http://www.w3.org/2000/svg">
<path d="M9.59104 6.88345C9.59104 8.1733 8.54177 9.22257 7.25192 9.22257C5.96208 9.22257 4.9132 8.1733 4.9132 6.88345C4.9132 5.5936 5.96208 4.54433 7.25192 4.54433C8.54177 4.54433 9.59104 5.59401 9.59104 6.88345ZM14.5038 3.56201V10.2057C14.5038 11.0914 13.7857 11.8095 12.9001 11.8095H1.60379C0.718095 11.8095 0 11.0914 0 10.2057V3.56201C0 2.67632 0.718095 1.95822 1.60379 1.95822H3.57644V1.40331C3.57644 0.628283 4.20433 0 4.97976 0H9.52408C10.2995 0 10.9274 0.628283 10.9274 1.40331V1.95782H12.9001C13.7857 1.95822 14.5038 2.67632 14.5038 3.56201ZM10.7939 6.88345C10.7939 4.93044 9.20493 3.34149 7.25192 3.34149C5.29931 3.34149 3.71036 4.93044 3.71036 6.88345C3.71036 8.83646 5.29931 10.4254 7.25192 10.4254C9.20493 10.4254 10.7939 8.83646 10.7939 6.88345Z" fill="#C35E9C"/>
</svg>
