<svg width="15" height="12" viewBox="0 0 15 12" fill="none" xmlns="http://www.w3.org/2000/svg">
<path d="M13.2042 2.36017H13.0807C13.0085 1.74077 12.51 1.24968 11.8871 1.18959C11.8156 0.521846 11.2491 0 10.5628 0H2.06299C0.92548 0 0 0.925479 0 2.06288V8.02258C0 8.71372 0.528877 9.28336 1.20299 9.34851C1.27374 10.0091 1.8291 10.5266 2.50552 10.5374C2.50728 10.6547 2.52562 10.7678 2.55891 10.8746C2.71041 11.361 3.16502 11.715 3.7006 11.715H13.2042C13.8635 11.715 14.3999 11.1787 14.3999 10.5195V3.5558C14.3999 2.89652 13.8635 2.36017 13.2042 2.36017ZM13.8374 3.5558V8.1609L12.6139 7.23674C12.2796 6.98427 11.8275 6.98032 11.489 7.22696L9.94132 8.35458L6.98999 5.31184C6.63843 4.94929 6.06637 4.92699 5.68768 5.26119L3.06757 7.5728V3.5558C3.06757 3.20666 3.35157 2.92267 3.7006 2.92267H13.2042C13.5534 2.92267 13.8374 3.20666 13.8374 3.5558ZM13.8374 10.5194C13.8374 10.8686 13.5534 11.1526 13.2043 11.1526H3.7006C3.41705 11.1526 3.17634 10.965 3.09614 10.7075C3.07757 10.6481 3.06757 10.5849 3.06757 10.5195V8.32283L6.05989 5.68295C6.21293 5.54782 6.44408 5.55683 6.58624 5.70339L7.91821 7.07667C7.91821 7.07678 7.91821 7.07678 7.91832 7.07678L10.5694 9.81004C10.6246 9.86695 10.6978 9.89551 10.7713 9.89551C10.8419 9.89551 10.9125 9.86914 10.9671 9.81619C11.0785 9.70798 11.0813 9.53 10.9732 9.41849L10.3368 8.76239L11.8202 7.68168C11.9571 7.58192 12.1398 7.58346 12.2749 7.68552L13.8374 8.86577V10.5194ZM1.7578 9.2058V2.56528C1.7578 2.53705 1.75922 2.50903 1.76208 2.48157C1.80405 2.06882 2.15374 1.74571 2.57737 1.74571H6.01759C6.17294 1.74571 6.29884 1.61981 6.29884 1.46446C6.29884 1.30912 6.17294 1.18322 6.01759 1.18322H2.57737C1.81525 1.18322 1.1953 1.80317 1.1953 2.56528V8.78019C0.835942 8.71548 0.562495 8.4004 0.562495 8.02258V2.06288C0.562495 1.23562 1.23562 0.562495 2.06299 0.562495H10.5628C10.9361 0.562495 11.2482 0.829789 11.3178 1.18322H8.26757C8.11223 1.18322 7.98633 1.30912 7.98633 1.46446C7.98633 1.61981 8.11223 1.74571 8.26757 1.74571H11.6135H11.6139H11.7581C12.1292 1.74571 12.4399 2.00993 12.5119 2.36017H3.7006C3.04143 2.36017 2.50508 2.89652 2.50508 3.5558V8.19572V8.19594V9.97494C2.09101 9.96319 1.7578 9.62272 1.7578 9.2058Z" fill="#C35E9C"/>
<path d="M10.9268 4.06714C10.263 4.06714 9.72314 4.60711 9.72314 5.27068C9.72314 5.93436 10.2631 6.47433 10.9268 6.47433C11.5904 6.47433 12.1303 5.93436 12.1303 5.27068C12.1303 4.60711 11.5904 4.06714 10.9268 4.06714ZM10.9268 5.91184C10.5733 5.91184 10.2856 5.62422 10.2856 5.27079C10.2856 4.91725 10.5733 4.62963 10.9268 4.62963C11.2802 4.62963 11.5678 4.91725 11.5678 5.27079C11.5678 5.62422 11.2802 5.91184 10.9268 5.91184Z" fill="#C35E9C"/>
<path d="M6.88297 1.57218C6.89 1.5891 6.89868 1.60536 6.90879 1.62063C6.91901 1.63601 6.93076 1.6504 6.94372 1.66337C6.95669 1.67622 6.97097 1.68808 6.98646 1.69852C7.00162 1.70863 7.01821 1.71731 7.03513 1.72434C7.05194 1.73137 7.06974 1.73675 7.08775 1.74038C7.10566 1.744 7.12423 1.74576 7.14258 1.74576C7.16114 1.74576 7.17938 1.744 7.19773 1.74038C7.21563 1.73675 7.2331 1.73137 7.25024 1.72434C7.26716 1.71731 7.28342 1.70863 7.29869 1.69852C7.31407 1.68808 7.32846 1.67622 7.34143 1.66337C7.35461 1.6504 7.36615 1.63601 7.37658 1.62063C7.38669 1.60536 7.39537 1.5891 7.4024 1.57218C7.40943 1.55504 7.41481 1.53735 7.41844 1.51967C7.42207 1.50132 7.42382 1.48275 7.42382 1.46451C7.42382 1.44617 7.42207 1.4276 7.41844 1.40969C7.41481 1.39168 7.40943 1.37388 7.4024 1.35707C7.39537 1.33993 7.38669 1.32356 7.37658 1.3084C7.36615 1.29291 7.35461 1.27863 7.34143 1.26566C7.32846 1.2527 7.31407 1.24094 7.29869 1.23073C7.28342 1.22062 7.26716 1.21194 7.25024 1.20491C7.2331 1.19788 7.21563 1.1925 7.19773 1.18887C7.16136 1.18151 7.12401 1.18151 7.08775 1.18887C7.06974 1.1925 7.05194 1.19788 7.03513 1.20491C7.01821 1.21194 7.00162 1.22062 6.98646 1.23073C6.97097 1.24094 6.95669 1.2527 6.94372 1.26566C6.93076 1.27863 6.91901 1.29291 6.90879 1.3084C6.89868 1.32356 6.89 1.33993 6.88297 1.35707C6.87594 1.37388 6.87056 1.39168 6.86693 1.40969C6.86331 1.4276 6.86133 1.44617 6.86133 1.46451C6.86133 1.48275 6.86331 1.50132 6.86693 1.51967C6.87056 1.53735 6.87594 1.55504 6.88297 1.57218Z" fill="#C35E9C"/>
</svg>
