<svg width="134" height="132" viewBox="0 0 134 132" fill="none" xmlns="http://www.w3.org/2000/svg">
<mask id="mask0_1056_1201" style="mask-type:alpha" maskUnits="userSpaceOnUse" x="0" y="0" width="134" height="132">
<rect x="0.420898" y="0.502441" width="133.101" height="131.402" fill="#D9D9D9"/>
</mask>
<g mask="url(#mask0_1056_1201)">
<path d="M94.1468 18.5307C94.4398 18.0777 95.3702 16.4324 94.8186 15.8175C94.4189 15.3722 93.3878 15.6256 92.6812 15.3378C91.9555 15.0422 91.4204 13.8717 90.4566 13.7588C89.5848 13.6567 89.0655 14.4279 88.1274 14.605C86.88 14.8404 85.8198 14.027 84.9083 14.5613C84.1573 15.0018 84.0608 15.8823 83.4691 16.594C82.7798 17.4227 81.8914 17.4933 81.5583 18.3649C81.1993 19.3047 81.8375 20.1446 81.5847 21.0431C81.3208 21.9801 80.8781 22.1462 80.9128 22.7879C80.9533 23.5339 81.7839 23.6301 81.8464 24.4454C81.8932 25.0564 81.2791 25.6406 81.4625 26.3734C81.6932 27.296 82.914 28.3456 84.8823 28.4235C87.6783 28.5342 89.8343 25.1996 94.1468 18.5307Z" fill="#363E44"/>
<path d="M87.281 13.2354C87.1743 14.0522 86.1084 14.3938 85.7047 15.0609C85.2908 15.7449 85.8984 17.4026 85.2511 17.8708C84.6138 18.3321 83.2184 17.2438 82.4316 17.4389C81.6802 17.6251 80.9119 18.507 80.0926 18.3999C79.2734 18.2927 79.0585 17.2822 78.3803 16.9089C77.6703 16.5182 76.0419 17.211 75.5444 16.6012C75.0396 15.9823 76.053 14.5366 75.8288 13.7691C75.6103 13.0206 74.8912 12.8657 74.9979 12.0489C75.1047 11.2321 75.9438 10.4718 76.3475 9.8047C76.7614 9.12066 76.5143 7.91102 77.1614 7.44276C77.7989 6.98145 78.8339 7.62165 79.6205 7.42669C80.3718 7.24048 81.0849 5.61236 81.9041 5.71954C82.7234 5.82665 82.9936 7.58337 83.6717 7.95662C84.382 8.34733 85.5275 8.01946 86.0248 8.62916C86.5297 9.24816 85.999 10.3289 86.2233 11.0964C86.4419 11.8449 87.3878 12.4186 87.281 13.2354Z" fill="#363E44"/>
<path d="M76.5697 19.4027C76.4495 19.4027 76.3352 19.3783 76.2286 19.3204C75.8057 19.0907 75.7515 18.484 75.6994 17.8974C75.6619 17.4781 75.6232 17.0448 75.4525 16.8306C75.2908 16.6279 75.0973 16.5288 74.8923 16.4242C74.5892 16.2695 74.2757 16.1095 74.1477 15.6257C74.0078 15.0965 74.1803 14.479 74.3326 13.934C74.4026 13.6841 74.4686 13.4478 74.5016 13.237C74.5438 12.9684 74.4629 12.6409 74.3846 12.3243C74.2658 11.8439 74.1429 11.347 74.3965 10.9387C74.6435 10.5407 75.1262 10.4412 75.5929 10.345C75.9149 10.2785 76.248 10.2099 76.4747 10.0441C76.6838 9.89097 76.8252 9.48803 76.9617 9.09829C77.1595 8.53427 77.3641 7.95089 77.8442 7.82383C78.3248 7.69706 78.7911 8.10265 79.242 8.49504C79.5534 8.76616 79.8756 9.04638 80.1328 9.07607C80.4109 9.10679 80.7322 9.00892 81.0422 8.91315C81.4948 8.77335 81.9624 8.62883 82.374 8.8526C82.7966 9.08229 82.9382 9.56758 83.0752 10.037C83.1648 10.3447 83.2578 10.6629 83.4269 10.8752C83.5871 11.0762 83.8372 11.2225 84.1017 11.3776C84.5109 11.6171 84.934 11.8651 85.0628 12.3506C85.1915 12.8369 84.9474 13.2716 84.7114 13.6919C84.5604 13.9612 84.4176 14.2156 84.3779 14.469C84.3355 14.7393 84.5161 15.135 84.6909 15.5177C84.9356 16.0536 85.1888 16.6078 84.9349 17.0167C84.6866 17.4163 84.0852 17.4395 83.5037 17.4619C83.0751 17.4784 82.6319 17.4955 82.4047 17.6618C82.1995 17.8119 82.0212 18.0558 81.8325 18.3141C81.531 18.7266 81.2192 19.1532 80.7353 19.2812C80.2563 19.4076 79.8703 19.1769 79.4966 18.9534C79.2437 18.8022 79.0048 18.6594 78.7468 18.6297C78.4702 18.5982 78.0735 18.8018 77.6929 18.9995C77.3093 19.1986 76.916 19.4027 76.5697 19.4027ZM78.0256 8.12193C77.9918 8.12193 77.9587 8.12603 77.9266 8.13446C77.6108 8.21797 77.4349 8.71954 77.265 9.20466C77.1052 9.6606 76.9541 10.0915 76.6646 10.3033C76.3814 10.5106 76.0135 10.5864 75.6578 10.6596C75.2392 10.7459 74.8438 10.8275 74.6695 11.1082C74.4874 11.4014 74.589 11.8122 74.6965 12.2473C74.7824 12.5948 74.8713 12.9541 74.8192 13.2867C74.7833 13.5163 74.7147 13.7612 74.6422 14.0207C74.494 14.5507 74.3406 15.0989 74.4583 15.5435C74.5496 15.8886 74.7547 15.9932 75.0383 16.1381C75.2542 16.2483 75.499 16.3732 75.7039 16.6304C75.9347 16.92 75.9776 17.4023 76.0193 17.8688C76.064 18.371 76.1106 18.8905 76.382 19.038C76.6456 19.1818 77.1028 18.9439 77.5449 18.7143C77.9682 18.4943 78.4078 18.2677 78.7834 18.3106C79.1102 18.3481 79.3904 18.5157 79.6616 18.6777C80.007 18.884 80.3055 19.0624 80.6532 18.9705C81.027 18.8716 81.3045 18.4918 81.5731 18.1243C81.7679 17.8578 81.9696 17.5821 82.2149 17.4026C82.5215 17.1783 83.0144 17.1593 83.4912 17.141C83.9891 17.1216 84.5037 17.1019 84.6619 16.8472C84.8248 16.5846 84.6081 16.1101 84.3986 15.6512C84.2042 15.2254 84.003 14.785 84.0603 14.419C84.1092 14.1087 84.273 13.8169 84.4313 13.5346C84.6452 13.1534 84.8475 12.7932 84.7521 12.4329C84.6575 12.0753 84.3086 11.871 83.9393 11.6548C83.6611 11.4918 83.3732 11.3233 83.1755 11.0754C82.9671 10.8136 82.8652 10.4646 82.7667 10.127C82.6427 9.70204 82.5255 9.30071 82.2205 9.13501C81.9279 8.97592 81.5437 9.09439 81.1371 9.22006C80.7956 9.32563 80.4424 9.43502 80.0962 9.39514C79.7399 9.35437 79.3954 9.05472 79.0309 8.73742C78.6827 8.43433 78.3239 8.12193 78.0256 8.12193Z" fill="#363E44"/>
<path d="M89.7874 43.0924C87.8521 43.0924 86.2834 41.5237 86.2834 39.5886V30.6291C86.2834 28.694 87.8521 27.1254 89.7874 27.1254C91.7223 27.1254 93.291 28.694 93.291 30.6291V39.5886C93.291 41.5237 91.7223 43.0924 89.7874 43.0924Z" fill="#BC8271"/>
<path d="M90.3452 18.2103C90.6637 18.1794 93.7179 17.9294 95.5579 20.0179C96.927 21.572 97.0913 23.5667 96.8611 26.9542C96.59 30.9433 95.8809 32.8044 94.7326 33.5917C92.9181 34.8358 87.4713 32.5391 85.4269 29.056C83.9511 26.5419 84.1193 23.3038 85.6791 20.8166C87.2345 18.3364 90.1419 18.23 90.3452 18.2103Z" fill="#BC8271"/>
<path d="M90.3345 19.9352C91.1744 20.5403 91.512 21.825 91.0672 22.4477C90.5141 23.2219 89.0447 22.5628 88.607 23.2852C88.1591 24.0242 89.4876 25.0612 89.0258 26.1118C88.7113 26.8271 87.9196 26.7458 87.6127 27.4726C87.3231 28.1582 87.7111 28.9799 88.0837 29.5664C86.1414 28.365 85.7889 27.6255 85.8853 27.1586C86.0267 26.4752 86.955 26.3863 87.1415 25.6145C87.4024 24.5354 85.6546 23.7408 85.9376 22.7618C86.1683 21.9637 87.6174 21.9107 87.6649 21.1915C87.6868 20.8562 87.392 20.5681 87.1938 20.4063C88.0904 19.4543 89.4573 19.3032 90.3345 19.9352Z" fill="#363E44"/>
<path d="M96.1445 20.7859C95.0712 19.8961 92.5143 19.3856 90.0725 20.0923C86.0944 21.2439 85.257 25.3092 85.0479 26.2863C84.7286 26.6514 83.8955 26.3398 83.5767 26.705C82.9541 21.9243 84.9722 18.9507 88.1948 17.5234C91.1521 16.2138 94.0689 17.3321 94.6935 17.5879C95.5859 18.8536 95.8584 19.9912 96.1445 20.7859Z" fill="#EFBC73"/>
<path d="M93.2385 34.1902C91.4079 34.1902 88.9505 33.0711 87.1459 31.3927C87.0809 31.3323 87.0771 31.2306 87.1377 31.1657C87.1983 31.1007 87.3 31.0972 87.3647 31.1574C89.2031 32.8672 91.7258 33.9814 93.4964 33.8605C93.5841 33.8554 93.6615 33.9215 93.6675 34.0101C93.6733 34.0986 93.6062 34.1751 93.5178 34.1811C93.4264 34.1872 93.3332 34.1902 93.2385 34.1902Z" fill="#363E44"/>
<path d="M99.479 23.4042C99.479 23.4042 99.1388 24.5366 98.249 25.4092C98.0711 25.5837 97.1983 23.6372 97.5691 23.5398C98.5779 23.2746 99.479 23.4042 99.479 23.4042Z" fill="white"/>
<path d="M94.6217 26.5039C94.6217 26.5039 96.3065 26.7463 97.6478 25.8903C97.8732 25.7466 98.074 25.5807 98.2527 25.4048C98.2681 25.3033 98.2784 25.2004 98.2784 25.0947C98.2784 24.4748 98.0057 23.9197 97.5757 23.5386C97.2029 23.6359 96.8156 23.7865 96.453 24.0178C95.1116 24.8739 94.6217 26.5039 94.6217 26.5039Z" fill="#363E44"/>
<path d="M90.6859 25.0505C91.9715 25.5583 92.7665 26.6876 92.7665 26.6876C92.7665 26.6876 91.9283 27.1075 90.8651 27.1654C90.4959 27.1854 90.5442 24.9946 90.6859 25.0505Z" fill="white"/>
<path d="M90.6855 25.0508C90.5439 24.9949 90.3965 24.9462 90.2434 24.9076C88.7002 24.5195 87.1785 25.2818 87.1785 25.2818C87.1785 25.2818 88.1584 26.6737 89.7014 27.0618C90.1001 27.1622 90.4972 27.1852 90.8669 27.1649C91.1923 26.4913 91.1348 25.6776 90.6855 25.0508Z" fill="#363E44"/>
<path d="M85.7542 25.0541C85.2829 24.8695 84.7738 24.859 84.3189 25.074C83.3386 25.5375 82.9884 26.8535 83.5368 28.0133C83.9864 28.9641 84.8998 29.5129 85.7542 29.425V25.0541Z" fill="#BC8271"/>
<path d="M84.5301 27.9676C84.4796 27.9676 84.4294 27.9437 84.3983 27.899C84.1528 27.5477 84.0621 27.063 84.1671 26.6644C84.2518 26.3427 84.4493 26.0997 84.7383 25.9618C84.818 25.9232 84.9142 25.9575 84.9524 26.0375C84.9907 26.1176 84.9568 26.2134 84.8767 26.2518C84.6227 26.373 84.5196 26.5875 84.4779 26.7462C84.396 27.0576 84.468 27.4377 84.6617 27.7148C84.7124 27.7876 84.6948 27.8877 84.6222 27.9386C84.5941 27.9582 84.5619 27.9676 84.5301 27.9676Z" fill="#363E44"/>
<path d="M94.8937 28.7672C94.8631 28.7672 94.8322 28.7585 94.805 28.7404C94.731 28.6911 94.711 28.5915 94.7601 28.5175C94.8616 28.365 94.9017 28.2269 94.8792 28.1071C94.8577 27.9913 94.7842 27.9199 94.645 27.7931C94.5416 27.6991 94.4127 27.5816 94.2924 27.4093C94.139 27.1897 94.0348 26.9318 93.9833 26.6425C93.9678 26.5551 94.0261 26.4715 94.1133 26.4561C94.2022 26.4403 94.2842 26.4987 94.2997 26.586C94.3431 26.8292 94.4291 27.0442 94.5557 27.2253C94.6555 27.3682 94.7603 27.4635 94.8615 27.5556C95.0114 27.6922 95.1529 27.8211 95.1952 28.0485C95.2335 28.2532 95.1771 28.4712 95.0278 28.6954C94.9966 28.7421 94.9457 28.7672 94.8937 28.7672Z" fill="#363E44"/>
<path d="M93.756 30.7095C93.622 30.7095 93.4749 30.6903 93.3204 30.6387C92.7914 30.4626 92.553 30.0292 92.4926 29.9003C92.455 29.82 92.4896 29.7244 92.5698 29.6866C92.6502 29.6487 92.7458 29.6835 92.7836 29.7639C92.8303 29.8632 93.0142 30.1982 93.4218 30.3339C93.7873 30.4559 94.1019 30.3423 94.22 30.2882C94.3011 30.2507 94.3962 30.2863 94.433 30.3669C94.4703 30.4476 94.4348 30.5429 94.3542 30.58C94.251 30.6274 94.0327 30.7095 93.756 30.7095Z" fill="#363E44"/>
<path d="M60.5992 50.9209C60.5992 50.9209 70.8027 38.1476 89.4402 37.678C107.446 37.2245 128.806 44.4319 128.806 44.4319L122.578 57.3605L104.567 56.4169C104.567 56.4169 99.7638 66.6596 101.113 70.7066C102.683 75.4174 106.766 83.1117 106.766 83.1117L71.9054 83.2688C71.9054 83.2688 78.1865 72.2768 78.3435 70.2354C78.5006 68.1941 74.2609 56.888 74.2609 56.888L64.9438 63.6053L60.5992 50.9209Z" fill="#F4C4B7"/>
<path d="M89.1784 70.0453H89.1754C89.0868 70.0438 89.016 69.9707 89.0177 69.8819L89.1747 60.7742C89.1763 60.6856 89.2527 60.6148 89.3384 60.6165C89.4269 60.618 89.4977 60.6911 89.4961 60.7798L89.339 69.8875C89.3376 69.9752 89.2659 70.0453 89.1784 70.0453Z" fill="#363E44"/>
<path d="M94.2037 80.603C94.1942 80.603 94.1849 80.6021 94.1751 80.6004C94.088 80.5848 94.0296 80.5014 94.0453 80.414C94.432 78.2447 94.6954 76.032 94.8282 73.8373C95.0357 70.4053 94.9305 66.9281 94.5147 63.5024C94.5045 63.4144 94.567 63.3343 94.6551 63.3235C94.7445 63.3137 94.8233 63.3757 94.8341 63.4638C95.2518 66.9086 95.3575 70.4055 95.149 73.8568C95.0157 76.0638 94.7508 78.289 94.3617 80.4706C94.348 80.5483 94.2801 80.603 94.2037 80.603Z" fill="#363E44"/>
<path d="M83.6824 79.6608C83.6039 79.6608 83.5357 79.6036 83.5236 79.5239C83.0867 76.6152 82.8218 73.6499 82.7368 70.7111C82.6657 68.2541 82.7186 65.7655 82.8943 63.3146C82.9006 63.2261 82.9792 63.1605 83.0661 63.1658C83.1545 63.1722 83.2211 63.249 83.2145 63.3375C83.04 65.7777 82.9872 68.2554 83.058 70.7017C83.1429 73.6279 83.4063 76.58 83.8414 79.4762C83.8548 79.5639 83.7941 79.6459 83.7065 79.6591C83.6983 79.66 83.6902 79.6608 83.6824 79.6608Z" fill="#363E44"/>
<path d="M89.1305 72.4433C89.1109 72.4433 89.0912 72.4397 89.0718 72.4322C88.7738 72.3153 88.5813 72.0124 88.604 71.6953C88.6278 71.3626 88.8751 71.0871 89.2058 71.0255C89.2944 71.0099 89.3771 71.0669 89.3934 71.1538C89.4096 71.2411 89.352 71.3251 89.265 71.3415C89.0777 71.3763 88.9378 71.5313 88.9243 71.7183C88.9116 71.8963 89.0206 72.067 89.1891 72.1332C89.2718 72.1654 89.3126 72.2586 89.28 72.3414C89.2552 72.4046 89.1947 72.4433 89.1305 72.4433Z" fill="#363E44"/>
<path d="M56.623 15.3081C56.5835 15.3081 56.5438 15.2936 56.5129 15.2643C56.4483 15.2035 56.4453 15.1018 56.5061 15.0371L60.6383 10.6571L58.2466 8.49725L54.3091 13.053C54.251 13.1198 54.1495 13.1272 54.0824 13.0695C54.0154 13.0114 54.0079 12.9099 54.066 12.8428L58.2183 8.03882L61.0973 10.6386L56.7399 15.2577C56.7083 15.2911 56.6657 15.3081 56.623 15.3081Z" fill="#363E44"/>
<path d="M59.5529 9.51287C59.5145 9.51287 59.476 9.49923 59.4453 9.47145C59.3794 9.41199 59.3743 9.3103 59.4337 9.24453L67.2807 0.555507C67.3403 0.489449 67.4419 0.484464 67.5076 0.543923C67.5734 0.603382 67.5785 0.705071 67.5191 0.770762L59.6722 9.45986C59.6406 9.49498 59.5968 9.51287 59.5529 9.51287Z" fill="#363E44"/>
<path d="M55.9038 14.5575C55.8653 14.5575 55.8268 14.5438 55.796 14.516C55.7303 14.4566 55.7252 14.3549 55.7846 14.2891L59.8437 9.79448C59.9029 9.72859 60.0046 9.72308 60.0706 9.78291C60.1364 9.84238 60.1416 9.94398 60.0821 10.0097L56.023 14.5045C55.9914 14.5396 55.9476 14.5575 55.9038 14.5575Z" fill="#363E44"/>
<path d="M55.0051 13.7458C54.9667 13.7458 54.9281 13.7322 54.8976 13.7044C54.8316 13.6449 54.8264 13.5432 54.8859 13.4775L58.945 8.98284C59.0042 8.91694 59.1058 8.91144 59.172 8.97127C59.2378 9.03072 59.243 9.13235 59.1834 9.1981L55.1244 13.6928C55.0928 13.7279 55.049 13.7458 55.0051 13.7458Z" fill="#363E44"/>
<rect x="40.3489" y="15.9811" width="2.92617" height="2.92617" transform="rotate(-70.9544 40.3489 15.9811)" fill="white"/>
<rect x="47.0315" y="19.2642" width="2.9262" height="2.92619" transform="rotate(-29.9999 47.0315 19.2642)" fill="white"/>
<rect x="53.1675" y="18.3876" width="2.9262" height="2.92619" transform="rotate(-29.9999 53.1675 18.3876)" fill="white"/>
<rect x="59.5088" y="17.7111" width="2.92617" height="2.92617" transform="rotate(-74.6281 59.5088 17.7111)" fill="white"/>
<path d="M46.0514 18.1102C45.7517 18.8562 44.5297 19.0677 43.322 18.5826C42.1143 18.0975 41.3781 17.0996 41.6776 16.3537C41.9773 15.6077 43.1992 15.3962 44.407 15.8813C45.6148 16.3663 46.3509 17.3642 46.0514 18.1102Z" fill="#D87355"/>
<path d="M53.1896 14.6398C53.6317 15.3113 53.1088 16.4358 52.0218 17.1515C50.9345 17.8672 49.6951 17.903 49.253 17.2316C48.811 16.5602 49.3339 15.4357 50.421 14.72C51.508 14.0043 52.7477 13.9684 53.1896 14.6398Z" fill="#D87355"/>
<path d="M56.9864 15.3615C57.7802 15.235 58.5899 16.1744 58.7947 17.4597C58.9997 18.745 58.5223 19.8895 57.7284 20.016C56.9345 20.1426 56.1247 19.2032 55.9199 17.9179C55.715 16.6326 56.1925 15.488 56.9864 15.3615Z" fill="#D87355"/>
<path d="M40.9225 17.499C40.9225 18.4137 40.1809 19.1554 39.2661 19.1554C38.3514 19.1554 37.6097 18.4137 37.6097 17.499C37.6097 16.5842 38.3514 15.8427 39.2661 15.8427C40.1809 15.8427 40.9225 16.5842 40.9225 17.499Z" fill="#8B865C"/>
<path d="M44.4286 14.8694C44.4286 15.7841 43.6871 16.5257 42.7723 16.5257C41.8575 16.5257 41.116 15.7841 41.116 14.8694C41.116 13.9546 41.8575 13.213 42.7723 13.213C43.6871 13.213 44.4286 13.9546 44.4286 14.8694Z" fill="#8B865C"/>
<path d="M53.1944 17.499C53.1944 18.4137 52.4528 19.1554 51.5381 19.1554C50.6233 19.1554 49.8817 18.4137 49.8817 17.499C49.8817 16.5842 50.6233 15.8427 51.5381 15.8427C52.4528 15.8427 53.1944 16.5842 53.1944 17.499Z" fill="#8B865C"/>
<path d="M57.5773 15.7459C57.5773 16.6607 56.8357 17.4023 55.9209 17.4023C55.0062 17.4023 54.2645 16.6607 54.2645 15.7459C54.2645 14.8312 55.0062 14.0896 55.9209 14.0896C56.8357 14.0896 57.5773 14.8312 57.5773 15.7459Z" fill="#8B865C"/>
<path d="M57.6741 19.3161C56.672 19.3161 55.8569 18.501 55.8569 17.4989C55.8569 16.497 56.672 15.6819 57.6741 15.6819C58.676 15.6819 59.4911 16.497 59.4911 17.4989C59.4911 18.501 58.676 19.3161 57.6741 19.3161ZM57.6741 16.0032C56.8493 16.0032 56.1783 16.6741 56.1783 17.4989C56.1783 18.3238 56.8493 18.9947 57.6741 18.9947C58.4988 18.9947 59.1698 18.3238 59.1698 17.4989C59.1698 16.6741 58.4988 16.0032 57.6741 16.0032Z" fill="#8B865C"/>
<path d="M41.8959 18.4394C40.8939 18.4394 40.0789 17.6243 40.0789 16.6223C40.0789 15.6204 40.8939 14.8053 41.8959 14.8053C42.8978 14.8053 43.7128 15.6204 43.7128 16.6223C43.7128 17.6243 42.8978 18.4394 41.8959 18.4394ZM41.8959 15.1266C41.0711 15.1266 40.4002 15.7976 40.4002 16.6223C40.4002 17.4472 41.0711 18.1181 41.8959 18.1181C42.7205 18.1181 43.3915 17.4472 43.3915 16.6223C43.3915 15.7976 42.7205 15.1266 41.8959 15.1266Z" fill="#8B865C"/>
<rect x="47.7997" y="16.2968" width="2.92617" height="2.92617" transform="rotate(-1.33667 47.7997 16.2968)" fill="white"/>
<path d="M42.7337 13.8973C42.7547 13.0936 43.8264 12.4698 45.1275 12.5039C46.4286 12.5379 47.4663 13.2169 47.4452 14.0206C47.4242 14.8242 46.3524 15.448 45.0513 15.414C43.7503 15.3799 42.7126 14.7009 42.7337 13.8973Z" fill="#D87355"/>
<path d="M54.0615 13.0494C54.4378 13.8832 55.4187 14.254 56.2525 13.8776C57.0864 13.5013 57.4571 12.5203 57.0808 11.6865C56.7044 10.8527 55.7236 10.4819 54.8897 10.8582C54.056 11.2346 53.6852 12.2156 54.0615 13.0494Z" fill="#8B865C"/>
<path d="M57.0941 15.422C56.4014 15.422 55.7385 15.024 55.4353 14.3526C55.2356 13.9103 55.2202 13.4168 55.3919 12.9626C55.5635 12.5086 55.9016 12.1487 56.344 11.9491C56.7863 11.7494 57.28 11.734 57.734 11.9055C58.188 12.0771 58.548 12.4153 58.7477 12.8577C59.1598 13.7709 58.7522 14.849 57.8391 15.2612C57.5972 15.3704 57.3438 15.422 57.0941 15.422ZM55.7282 14.2205C56.0676 14.9722 56.9552 15.308 57.7068 14.9685C58.4585 14.6291 58.794 13.7415 58.4547 12.9898C58.2904 12.6257 57.994 12.3473 57.6204 12.2061C57.2467 12.065 56.8403 12.0776 56.4762 12.2419C56.1119 12.4063 55.8336 12.7025 55.6923 13.0763C55.5512 13.45 55.5638 13.8563 55.7282 14.2205Z" fill="#8B865C"/>
<path d="M55.2066 11.466C54.8569 10.7422 53.6235 10.6145 52.4514 11.1808C51.2797 11.7471 50.6133 12.7929 50.9629 13.5168C51.3128 14.2406 52.5462 14.3682 53.7182 13.8019C54.89 13.2356 55.5566 12.1898 55.2066 11.466Z" fill="#D87355"/>
<path d="M47.7543 12.6839C47.4357 11.8264 47.8725 10.873 48.7301 10.5543C49.5876 10.2358 50.541 10.6726 50.8596 11.5301C51.1782 12.3876 50.7414 13.3411 49.8838 13.6596C49.0263 13.9782 48.0729 13.5414 47.7543 12.6839Z" fill="#8B865C"/>
<path d="M45.3834 16.3702C45.0648 15.5126 45.5017 14.5592 46.3593 14.2406C47.2167 13.9221 48.1702 14.3589 48.4887 15.2164C48.8074 16.0739 48.3704 17.0273 47.513 17.3459C46.6555 17.6645 45.7021 17.2276 45.3834 16.3702Z" fill="#8B865C"/>
<path d="M47.1462 15.6626C46.8885 15.6626 46.6316 15.607 46.3903 15.4963C45.9491 15.2943 45.613 14.9323 45.4439 14.4775C45.095 13.5383 45.5752 12.4902 46.5144 12.1413C47.4535 11.7928 48.5016 12.2726 48.8505 13.2117C49.0196 13.6667 49.0012 14.1602 48.7991 14.6016C48.5968 15.0427 48.2349 15.3788 47.78 15.5478C47.5738 15.6244 47.3597 15.6626 47.1462 15.6626ZM47.1456 12.3488C46.9728 12.3488 46.7973 12.3789 46.6263 12.4425C45.8532 12.7298 45.4579 13.5924 45.7452 14.3654C45.8843 14.7399 46.1609 15.0379 46.5241 15.2044C46.8874 15.3708 47.2936 15.3857 47.668 15.2465C48.0427 15.1075 48.3405 14.8308 48.507 14.4677C48.6734 14.1045 48.6884 13.6981 48.5493 13.3238C48.3256 12.7218 47.753 12.3488 47.1456 12.3488Z" fill="#8B865C"/>
<path d="M44.7258 30.3501H53.1686C58.4071 28.5947 62.1887 23.6625 62.2255 17.8417H35.6689C35.7058 23.6625 39.4873 28.5947 44.7258 30.3501Z" fill="#363E44"/>
<path d="M65.4923 63.2862C72.5338 58.7433 63.5287 39.3547 60.9551 33.5299C60.8682 32.6345 60.4956 29.3367 59.3925 28.3368C57.9219 27.0042 55.9459 26.223 55.9459 26.223C55.9459 26.223 50.9765 22.8153 50.1094 23.4655C49.1904 24.155 52.1775 26.8663 52.1775 26.8663C52.1775 26.8663 47.7199 23.1439 46.7087 23.8792C45.6562 24.6447 49.6959 28.0611 49.6959 28.0611C49.6959 28.0611 44.2271 24.7523 43.3539 25.7175C42.4808 26.6825 47.0764 29.302 47.0764 29.302C47.0764 29.302 41.3325 27.4566 40.7346 28.6126C40.0452 29.9454 46.7184 31.4757 47.49 32.0593C47.7648 32.5815 48.8803 34.9382 49.558 37.2523C51.5914 44.1947 54.2401 55.9702 54.8682 58.4093C56.5349 62.6621 61.7008 65.7322 65.4923 63.2862Z" fill="#F4C4B7"/>
<path d="M67.9893 58.2541C67.9873 58.2541 67.9851 58.2541 67.9829 58.2539C67.8943 58.2505 67.8253 58.1757 67.8287 58.0872C67.9555 54.8567 67.1853 50.3636 65.7683 46.0683C65.7404 45.984 65.7863 45.8932 65.8704 45.8654C65.955 45.8367 66.0455 45.8835 66.0734 45.9676C68.1323 52.2086 68.2113 56.531 68.1497 58.0997C68.1464 58.1863 68.0752 58.2541 67.9893 58.2541Z" fill="#363E44"/>
<path d="M73.3186 54.5325C73.2422 56.1009 76.8879 67.0021 77.5061 66.8854C83.0544 65.8386 95.1457 65.9956 101.165 67.1646C101.649 67.2586 104.842 56.7295 104.777 55.2129C104.515 49.1412 96.3495 43.8022 95.4597 43.0694C94.8597 42.5752 83.963 42.7326 83.6825 42.9123C82.3217 43.7848 73.5979 48.8097 73.3186 54.5325Z" fill="#5479F7"/>
<path d="M95.0932 43.9259C95.0776 43.9259 95.0616 43.9237 95.046 43.9189C94.9611 43.8926 94.9135 43.8027 94.9397 43.7179L96.8022 37.6628C96.8283 37.5783 96.918 37.5307 97.0029 37.5564C97.0878 37.5826 97.1353 37.6725 97.1093 37.7573L95.2467 43.8125C95.2255 43.8815 95.1618 43.9259 95.0932 43.9259Z" fill="#5479F7"/>
<path d="M93.3137 44.0152C93.3011 44.0152 93.2883 44.0138 93.2755 44.0106C93.1893 43.9894 93.1366 43.9025 93.1576 43.8163L94.6798 37.5934C94.7009 37.507 94.7885 37.454 94.8739 37.4755C94.9603 37.4967 95.013 37.5836 94.992 37.6697L93.4697 43.8926C93.4516 43.9661 93.3861 44.0152 93.3137 44.0152Z" fill="#5479F7"/>
<path d="M84.0471 44.0429C83.9772 44.0429 83.9128 43.9968 83.8928 43.926L82.3226 38.3901C82.2986 38.3046 82.3479 38.2159 82.4335 38.1918C82.5178 38.167 82.6075 38.2171 82.6317 38.3026L84.2019 43.8385C84.2262 43.9238 84.1767 44.0127 84.091 44.0368C84.0765 44.0411 84.0619 44.0429 84.0471 44.0429Z" fill="#5479F7"/>
<path d="M85.827 44.1322C85.7547 44.1322 85.6889 44.0829 85.6711 44.0093L84.2055 37.9374C84.1845 37.8512 84.2377 37.7644 84.3239 37.7436C84.4091 37.7221 84.4971 37.7758 84.5175 37.8621L85.9832 43.9339C86.0042 44.0201 85.9511 44.107 85.8648 44.1277C85.8522 44.1308 85.8397 44.1322 85.827 44.1322Z" fill="#5479F7"/>
<path d="M118.94 49.3787C118.709 53.1467 118.554 61.7465 118.812 68.3169C119.082 75.2174 120.486 85.3658 121.904 85.1511C122.711 85.0288 122.805 83.6052 122.805 79.7831C122.999 79.9763 123.664 80.4274 124.394 80.191C125.475 79.8415 125.497 78.8806 125.532 78.7954C125.593 78.8661 126.262 79.6113 127.025 79.4999C127.885 79.3742 128.367 78.7954 128.543 78.1369C128.698 78.3081 129.333 78.8813 130.063 78.7524C130.814 78.6199 131.502 77.9365 131.459 77.142C131.38 75.6846 131.063 71.3577 131.165 69.2332C131.367 65.0524 135.577 47.3049 129.83 44.8312C124.855 42.6901 121.714 44.243 118.94 49.3787Z" fill="#F4C4B7"/>
<path d="M118.701 57.2299H118.699C118.61 57.2288 118.539 57.1558 118.541 57.0672C118.58 54.0085 118.667 51.2025 118.78 49.3688C118.785 49.2803 118.86 49.2152 118.95 49.2184C119.039 49.2238 119.106 49.2999 119.101 49.3887C118.988 51.2175 118.901 54.0176 118.862 57.0713C118.861 57.1594 118.789 57.2299 118.701 57.2299Z" fill="#363E44"/>
<path d="M120.358 78.009C120.283 78.009 120.217 77.9566 120.201 77.8804C120.183 77.7935 120.239 77.7087 120.326 77.691L121.459 77.4599C121.546 77.4418 121.631 77.4982 121.649 77.5853C121.667 77.6721 121.611 77.757 121.524 77.7746L120.391 78.0057C120.38 78.0079 120.369 78.009 120.358 78.009Z" fill="#363E44"/>
<path d="M123.234 77.427C123.159 77.427 123.093 77.3744 123.077 77.2985C123.059 77.2116 123.115 77.1266 123.202 77.1089L124.335 76.8778C124.422 76.8608 124.507 76.9162 124.525 77.0032C124.543 77.0902 124.487 77.1751 124.4 77.1928L123.267 77.4237C123.256 77.4258 123.245 77.427 123.234 77.427Z" fill="#363E44"/>
<path d="M126.169 76.8663C126.094 76.8663 126.027 76.8138 126.012 76.7376C125.994 76.6509 126.05 76.5658 126.137 76.5485L127.27 76.3175C127.357 76.2997 127.442 76.3558 127.459 76.4428C127.477 76.53 127.421 76.6146 127.334 76.6322L126.201 76.8632C126.19 76.8651 126.18 76.8663 126.169 76.8663Z" fill="#363E44"/>
<path d="M128.82 76.3037C128.745 76.3037 128.678 76.2512 128.663 76.1753C128.645 76.0883 128.701 76.0036 128.788 75.9856L129.921 75.7548C130.008 75.7378 130.093 75.793 130.111 75.88C130.128 75.9668 130.072 76.0518 129.985 76.0696L128.853 76.3005C128.842 76.3027 128.831 76.3037 128.82 76.3037Z" fill="#363E44"/>
<path d="M72.7868 81.3857C81.3419 81.4385 89.8969 81.4911 98.452 81.543C107.16 81.5956 114.305 81.6479 123.012 81.6998C121.86 91.9634 120.145 114.99 120.909 130.693C113.729 130.536 106.549 130.379 99.3686 130.222C95.855 122.056 92.3412 113.106 90.6609 103.527C89.6933 112.477 88.7256 121.428 87.7582 130.379H64.2317C62.7041 113.42 64.0791 96.9316 72.7868 81.3857Z" fill="#EFBC73"/>
<path d="M118.338 130.693C118.251 130.693 118.18 130.625 118.177 130.54C117.943 121.942 118.048 113.228 118.491 104.641C118.87 97.2983 119.504 89.8733 120.377 82.5721C120.387 82.4864 120.464 82.4248 120.555 82.4346C120.643 82.4446 120.706 82.5225 120.696 82.6087C119.825 89.9028 119.191 97.3208 118.812 104.656C118.37 113.236 118.264 121.942 118.498 130.532C118.501 130.619 118.431 130.691 118.342 130.693H118.338Z" fill="white"/>
<path d="M116.57 130.693C116.484 130.693 116.412 130.625 116.41 130.54C116.175 121.942 116.281 113.228 116.724 104.641C117.103 97.2983 117.737 89.8733 118.609 82.5721C118.62 82.4864 118.697 82.4248 118.788 82.4346C118.876 82.4446 118.939 82.5225 118.928 82.6087C118.057 89.9028 117.424 97.3208 117.045 104.656C116.602 113.236 116.497 121.942 116.731 130.532C116.734 130.619 116.664 130.691 116.575 130.693H116.57Z" fill="white"/>
<path d="M67.5999 130.998C67.5162 130.998 67.4456 130.933 67.4397 130.848C66.7146 120.449 67.5235 108.744 69.6588 98.7344C70.8618 93.096 73.9751 86.1898 76.0354 81.6199L76.2472 81.1495C76.2838 81.069 76.3783 81.0332 76.4597 81.0692C76.5406 81.1058 76.5766 81.2008 76.5402 81.2818L76.3282 81.752C74.2737 86.3094 71.1687 93.1966 69.973 98.8017C67.8437 108.783 67.0372 120.456 67.7604 130.826C67.7665 130.914 67.6996 130.991 67.6111 130.997C67.6074 130.997 67.6037 130.998 67.5999 130.998Z" fill="white"/>
<path d="M65.9933 130.998C65.9096 130.998 65.839 130.933 65.8331 130.848C65.108 120.449 65.9168 108.744 68.0522 98.7344C69.2551 93.096 72.3684 86.1898 74.4287 81.6199L74.6404 81.1495C74.6769 81.069 74.7718 81.0332 74.853 81.0692C74.9339 81.1058 74.97 81.2008 74.9336 81.2818L74.7216 81.752C72.667 86.3094 69.5621 93.1966 68.3662 98.8017C66.2368 108.783 65.4305 120.456 66.1537 130.826C66.16 130.914 66.093 130.991 66.0045 130.997C66.0009 130.997 65.997 130.998 65.9933 130.998Z" fill="white"/>
<path d="M73.429 78.9824C80.7354 80.0031 88.7245 80.7865 97.3157 81.1459C106.667 81.537 115.354 81.3679 123.258 80.8668C123.226 81.8787 123.193 82.8907 123.16 83.9026C115.759 84.7986 106.991 85.3048 97.1688 84.7925C87.907 84.3092 79.6762 83.0229 72.6948 81.4948C72.9396 80.6573 73.1843 79.8198 73.429 78.9824Z" fill="#FFD092"/>
<path d="M93.2132 94.0083C93.1256 94.0083 93.0541 93.9384 93.0526 93.8506L92.8432 82.754C92.8415 82.6653 92.9119 82.5922 93.0008 82.5903C93.0912 82.5897 93.1628 82.6594 93.1646 82.7479L93.3738 93.8446C93.3753 93.9334 93.305 94.0065 93.216 94.0083H93.2132Z" fill="white"/>
<path d="M92.9983 83.4563C92.6135 83.4563 92.3002 83.1416 92.3002 82.7549C92.3002 82.3679 92.6135 82.0532 92.9983 82.0532C93.3835 82.0532 93.6969 82.3679 93.6969 82.7549C93.6969 83.1416 93.3835 83.4563 92.9983 83.4563ZM92.9983 82.3746C92.7905 82.3746 92.6215 82.5452 92.6215 82.7549C92.6215 82.9642 92.7905 83.1349 92.9983 83.1349C93.2063 83.1349 93.3754 82.9642 93.3754 82.7549C93.3754 82.5452 93.2063 82.3746 92.9983 82.3746Z" fill="white"/>
<path d="M93.2134 94.8248C92.9436 94.8248 92.7249 94.6063 92.7249 94.3365V93.7084C92.7249 93.4386 92.9436 93.2197 93.2134 93.2197C93.4833 93.2197 93.7018 93.4386 93.7018 93.7084V94.3365C93.7018 94.6063 93.4833 94.8248 93.2134 94.8248Z" fill="white"/>
<path d="M96.4262 90.7949C96.3397 90.7949 96.2681 90.726 96.2657 90.6387L96.0565 82.7551C96.054 82.6665 96.124 82.5927 96.2126 82.5903H96.2171C96.3038 82.5903 96.3754 82.6595 96.3779 82.7467L96.5869 90.6302C96.5894 90.7188 96.5193 90.7927 96.4306 90.7949H96.4262Z" fill="white"/>
<path d="M96.2114 83.4563C95.8263 83.4563 95.5134 83.1416 95.5134 82.7549C95.5134 82.3679 95.8263 82.0532 96.2114 82.0532C96.5966 82.0532 96.9098 82.3679 96.9098 82.7549C96.9098 83.1416 96.5966 83.4563 96.2114 83.4563ZM96.2114 82.3746C96.0039 82.3746 95.8347 82.5452 95.8347 82.7549C95.8347 82.9642 96.0039 83.1349 96.2114 83.1349C96.4193 83.1349 96.5884 82.9642 96.5884 82.7549C96.5884 82.5452 96.4193 82.3746 96.2114 82.3746Z" fill="white"/>
<path d="M96.4265 91.6117C96.1566 91.6117 95.938 91.3929 95.938 91.1232V90.4949C95.938 90.2252 96.1566 90.0066 96.4265 90.0066C96.6962 90.0066 96.915 90.2252 96.915 90.4949V91.1232C96.915 91.3929 96.6962 91.6117 96.4265 91.6117Z" fill="white"/>
<path d="M3.90891 124.383C3.8235 124.383 3.75282 124.316 3.7485 124.23L1.59521 81.7233C1.35532 76.9877 3.01299 72.4782 6.26279 69.0254C9.51273 65.5725 13.9137 63.6452 18.6552 63.598L43.9413 63.3471C48.4634 63.2996 52.6927 65.0722 55.8356 68.3309C58.9785 71.5899 60.5944 75.8753 60.3856 80.398L58.3938 123.537C58.3899 123.622 58.3204 123.689 58.2354 123.69L3.91097 124.383H3.90891ZM44.1093 63.6676C44.0544 63.6676 43.9995 63.6678 43.9445 63.6684L18.6584 63.9195C14.0052 63.9655 9.6862 65.8571 6.49681 69.2457C3.3075 72.6342 1.6807 77.0596 1.91612 81.707L4.06163 124.059L58.0798 123.371L60.0647 80.3831C60.2693 75.9497 58.6852 71.7487 55.6044 68.554C52.5616 65.3989 48.4849 63.6676 44.1093 63.6676Z" fill="#84524D"/>
<path d="M61.609 123.496L7.28464 124.188L5.13134 81.6818C4.63999 71.9814 12.3202 63.8217 22.0324 63.7253L47.3186 63.4745C56.587 63.3823 64.0283 71.0981 63.6008 80.3571L61.609 123.496Z" fill="#D3BBA3"/>
<path d="M44.018 82.9989L21.8165 83.168L20.7479 73.4072L45.1485 73.165L44.018 82.9989Z" fill="#F2E6DC"/>
<path d="M32.2781 83.1152L33.4685 79.3433L34.5033 83.0933L32.2781 83.1152Z" fill="#363E44"/>
<path d="M33.2086 76.5139C33.1206 76.5139 33.0488 76.4431 33.048 76.3547L33.0191 73.439C33.0182 73.3505 33.0894 73.2777 33.1781 73.2769H33.1797C33.2677 73.2769 33.3395 73.3477 33.3404 73.4358L33.3693 76.3517C33.3702 76.4402 33.299 76.513 33.2102 76.5139H33.2086Z" fill="#363E44"/>
<path d="M35.0411 75.5748C34.953 75.5748 34.8812 75.5038 34.8805 75.4156L34.8606 73.4206C34.8597 73.332 34.9309 73.2593 35.0197 73.2583H35.0212C35.1093 73.2583 35.181 73.3293 35.1819 73.4175L35.2017 75.4125C35.2026 75.5012 35.1314 75.5739 35.0426 75.5748H35.0411Z" fill="#363E44"/>
<path d="M36.7384 76.4788C36.6503 76.4788 36.5785 76.4079 36.5777 76.3196L36.5487 73.4039C36.5478 73.3152 36.6191 73.2426 36.7078 73.2417H36.7094C36.7974 73.2417 36.8692 73.3126 36.8701 73.4008L36.8989 76.3165C36.8998 76.4052 36.8286 76.4778 36.7398 76.4788H36.7384Z" fill="#363E44"/>
<path d="M38.4173 75.5411C38.3293 75.5411 38.2574 75.4702 38.2567 75.382L38.2368 73.3871C38.236 73.2984 38.3073 73.2258 38.3959 73.2249H38.3975C38.4855 73.2249 38.5573 73.2957 38.5582 73.384L38.5778 75.3789C38.5788 75.4676 38.5075 75.5402 38.4188 75.5411H38.4173Z" fill="#363E44"/>
<path d="M40.1129 76.2916C40.0249 76.2916 39.9531 76.2206 39.9523 76.1324L39.9248 73.3702C39.9239 73.2814 39.9951 73.209 40.0839 73.208H40.0855C40.1735 73.208 40.2453 73.2787 40.2462 73.3671L40.2736 76.1293C40.2745 76.218 40.2033 76.2906 40.1145 76.2916H40.1129Z" fill="#363E44"/>
<path d="M41.795 75.6614C41.707 75.6614 41.6351 75.5904 41.6343 75.5022L41.613 73.3535C41.6121 73.265 41.6834 73.1923 41.7721 73.1914H41.7738C41.8616 73.1914 41.9335 73.2623 41.9343 73.3505L41.9556 75.499C41.9565 75.5875 41.8853 75.6603 41.7965 75.6614H41.795Z" fill="#363E44"/>
<path d="M24.6056 75.6782C24.5175 75.6782 24.4457 75.6074 24.445 75.519L24.4251 73.524C24.4242 73.4354 24.4955 73.3626 24.5842 73.3618H24.5857C24.6737 73.3618 24.7456 73.4327 24.7464 73.5209L24.7662 75.5159C24.7671 75.6046 24.6959 75.6771 24.6071 75.6782H24.6056Z" fill="#363E44"/>
<path d="M22.9252 76.4623C22.8371 76.4623 22.7654 76.3914 22.7646 76.3032L22.7356 73.3874C22.7347 73.2988 22.806 73.2262 22.8947 73.2253H22.8962C22.9843 73.2253 23.0561 73.2961 23.0569 73.3842L23.0859 76.3C23.0867 76.3886 23.0155 76.4613 22.9267 76.4623H22.9252Z" fill="#363E44"/>
<path d="M43.6425 76.2568C43.5545 76.2568 43.4827 76.1859 43.4819 76.0978L43.453 73.1819C43.4521 73.0933 43.5234 73.0207 43.6121 73.0198H43.6137C43.7017 73.0198 43.7734 73.0906 43.7743 73.1789L43.8032 76.0947C43.804 76.1832 43.7329 76.2559 43.6441 76.2568H43.6425Z" fill="#363E44"/>
<path d="M26.3029 76.5822C26.2149 76.5822 26.1431 76.5113 26.1423 76.4232L26.1133 73.5074C26.1125 73.4189 26.1837 73.3463 26.2724 73.3452H26.274C26.362 73.3452 26.4338 73.4161 26.4347 73.5042L26.4636 76.4201C26.4645 76.5087 26.3933 76.5813 26.3044 76.5822H26.3029Z" fill="#363E44"/>
<path d="M27.9817 75.6448C27.8936 75.6448 27.8219 75.5739 27.8211 75.4859L27.8013 73.4908C27.8004 73.4022 27.8717 73.3295 27.9603 73.3286H27.9619C28.05 73.3286 28.1217 73.3995 28.1226 73.4875L28.1424 75.4827C28.1433 75.5712 28.072 75.6439 27.9833 75.6448H27.9817Z" fill="#363E44"/>
<path d="M29.6774 76.3954C29.5894 76.3954 29.5175 76.3245 29.5167 76.2362L29.4893 73.474C29.4884 73.3852 29.5597 73.3127 29.6484 73.3118H29.65C29.738 73.3118 29.8097 73.3826 29.8106 73.4709L29.8381 76.2332C29.8389 76.3218 29.7677 76.3944 29.6789 76.3954H29.6774Z" fill="#363E44"/>
<path d="M31.3579 75.6113C31.2698 75.6113 31.1981 75.5404 31.1972 75.4521L31.1774 73.4571C31.1765 73.3683 31.2478 73.2957 31.3364 73.2949H31.338C31.426 73.2949 31.4978 73.3658 31.4987 73.4539L31.5185 75.449C31.5193 75.5376 31.4482 75.6104 31.3594 75.6113H31.3579Z" fill="#363E44"/>
<path d="M12.1594 120.618C12.0714 120.618 11.9995 120.546 11.9987 120.458L11.6743 87.7709C11.6739 87.7281 11.6905 87.6871 11.7203 87.6566C11.75 87.6262 11.7908 87.6091 11.8335 87.6084L33.0061 87.3984H33.0077C33.0957 87.3984 33.1675 87.4694 33.1683 87.5574L33.4927 120.245C33.4931 120.288 33.4766 120.329 33.4467 120.359C33.4168 120.39 33.3762 120.407 33.3336 120.407L12.161 120.618H12.1594ZM11.9972 87.9282L12.3185 120.295L33.1698 120.088L32.8485 87.7213L11.9972 87.9282Z" fill="#E6D0BE"/>
<path d="M36.4117 120.377C36.3237 120.377 36.2519 120.306 36.251 120.218L35.9266 87.5299C35.9262 87.4873 35.9427 87.4463 35.9726 87.4158C36.0024 87.3855 36.0432 87.3682 36.0858 87.3677L57.2584 87.1577H57.26C57.348 87.1577 57.4198 87.2285 57.4207 87.3167L57.745 120.004C57.7454 120.047 57.7289 120.088 57.699 120.118C57.6692 120.149 57.6285 120.166 57.5859 120.167L36.4133 120.377H36.4117ZM36.2495 87.6875L36.5708 120.054L57.4221 119.847L57.1009 87.4805L36.2495 87.6875Z" fill="#E6D0BE"/>
<path d="M34.1317 126.783C30.9657 125.326 29.0567 120.121 33.3155 116.589C35.576 114.714 38.9988 114.4 42.9573 111.823C50.9333 106.63 53.3729 100.743 55.5151 101.84C57.3102 102.76 56.9807 107.685 56.4333 110.387C54.8766 118.069 48.5388 122.719 46.1017 124.346C45.0645 125.038 39.1008 129.07 34.1317 126.783Z" fill="#363E44"/>
<path d="M51.9274 103.947C53.1987 102.242 54.5665 101.131 55.8257 101.695C57.2826 102.348 57.2831 104.453 56.8464 106.934C56.7209 106.065 56.2288 105.25 55.6978 105.112C55.125 104.963 54.4894 105.342 54.1382 105.971C54.3517 105.076 54.0503 104.187 53.4358 103.799C52.7556 103.371 52.0079 103.903 51.9274 103.947Z" fill="#8B865C"/>
<path d="M55.1628 103.162C55.1368 103.162 55.1104 103.156 55.0857 103.142C55.008 103.1 54.9793 103.002 55.022 102.924C55.5516 101.957 55.9031 100.864 56.0386 99.7629C56.2517 98.0311 55.9089 96.6176 55.5837 95.7369C55.5528 95.6537 55.5954 95.5612 55.6786 95.5306C55.7618 95.4997 55.8543 95.5423 55.8851 95.6255C56.2226 96.5397 56.5787 98.0062 56.3576 99.8019C56.2171 100.943 55.8528 102.076 55.3039 103.078C55.2747 103.132 55.2196 103.162 55.1628 103.162Z" fill="#8B865C"/>
<path d="M50.5606 106.866C50.2698 106.579 47.9748 110.424 42.9672 113.61C38.3501 116.548 34.7281 116.826 34.7823 117.246C34.844 117.724 39.6248 118.146 44.0049 115.356C48.5832 112.439 50.8835 107.185 50.5606 106.866Z" fill="#40484C"/>
<path d="M30.5345 101.696C31.2183 102.966 32.3828 105.54 32.4207 108.974C32.4665 113.115 28.0209 119.537 27.2615 120.777C28.9687 121.598 32.9596 121.289 34.6667 122.11C35.0321 120.679 36.4361 115.88 38.5799 113.512C42.2652 109.44 47.0766 108.784 48.4063 108.647C48.0765 107.89 45.7415 102.762 39.9226 101.021C35.3638 99.6572 31.5526 101.235 30.5345 101.696Z" fill="#776E42"/>
<path d="M50.4068 107.902C51.3277 105.987 50.5218 103.688 48.6067 102.767C47.8696 102.413 47.0761 102.316 46.3257 102.438C46.3524 102.393 46.3787 102.346 46.402 102.298C46.8695 101.326 46.4603 100.159 45.4882 99.6912C45.1541 99.5306 44.7974 99.4756 44.4537 99.5093C45.4311 97.2475 44.4567 94.5977 42.2158 93.5202C39.9177 92.4151 37.1592 93.3821 36.0542 95.6801C36.0371 95.716 36.0218 95.7521 36.0056 95.7879C35.0257 95.6473 34.0285 96.0927 33.4885 96.9567C33.4152 96.9151 33.3428 96.8725 33.2656 96.8354C31.4389 95.9569 29.2463 96.7259 28.3679 98.5525C27.4895 100.379 28.2583 102.572 30.0849 103.45C30.8237 103.805 31.6214 103.887 32.3688 103.743C32.1945 105.119 32.9002 106.512 34.2191 107.146C34.973 107.508 35.7948 107.557 36.5419 107.349C36.1599 108.73 36.8053 110.228 38.142 110.871C39.3417 111.448 40.7318 111.159 41.6119 110.255C41.846 110.484 42.1187 110.682 42.4302 110.831C43.7407 111.461 45.2734 111.078 46.1511 109.997C47.8439 110.353 49.6237 109.53 50.4068 107.902Z" fill="#9E9569"/>
<path d="M40.2597 111.119C39.7935 111.119 39.3234 111.017 38.8834 110.805C37.5773 110.177 36.8726 108.757 37.1378 107.355C36.402 107.5 35.6379 107.406 34.9606 107.08C33.6765 106.462 32.9082 105.133 33 103.724C32.2537 103.828 31.5062 103.711 30.8265 103.384C29.9043 102.941 29.21 102.165 28.8715 101.199C28.533 100.234 28.5908 99.1944 29.0341 98.2723C29.4797 97.3455 30.1355 96.7261 30.9307 96.4812C31.7043 96.2428 32.6127 96.3573 33.5581 96.8118C33.6096 96.8366 33.8522 96.9776 34.2537 97.2129C34.2704 97.2226 34.2864 97.2321 34.3014 97.2408C34.8344 96.4485 35.7339 95.6314 36.6968 95.6631V95.6587C36.696 95.5047 36.6968 95.449 36.7205 95.3998C37.2734 94.2499 38.2413 93.3841 39.4455 92.962C40.6497 92.5398 41.9464 92.6117 43.0966 93.1647C45.339 94.2428 46.3642 96.8252 45.5061 99.1293C45.8051 99.1362 46.0992 99.2063 46.3688 99.3359C46.8776 99.5805 47.2608 100.009 47.4477 100.541C47.6193 101.031 47.6063 101.555 47.4133 102.032C48.1267 101.97 48.8379 102.099 49.4875 102.412C51.4792 103.369 52.3204 105.769 51.3626 107.761C50.5759 109.397 48.8014 110.292 47.0244 109.962C46.0685 111.072 44.4987 111.403 43.1716 110.766C42.9024 110.636 42.652 110.469 42.4255 110.266C41.8257 110.825 41.0484 111.119 40.2597 111.119ZM37.3529 106.978C37.3949 106.978 37.436 106.994 37.4664 107.025C37.5074 107.066 37.5233 107.126 37.5078 107.181C37.1392 108.514 37.7763 109.916 39.0226 110.515C40.1302 111.048 41.4501 110.813 42.3078 109.932C42.3376 109.902 42.3783 109.884 42.4211 109.884C42.4653 109.88 42.505 109.9 42.5353 109.93C42.7661 110.156 43.027 110.339 43.311 110.476C44.5326 111.064 45.9826 110.738 46.8374 109.685C46.8754 109.638 46.9365 109.616 46.9951 109.629C48.6599 109.978 50.3366 109.153 51.073 107.622C51.9541 105.789 51.1803 103.582 49.3482 102.701C48.6667 102.373 47.9108 102.264 47.1625 102.386C47.1015 102.397 47.0397 102.37 47.0043 102.319C46.9692 102.268 46.9667 102.2 46.998 102.147C47.0226 102.105 47.0469 102.062 47.0683 102.018C47.2758 101.586 47.3028 101.1 47.1444 100.648C46.986 100.196 46.6612 99.8329 46.2296 99.6254C45.9361 99.4843 45.608 99.4268 45.2804 99.4584C45.2233 99.4628 45.1686 99.4393 45.135 99.3934C45.1014 99.3473 45.0948 99.2873 45.1173 99.235C46.0686 97.0334 45.1197 94.4942 42.9573 93.4543C41.8845 92.9388 40.6752 92.8713 39.5518 93.2651C38.4353 93.6565 37.5367 94.4567 37.0194 95.5202C37.0175 95.5506 37.0179 95.6156 37.0181 95.6569C37.019 95.8035 37.0182 95.8565 36.997 95.9036C36.9677 95.969 36.8984 96.0065 36.8276 95.9969C35.9576 95.8711 35.0259 96.6828 34.4891 97.5422C34.4434 97.6152 34.3483 97.6393 34.2733 97.5965C34.2529 97.5848 34.1831 97.5439 34.0912 97.4902C33.8895 97.3719 33.4695 97.1258 33.4189 97.1014C32.5478 96.6825 31.7199 96.5744 31.0254 96.7883C30.3078 97.0094 29.7353 97.5556 29.3238 98.4117C28.9176 99.2564 28.8646 100.209 29.1747 101.093C29.4849 101.978 30.1209 102.688 30.9656 103.095C31.6466 103.422 32.4019 103.519 33.1494 103.374C33.1999 103.364 33.2521 103.379 33.2897 103.415C33.3272 103.45 33.3457 103.501 33.3393 103.552C33.1685 104.901 33.876 106.202 35.0998 106.79C35.7867 107.121 36.5717 107.189 37.3099 106.984C37.3241 106.98 37.3386 106.978 37.3529 106.978Z" fill="#8B865C"/>
<path d="M33.7848 111.529C33.7602 111.529 33.739 111.525 33.7219 111.519C33.5029 111.45 33.5413 111.201 33.6434 110.535C33.7245 110.008 33.847 109.21 33.8733 108.248C33.9033 107.156 33.8053 106.056 33.5824 104.976C33.5645 104.889 33.6203 104.804 33.7073 104.786C33.7938 104.768 33.8791 104.824 33.8971 104.911C34.1252 106.015 34.2251 107.14 34.1946 108.256C34.1678 109.239 34.0434 110.048 33.961 110.584C33.9356 110.75 33.9096 110.919 33.8946 111.05C34.1432 110.686 34.5817 109.781 34.849 108.695C35.0691 107.8 35.144 106.867 35.0713 105.923C35.0646 105.834 35.1307 105.757 35.2192 105.75C35.3088 105.743 35.3849 105.81 35.3918 105.898C35.467 106.876 35.3894 107.843 35.161 108.772C34.8648 109.976 34.2557 111.299 33.9076 111.495C33.8614 111.52 33.8197 111.529 33.7848 111.529Z" fill="#9E9569"/>
<path d="M36.1761 112.96C36.1284 112.96 36.0838 112.946 36.0407 112.917C35.6107 112.622 36.5399 111.055 36.793 110.683C37.3126 109.918 38.0009 109.273 38.8388 108.764C38.9148 108.718 39.0135 108.742 39.0596 108.818C39.1056 108.894 39.0814 108.992 39.0055 109.038C38.2074 109.523 37.5523 110.137 37.0587 110.863C36.5698 111.583 36.2777 112.327 36.2467 112.598C36.3798 112.509 36.6168 112.282 36.8149 112.093C37.0221 111.896 37.2568 111.672 37.517 111.448C38.6079 110.512 39.9447 109.78 41.4901 109.273C41.5745 109.245 41.6652 109.291 41.6929 109.375C41.7206 109.46 41.6746 109.55 41.5903 109.578C40.0852 110.072 38.7852 110.783 37.7262 111.692C37.4726 111.91 37.2411 112.131 37.0367 112.326C36.6211 112.722 36.372 112.96 36.1761 112.96Z" fill="#9E9569"/>
<path d="M40.1489 104.208C40.0775 104.208 40.0124 104.16 39.9934 104.088C39.9222 103.814 39.8113 103.551 39.6643 103.305C38.8167 101.891 36.9761 101.429 35.5617 102.277C34.9726 102.63 34.5199 103.179 34.2869 103.823C34.2567 103.907 34.165 103.95 34.0812 103.92C33.9977 103.89 33.9545 103.797 33.9847 103.714C34.2428 103 34.7442 102.392 35.3966 102.001C36.963 101.063 39.0012 101.573 39.9399 103.14C40.1026 103.412 40.2253 103.703 40.3045 104.006C40.3268 104.092 40.2754 104.18 40.1895 104.203C40.1759 104.206 40.1623 104.208 40.1489 104.208Z" fill="#8B865C"/>
<path d="M38.9117 102.379C38.8736 102.379 38.8355 102.366 38.8048 102.338C38.7386 102.279 38.7328 102.178 38.7919 102.112C38.9456 101.939 39.119 101.782 39.3069 101.644C40.1128 101.053 41.1307 100.857 42.0995 101.109C42.1855 101.132 42.237 101.219 42.2148 101.305C42.1925 101.391 42.1049 101.443 42.0189 101.42C41.1438 101.194 40.2246 101.369 39.4969 101.903C39.3271 102.028 39.1705 102.17 39.0317 102.326C38.9999 102.361 38.956 102.379 38.9117 102.379Z" fill="#8B865C"/>
<path d="M34.1184 100.61H34.1134C34.0247 100.607 33.955 100.533 33.9577 100.444C33.9953 99.2111 34.8566 98.1327 36.0524 97.8225C37.3234 97.4925 38.6717 98.1047 39.2577 99.2779C39.2973 99.3571 39.2651 99.4538 39.1857 99.4934C39.1061 99.533 39.0099 99.5008 38.9702 99.4215C38.4515 98.3829 37.2581 97.842 36.1331 98.1333C35.0747 98.408 34.3122 99.3625 34.2789 100.454C34.2762 100.541 34.2048 100.61 34.1184 100.61Z" fill="#8B865C"/>
<path d="M44.696 108.575C44.6484 108.575 44.601 108.554 44.5694 108.513C44.5147 108.443 44.527 108.342 44.5969 108.288C44.7719 108.15 44.9267 107.989 45.0573 107.807C45.8113 106.757 45.5702 105.289 44.5201 104.535C44.0828 104.221 43.5475 104.067 43.0106 104.099C42.9237 104.105 42.8459 104.037 42.8404 103.949C42.835 103.86 42.9023 103.784 42.991 103.778C43.6 103.741 44.2103 103.917 44.7075 104.274C45.9015 105.131 46.1756 106.8 45.3185 107.994C45.1699 108.201 44.9939 108.385 44.7949 108.54C44.7656 108.564 44.7307 108.575 44.696 108.575Z" fill="#8B865C"/>
<path d="M31.7484 100.006C31.7022 100.006 31.6563 99.9866 31.6245 99.9484C31.2058 99.442 30.6065 99.1674 29.978 99.1905C29.8323 99.196 29.687 99.218 29.5461 99.2557C29.4597 99.2789 29.3723 99.2278 29.3494 99.1423C29.3264 99.0565 29.3774 98.9683 29.463 98.9453C29.6269 98.9015 29.7959 98.8761 29.9655 98.8694C30.6932 98.8373 31.389 99.1591 31.8721 99.7435C31.9286 99.8118 31.919 99.9132 31.8506 99.9698C31.8207 99.9945 31.7845 100.006 31.7484 100.006Z" fill="#8B865C"/>
<path d="M26.4506 123.641C30.5965 120.228 28.0723 113.004 26.3419 110.78C23.1436 106.668 20.4332 107.175 18.3213 105.555C17.0738 104.598 12.3063 98.351 9.35082 99.6051C6.82544 100.677 9.61365 107.327 9.98712 109.195C10.4811 111.665 8.90967 115.935 11.1141 120.506C13.2757 124.988 21.3781 127.815 26.4506 123.641Z" fill="#8B865C"/>
<path d="M28.1061 122.609C32.252 119.197 31.309 113.712 29.5786 111.488C26.3803 107.377 23.6699 107.883 21.558 106.263C20.3105 105.306 13.3916 98.1089 10.4361 99.3631C7.9107 100.435 12.8504 108.036 13.2238 109.903C13.7178 112.374 12.3563 114.881 13.8488 118.53C15.7328 123.136 23.0336 126.784 28.1061 122.609Z" fill="#EFBC73"/>
<path d="M23.7976 124.601C23.0481 124.601 22.2807 124.504 21.5052 124.309C18.3995 123.526 15.5883 121.228 14.5096 118.591C13.5773 116.312 13.7419 114.459 13.8872 112.824C13.9769 111.816 14.0615 110.864 13.8758 109.934C13.7698 109.405 13.2648 108.359 12.6799 107.149C11.4529 104.608 9.92578 101.447 10.491 99.9444C10.6204 99.6004 10.8531 99.3549 11.1827 99.215C13.7072 98.1444 18.8522 102.857 21.3248 105.123C21.841 105.596 22.2488 105.969 22.4653 106.135C23.1794 106.683 23.9833 106.989 24.8343 107.313C26.5051 107.949 28.3987 108.669 30.5148 111.389C32.135 113.472 33.4104 119.118 29.0176 122.733C27.5205 123.965 25.7192 124.601 23.7976 124.601ZM12.0205 99.3778C11.7615 99.3778 11.5228 99.4198 11.3082 99.5111C11.0593 99.6166 10.8903 99.7953 10.7917 100.057C10.2751 101.431 11.8322 104.655 12.9693 107.009C13.5636 108.239 14.0769 109.302 14.1908 109.871C14.3857 110.846 14.2991 111.821 14.2073 112.852C14.0653 114.451 13.9043 116.262 14.8071 118.469C15.849 121.016 18.5724 123.238 21.5838 123.997C24.2458 124.668 26.8133 124.131 28.8135 122.485C33.0378 119.009 31.8165 113.586 30.2613 111.587C28.2003 108.937 26.3513 108.234 24.7201 107.613C23.8463 107.281 23.0211 106.967 22.2696 106.39C22.042 106.216 21.6501 105.857 21.1078 105.36C19.0792 103.501 14.5785 99.3778 12.0205 99.3778Z" fill="#8B865C"/>
<path d="M26.6196 117.281C28.3989 116.051 28.2029 112.108 26.4618 109.712C24.2373 106.651 19.2393 105.77 17.7326 107.523C16.4531 109.012 17.7848 112.291 19.2176 114.126C21.0508 116.474 24.7189 118.594 26.6196 117.281Z" fill="#B77250"/>
<path d="M35.9581 128.282L36.2185 128.96L35.9109 128.767L35.7217 129.034L35.4664 128.724L35.1482 129.06L34.9776 128.717L34.4899 129.118L34.7979 128.047L35.9581 128.282Z" fill="#363E44"/>
<path d="M27.8398 120.556C27.8398 124.839 30.8079 128.34 35.3821 128.34C39.9561 128.34 43.0245 124.877 43.0245 120.594C43.0245 116.912 40.8322 114.701 37.4623 114.587C36.8751 114.567 35.9117 114.929 35.2698 114.929C34.5226 114.929 33.4501 114.549 32.7932 114.587C29.5045 114.777 27.8398 116.972 27.8398 120.556Z" fill="#D87355"/>
<path d="M35.1886 115.722C35.1738 115.722 35.1587 115.72 35.1439 115.716C35.0586 115.691 35.0095 115.602 35.0342 115.517C35.259 114.74 34.9993 113.773 34.2404 112.561C34.1932 112.486 34.216 112.387 34.2912 112.34C34.3666 112.292 34.4656 112.315 34.5127 112.39C35.3229 113.685 35.5945 114.737 35.3429 115.606C35.3226 115.676 35.2584 115.722 35.1886 115.722Z" fill="#363E44"/>
</g>
</svg>
