<svg width="359" height="122" viewBox="0 0 359 122" fill="none" xmlns="http://www.w3.org/2000/svg">
<g opacity="0.4">
<path d="M259.391 123.878C259.391 123.878 273.438 42.7952 316.93 46.5828C360.422 50.3704 365.178 118.442 352.5 123.878C339.822 129.314 257.129 123.878 257.129 123.878" fill="#F1D5E6"/>
<path opacity="0.2" d="M313.342 52.3896C313.342 52.3896 339.908 90.0303 306.824 120.486" stroke="#707070"/>
<path d="M195.08 122C195.08 122 186.912 -4.0857 137.201 0.246333C87.4902 4.57836 70.3223 67.2429 70.3223 67.2429L108.451 122H195.08Z" fill="#F1D5E6"/>
<path opacity="0.3" d="M111.829 76.6489C111.829 76.6489 98.9876 26.0762 133.533 7.05225" stroke="#707070"/>
<g opacity="0.2">
<path d="M27.6408 122C27.6408 122 25.5548 117.465 31.7912 112.747C38.0275 108.03 37.9123 107.2 38.3986 104.806C38.8849 102.411 32.3068 94.6263 23.8947 86.5834C19.1564 82.0536 11.4084 76.8998 8.16421 73.037C-0.464695 62.7635 0.216946 47.0643 2.13882 42.6834C4.0607 38.3026 15.9748 29.9266 29.1037 31.4896C42.2326 33.0526 59.5802 51.7733 59.5802 51.7733" stroke="#707070"/>
<path d="M53.5977 99.5811L15.834 40.4082" stroke="#707070"/>
<path d="M47.7383 56.4727C47.7383 56.4727 53.4414 67.3081 44.7324 71.9077" stroke="#707070"/>
<path d="M10.0254 56.4727L25.5215 72.6904" stroke="#707070"/>
</g>
<path d="M143.725 120.476C143.725 120.476 110.528 47.8775 71.5649 64.3345C32.6021 80.7916 69.145 121.896 69.145 121.896H143.725V120.476Z" fill="#E6C0D7"/>
<path opacity="0.2" d="M113.328 122C113.328 122 68.5022 107.447 71.2268 72.0469" stroke="#707070"/>
</g>
</svg>
