<svg width="13" height="13" viewBox="0 0 13 13" fill="none" xmlns="http://www.w3.org/2000/svg">
<path d="M9.2758 6.74335H6.74335V9.2758H5.50657V6.74335H2.97412V5.50657H5.50657V2.97412H6.74335V5.50657H9.2758V6.74335Z" fill="black"/>
<path d="M6.125 1.23678C7.42951 1.23678 8.65745 1.74621 9.58209 2.66791C10.5038 3.59255 11.0132 4.82049 11.0132 6.125C11.0132 7.42951 10.5038 8.65745 9.58209 9.58209C8.65745 10.5038 7.42951 11.0132 6.125 11.0132C4.82049 11.0132 3.59255 10.5038 2.66791 9.58209C1.74621 8.65745 1.23678 7.42951 1.23678 6.125C1.23678 4.82049 1.74621 3.59255 2.66791 2.66791C3.59255 1.74621 4.82049 1.23678 6.125 1.23678ZM6.125 0C2.74153 0 0 2.74153 0 6.125C0 9.50847 2.74153 12.25 6.125 12.25C9.50847 12.25 12.25 9.50847 12.25 6.125C12.25 2.74153 9.50847 0 6.125 0Z" fill="black"/>
</svg>
