<svg width="19" height="19" viewBox="0 0 19 19" fill="none" xmlns="http://www.w3.org/2000/svg">
<g clip-path="url(#clip0_1310_3008)">
<path d="M2.09995 10.4621C2.22553 10.2992 2.45943 10.2689 2.62245 10.3945C2.78543 10.5201 2.81568 10.7541 2.69006 10.917C2.30706 11.4138 2.10463 12.009 2.10463 12.638C2.10463 12.8437 1.93782 13.0105 1.73208 13.0105C1.52635 13.0105 1.35954 12.8437 1.35954 12.638C1.35954 11.8429 1.61556 11.0904 2.09995 10.4621Z" fill="black"/>
<path d="M4.93652 2.71899C3.34351 2.71899 2.0471 4.01471 2.04688 5.60767C2.04688 6.56973 2.52094 7.42229 3.24609 7.94751C1.32625 8.64138 -0.0497471 10.4815 -0.0498047 12.6379C-0.0498047 13.2342 0.291011 14.0932 1.85059 14.8723C2.96048 15.4267 4.48272 15.8424 6.25098 16.0754C7.28868 16.2123 8.38201 16.2815 9.5 16.2815C10.6176 16.2815 11.7104 16.2123 12.748 16.0754C14.5163 15.8425 16.0385 15.4266 17.1484 14.8723C18.7084 14.0932 19.0498 13.2343 19.0498 12.6379V12.6262C19.0448 10.4752 17.6706 8.6404 15.7549 7.94751C16.4795 7.42221 16.9521 6.5694 16.9521 5.60767C16.952 4.01468 15.6563 2.71899 14.0635 2.71899C12.4705 2.7191 11.175 4.01474 11.1748 5.60767C11.1748 6.56944 11.6483 7.42125 12.373 7.94653C11.8634 8.13001 11.3852 8.39664 10.9561 8.7395C10.5634 8.37672 10.0456 8.16725 9.5 8.16724C8.95444 8.16724 8.4368 8.37674 8.04395 8.7395C7.61511 8.39676 7.13724 8.13 6.62793 7.94653C7.3523 7.42121 7.8252 6.5691 7.8252 5.60767C7.82497 4.01478 6.52943 2.71912 4.93652 2.71899ZM9.5 12.4641C11.0275 12.4641 12.2702 13.7072 12.2705 15.2346V15.2805C11.3797 15.3826 10.4499 15.4358 9.5 15.4358C8.54999 15.4358 7.62015 15.3826 6.72949 15.2805V15.2346C6.72975 13.7072 7.97229 12.4641 9.5 12.4641ZM14.0635 8.49731C16.3466 8.49731 18.204 10.3546 18.2041 12.6379C18.2041 12.6405 18.205 12.643 18.2051 12.6438C18.2032 12.8809 18.0807 13.1307 17.8389 13.3821C17.5967 13.6338 17.2381 13.8834 16.7715 14.1165C15.8461 14.5786 14.5886 14.9384 13.1133 15.1672C13.0863 13.7098 12.1939 12.4618 10.9287 11.9153C11.3687 11.5217 11.6484 10.9514 11.6484 10.3157C11.6484 10.0042 11.5805 9.70207 11.4531 9.42407C12.1898 8.82448 13.1046 8.49737 14.0635 8.49731ZM4.93652 8.49731C5.89566 8.49738 6.8105 8.82435 7.54688 9.42407C7.41934 9.70236 7.3516 10.0045 7.35156 10.3157C7.35156 10.9518 7.63175 11.5216 8.07227 11.9153C6.80643 12.4616 5.91368 13.7094 5.88672 15.1672C4.41135 14.9384 3.15391 14.5787 2.22852 14.1165C1.76045 13.8827 1.40043 13.6326 1.1582 13.3801C0.915843 13.1275 0.794922 12.8761 0.794922 12.6379C0.794975 10.3546 2.65318 8.49735 4.93652 8.49731ZM9.5 9.01294C9.92655 9.01294 10.3265 9.22249 10.5703 9.57349C10.7225 9.79191 10.8027 10.0481 10.8027 10.3157C10.8027 11.0344 10.2185 11.6194 9.5 11.6194C8.78132 11.6194 8.19629 11.0344 8.19629 10.3157C8.19635 10.0486 8.27678 9.79202 8.42871 9.57349L8.43359 9.56763V9.56665C8.67776 9.21951 9.0758 9.01294 9.5 9.01294ZM14.0635 3.56372C15.1902 3.56372 16.1072 4.48076 16.1074 5.60767C16.1074 6.73456 15.1903 7.65161 14.0635 7.65161C12.9365 7.65146 12.0195 6.73446 12.0195 5.60767C12.0198 4.4809 12.9367 3.56387 14.0635 3.56372ZM4.93652 3.56372C6.06332 3.56385 6.98025 4.48085 6.98047 5.60767C6.98047 6.73447 6.06347 7.65148 4.93652 7.65161C3.80947 7.65161 2.89258 6.73455 2.89258 5.60767C2.8928 4.48081 3.80962 3.56372 4.93652 3.56372Z" fill="black" stroke="black" stroke-width="0.1"/>
<path d="M3.21629 9.58704C3.69571 9.58704 3.69656 10.3321 3.21629 10.3321C2.73684 10.3321 2.73606 9.58704 3.21629 9.58704Z" fill="black"/>
</g>
<defs>
<clipPath id="clip0_1310_3008">
<rect width="19" height="19" fill="white" transform="matrix(-1 0 0 1 19 0)"/>
</clipPath>
</defs>
</svg>
