<svg width="22" height="18" viewBox="0 0 22 18" fill="none" xmlns="http://www.w3.org/2000/svg">
<path d="M20.5 11.9999H20V8.62175C20 8.22488 19.8406 7.84363 19.5594 7.56238L16.4375 4.4405C16.1562 4.15925 15.775 3.99988 15.3781 3.99988H14V2.49988C14 1.67175 13.3281 0.999878 12.5 0.999878H2.5C1.67188 0.999878 1 1.67175 1 2.49988V12.4999C1 13.328 1.67188 13.9999 2.5 13.9999H3C3 15.6561 4.34375 16.9999 6 16.9999C7.65625 16.9999 9 15.6561 9 13.9999H13C13 15.6561 14.3438 16.9999 16 16.9999C17.6562 16.9999 19 15.6561 19 13.9999H20.5C20.775 13.9999 21 13.7749 21 13.4999V12.4999C21 12.2249 20.775 11.9999 20.5 11.9999ZM6 15.4999C5.17188 15.4999 4.5 14.828 4.5 13.9999C4.5 13.1718 5.17188 12.4999 6 12.4999C6.82812 12.4999 7.5 13.1718 7.5 13.9999C7.5 14.828 6.82812 15.4999 6 15.4999ZM10.5 7.74988C10.5 7.88738 10.3875 7.99988 10.25 7.99988H8.5V9.74988C8.5 9.88738 8.3875 9.99988 8.25 9.99988H6.75C6.6125 9.99988 6.5 9.88738 6.5 9.74988V7.99988H4.75C4.6125 7.99988 4.5 7.88738 4.5 7.74988V6.24988C4.5 6.11238 4.6125 5.99988 4.75 5.99988H6.5V4.24988C6.5 4.11238 6.6125 3.99988 6.75 3.99988H8.25C8.3875 3.99988 8.5 4.11238 8.5 4.24988V5.99988H10.25C10.3875 5.99988 10.5 6.11238 10.5 6.24988V7.74988ZM16 15.4999C15.1719 15.4999 14.5 14.828 14.5 13.9999C14.5 13.1718 15.1719 12.4999 16 12.4999C16.8281 12.4999 17.5 13.1718 17.5 13.9999C17.5 14.828 16.8281 15.4999 16 15.4999ZM18.5 8.99988H14V5.49988H15.3781L18.5 8.62175V8.99988Z" fill="white" stroke="black"/>
</svg>
