<svg width="19" height="20" viewBox="0 0 19 20" fill="none" xmlns="http://www.w3.org/2000/svg">
<path d="M13.4287 0.900391C13.8876 0.900411 14.2596 1.27577 14.2598 1.73633V6.56055L15.7129 4.7832C16.1849 4.20564 17.0355 4.12265 17.6094 4.59766C18.1827 5.07293 18.2655 5.92804 17.7939 6.50488L15.4668 9.35254L14.2598 10.8281V18.2637C14.2598 18.7243 13.8878 19.0994 13.4287 19.0996H1.73145C1.27259 19.0995 0.900707 18.724 0.900391 18.2637V4.5957L0.902344 4.57129C0.902928 4.56836 0.903759 4.56557 0.904297 4.56348C0.906779 4.53085 0.91226 4.49076 0.928711 4.45117V4.4502C0.943024 4.41678 0.969999 4.38451 0.975586 4.37695L0.976562 4.37598L0.981445 4.36816C0.985431 4.3613 0.99414 4.3462 1.00781 4.33203L1.00879 4.33105L4.30469 1.00977C4.32169 0.992649 4.34008 0.977878 4.3584 0.96582L4.39941 0.943359C4.39858 0.943952 4.39802 0.944886 4.39746 0.945312C4.39792 0.944949 4.39905 0.944368 4.40039 0.943359C4.40507 0.941003 4.40947 0.937681 4.41406 0.935547L4.41504 0.93457C4.40894 0.9373 4.40424 0.940444 4.40137 0.942383C4.40253 0.941526 4.40381 0.940442 4.40527 0.939453C4.40958 0.936564 4.41645 0.933172 4.4248 0.929688V0.928711C4.46916 0.910217 4.51817 0.900391 4.56836 0.900391H13.4287ZM4.93945 4.13184C4.93939 4.5922 4.56731 4.96775 4.1084 4.96777H1.6416V18.2637C1.6416 18.3141 1.68254 18.3544 1.73145 18.3545H13.4287C13.4775 18.3545 13.5186 18.3141 13.5186 18.2637V11.7363L10.8848 14.96L10.8838 14.959C10.8585 14.9902 10.8291 15.0164 10.7969 15.0371V15.0381L8.14941 16.7295C8.13691 16.7375 8.12492 16.7428 8.11914 16.7451C8.11778 16.7457 8.11612 16.7458 8.11523 16.7461L8.11328 16.7471C8.10388 16.752 8.09264 16.7561 8.08008 16.7607L8.08105 16.7617C8.04304 16.7762 7.99863 16.7881 7.9502 16.7881C7.94738 16.7881 7.94478 16.7873 7.94238 16.7871H3.30273C3.0973 16.7871 2.9318 16.62 2.93164 16.415C2.93164 16.2097 3.09714 16.042 3.30273 16.042H7.69629L8.34961 14.3574H3.30273C3.09714 14.3574 2.93164 14.1897 2.93164 13.9844C2.93169 13.7794 3.0971 13.6113 3.30273 13.6113H8.63867L8.74414 13.3389L8.76953 13.2861C8.77939 13.2692 8.79022 13.2526 8.80273 13.2373L9.87305 11.9277H3.30273C3.0972 11.9277 2.93164 11.7598 2.93164 11.5547C2.93167 11.3494 3.09716 11.1816 3.30273 11.1816H10.4834L13.5186 7.46777V1.73633C13.5186 1.68546 13.4776 1.64553 13.4287 1.64551H4.93945V4.13184ZM7.92676 16.7852C7.9275 16.7853 7.92963 16.7858 7.93164 16.7861H7.93359C7.93169 16.7858 7.92979 16.7854 7.92871 16.7852H7.92676ZM8.70703 15.4893L9.9668 14.6836L9.24902 14.0889L8.70703 15.4893ZM9.61035 13.4229L10.5459 14.1982L14.6582 9.16602L13.7227 8.39062L9.61035 13.4229ZM17.1377 5.17188C16.8803 4.95932 16.4986 4.99681 16.2861 5.25586L14.1934 7.81543L15.1289 8.59082L17.2207 6.03223C17.4329 5.77237 17.3957 5.38595 17.1377 5.17188ZM2.16406 4.22266H4.1084C4.15683 4.22248 4.1972 4.18227 4.19727 4.13184V2.17285L2.16406 4.22266Z" fill="black" stroke="black" stroke-width="0.2"/>
</svg>
