<svg width="115" height="12" viewBox="0 0 115 12" fill="none" xmlns="http://www.w3.org/2000/svg">
<path d="M2.926 5.666H4.48C5.586 5.666 6.076 5.12 6.076 4.252C6.076 3.356 5.586 2.824 4.48 2.824H2.926V5.666ZM8.092 4.252C8.092 5.736 7.084 7.248 4.564 7.248H2.926V11H0.966V1.228H4.564C6.916 1.228 8.092 2.558 8.092 4.252ZM8.97958 7.094C8.97958 4.672 10.5476 3.118 12.5216 3.118C13.7676 3.118 14.6216 3.706 15.0836 4.35V3.244H17.0576V11H15.0836V9.866C14.6216 10.538 13.7396 11.126 12.5076 11.126C10.5476 11.126 8.97958 9.516 8.97958 7.094ZM15.0836 7.122C15.0836 5.652 14.1036 4.84 13.0256 4.84C11.9756 4.84 10.9816 5.624 10.9816 7.094C10.9816 8.564 11.9756 9.404 13.0256 9.404C14.1036 9.404 15.0836 8.592 15.0836 7.122ZM24.9919 8.788C24.9919 10.118 23.8299 11.126 21.9399 11.126C19.9939 11.126 18.6359 9.992 18.5519 8.55H20.5259C20.5959 9.138 21.1419 9.586 21.9259 9.586C22.6959 9.586 23.1159 9.236 23.1159 8.788C23.1159 7.402 18.7339 8.284 18.7339 5.442C18.7339 4.154 19.8819 3.118 21.7999 3.118C23.6759 3.118 24.8099 4.14 24.9219 5.68H23.0459C22.9899 5.078 22.5139 4.672 21.7439 4.672C21.0159 4.672 20.6379 4.966 20.6379 5.414C20.6379 6.828 24.9359 5.946 24.9919 8.788ZM26.9088 8.592V4.854H25.9848V3.244H26.9088V1.326H28.8828V3.244H30.6188V4.854H28.8828V8.606C28.8828 9.124 29.0928 9.348 29.7088 9.348H30.6188V11H29.3868C27.9028 11 26.9088 10.37 26.9088 8.592ZM37.3244 5.666H38.8784C39.9844 5.666 40.4744 5.12 40.4744 4.252C40.4744 3.356 39.9844 2.824 38.8784 2.824H37.3244V5.666ZM42.4904 4.252C42.4904 5.736 41.4824 7.248 38.9624 7.248H37.3244V11H35.3644V1.228H38.9624C41.3144 1.228 42.4904 2.558 42.4904 4.252ZM45.842 7.136V11H43.882V3.244H45.842V4.448C46.332 3.65 47.144 3.132 48.222 3.132V5.19H47.704C46.542 5.19 45.842 5.638 45.842 7.136ZM57.0322 7.122C57.0322 9.558 55.2402 11.126 52.9862 11.126C50.7462 11.126 49.0522 9.558 49.0522 7.122C49.0522 4.672 50.8022 3.118 53.0422 3.118C55.2822 3.118 57.0322 4.672 57.0322 7.122ZM51.0402 7.122C51.0402 8.662 51.9362 9.418 52.9862 9.418C54.0222 9.418 55.0162 8.662 55.0162 7.122C55.0162 5.568 54.0502 4.826 53.0142 4.826C51.9782 4.826 51.0402 5.568 51.0402 7.122ZM57.9659 7.122C57.9659 4.686 59.5619 3.118 61.8019 3.118C63.7339 3.118 65.0359 4.126 65.4559 5.862H63.3419C63.1179 5.204 62.5999 4.784 61.7879 4.784C60.6959 4.784 59.9679 5.61 59.9679 7.122C59.9679 8.634 60.6959 9.446 61.7879 9.446C62.5999 9.446 63.1039 9.082 63.3419 8.382H65.4559C65.0359 10.034 63.7339 11.126 61.8019 11.126C59.5619 11.126 57.9659 9.558 57.9659 7.122ZM70.2238 4.728C69.2858 4.728 68.5438 5.33 68.3898 6.394H72.0718C72.0438 5.372 71.2318 4.728 70.2238 4.728ZM73.9058 8.564C73.4858 9.992 72.1978 11.126 70.2798 11.126C68.0258 11.126 66.3878 9.558 66.3878 7.122C66.3878 4.672 67.9838 3.118 70.2798 3.118C72.5198 3.118 74.1018 4.644 74.1018 6.954C74.1018 7.206 74.0878 7.458 74.0458 7.71H68.3758C68.4738 8.858 69.2578 9.502 70.2378 9.502C71.0778 9.502 71.5398 9.082 71.7918 8.564H73.9058ZM75.0284 7.094C75.0284 4.672 76.5964 3.118 78.5844 3.118C79.6064 3.118 80.5864 3.594 81.1184 4.322V0.64H83.1064V11H81.1184V9.852C80.6564 10.566 79.7884 11.126 78.5704 11.126C76.5964 11.126 75.0284 9.516 75.0284 7.094ZM81.1324 7.122C81.1324 5.652 80.1524 4.84 79.0744 4.84C78.0244 4.84 77.0304 5.624 77.0304 7.094C77.0304 8.564 78.0244 9.404 79.0744 9.404C80.1524 9.404 81.1324 8.592 81.1324 7.122ZM92.3427 3.244V11H90.3687V10.02C89.8787 10.678 89.0247 11.098 88.0587 11.098C86.2527 11.098 84.9507 9.922 84.9507 7.794V3.244H86.9107V7.514C86.9107 8.76 87.5967 9.432 88.6327 9.432C89.6967 9.432 90.3687 8.76 90.3687 7.514V3.244H92.3427ZM96.2365 7.136V11H94.2765V3.244H96.2365V4.448C96.7265 3.65 97.5385 3.132 98.6165 3.132V5.19H98.0985C96.9365 5.19 96.2365 5.638 96.2365 7.136ZM103.269 4.728C102.331 4.728 101.589 5.33 101.435 6.394H105.117C105.089 5.372 104.277 4.728 103.269 4.728ZM106.951 8.564C106.531 9.992 105.243 11.126 103.325 11.126C101.071 11.126 99.4327 9.558 99.4327 7.122C99.4327 4.672 101.029 3.118 103.325 3.118C105.565 3.118 107.147 4.644 107.147 6.954C107.147 7.206 107.133 7.458 107.091 7.71H101.421C101.519 8.858 102.303 9.502 103.283 9.502C104.123 9.502 104.585 9.082 104.837 8.564H106.951ZM114.597 8.788C114.597 10.118 113.435 11.126 111.545 11.126C109.599 11.126 108.241 9.992 108.157 8.55H110.131C110.201 9.138 110.747 9.586 111.531 9.586C112.301 9.586 112.721 9.236 112.721 8.788C112.721 7.402 108.339 8.284 108.339 5.442C108.339 4.154 109.487 3.118 111.405 3.118C113.281 3.118 114.415 4.14 114.527 5.68H112.651C112.595 5.078 112.119 4.672 111.349 4.672C110.621 4.672 110.243 4.966 110.243 5.414C110.243 6.828 114.541 5.946 114.597 8.788Z" fill="black"/>
</svg>
